<svg version="1.1" viewBox="0.0 0.0 434.3910761154856 367.3622047244094" fill="none" stroke="none" stroke-linecap="square" stroke-miterlimit="10" xmlns:xlink="http://www.w3.org/1999/xlink" xmlns="http://www.w3.org/2000/svg"><clipPath id="p.0"><path d="m0 0l434.39108 0l0 367.3622l-434.39108 0l0 -367.3622z" clip-rule="nonzero"/></clipPath><g clip-path="url(#p.0)"><path fill="#000000" fill-opacity="0.0" d="m0 0l434.39108 0l0 367.3622l-434.39108 0z" fill-rule="evenodd"/><path fill="#ffffff" d="m0 108.25197l108.28346 0l0 147.33858l-108.28346 0z" fill-rule="evenodd"/><path stroke="#666666" stroke-width="1.0" stroke-linejoin="round" stroke-linecap="butt" d="m0 108.25197l108.28346 0l0 147.33858l-108.28346 0z" fill-rule="evenodd"/><path fill="#666666" d="m87.4535 158.87813l0 16.046875q0 3.546875 -1.625 6.609375q1.625 2.984375 1.625 6.53125l0 14.59375q0 5.671875 -4.125 9.796875q-4.125 4.125 -9.890625 4.125l-39.84375 0q-5.75 0 -9.890625 -4.125q-4.125 -4.125 -4.125 -9.796875l0 -14.59375q0 -3.0625 1.640625 -6.53125q-1.640625 -3.453125 -1.640625 -6.609375l0 -13.546875q0 -5.75 4.125 -9.828125q4.140625 -4.09375 9.890625 -4.09375l39.84375 0q5.1875 0 9.171875 3.265625q3.984375 3.265625 4.84375 8.15625zm-53.1875 30.0625l0 12.953125l38.5 0l0 -12.953125l-38.5 0zm0 -26.703125l0 12.875l38.5 0l0 -12.875l-38.5 0z" fill-rule="nonzero"/><path fill="#ffffff" d="m108.282585 108.25197l108.283455 0l0 147.33858l-108.283455 0z" fill-rule="evenodd"/><path stroke="#666666" stroke-width="1.0" stroke-linejoin="round" stroke-linecap="butt" d="m108.282585 108.25197l108.283455 0l0 147.33858l-108.283455 0z" fill-rule="evenodd"/><path fill="#666666" d="m195.73608 158.87813l0 16.046875q0 3.546875 -1.625 6.609375q1.625 2.984375 1.625 6.53125l0 14.59375q0 5.671875 -4.125 9.796875q-4.125 4.125 -9.890625 4.125l-39.84375 0q-5.75 0 -9.890625 -4.125q-4.125 -4.125 -4.125 -9.796875l0 -14.59375q0 -3.0625 1.640625 -6.53125q-1.640625 -3.453125 -1.640625 -6.609375l0 -13.546875q0 -5.75 4.125 -9.828125q4.140625 -4.09375 9.890625 -4.09375l39.84375 0q5.1875 0 9.171875 3.265625q3.984375 3.265625 4.84375 8.15625zm-53.1875 30.0625l0 12.953125l38.5 0l0 -12.953125l-38.5 0zm0 -26.703125l0 12.875l38.5 0l0 -12.875l-38.5 0z" fill-rule="nonzero"/><path fill="#ffffff" d="m216.56773 108.25197l108.28346 0l0 147.33858l-108.28346 0z" fill-rule="evenodd"/><path stroke="#666666" stroke-width="1.0" stroke-linejoin="round" stroke-linecap="butt" d="m216.56773 108.25197l108.28346 0l0 147.33858l-108.28346 0z" fill-rule="evenodd"/><path fill="#666666" d="m304.02124 158.87813l0 16.046875q0 3.546875 -1.625 6.609375q1.625 2.984375 1.625 6.53125l0 14.59375q0 5.671875 -4.125 9.796875q-4.125 4.125 -9.890625 4.125l-39.843765 0q-5.75 0 -9.890625 -4.125q-4.125 -4.125 -4.125 -9.796875l0 -14.59375q0 -3.0625 1.640625 -6.53125q-1.640625 -3.453125 -1.640625 -6.609375l0 -13.546875q0 -5.75 4.125 -9.828125q4.140625 -4.09375 9.890625 -4.09375l39.843765 0q5.1875 0 9.171875 3.265625q3.984375 3.265625 4.84375 8.15625zm-53.187515 30.0625l0 12.953125l38.500015 0l0 -12.953125l-38.500015 0zm0 -26.703125l0 12.875l38.500015 0l0 -12.875l-38.500015 0z" fill-rule="nonzero"/><path fill="#ffffff" d="m324.8503 108.25197l108.28348 0l0 147.33858l-108.28348 0z" fill-rule="evenodd"/><path stroke="#666666" stroke-width="1.0" stroke-linejoin="round" stroke-linecap="butt" d="m324.8503 108.25197l108.28348 0l0 147.33858l-108.28348 0z" fill-rule="evenodd"/><path fill="#666666" d="m412.3038 158.87813l0 16.046875q0 3.546875 -1.625 6.609375q1.625 2.984375 1.625 6.53125l0 14.59375q0 5.671875 -4.125 9.796875q-4.125 4.125 -9.890625 4.125l-39.84375 0q-5.75 0 -9.890625 -4.125q-4.125 -4.125 -4.125 -9.796875l0 -14.59375q0 -3.0625 1.640625 -6.53125q-1.640625 -3.453125 -1.640625 -6.609375l0 -13.546875q0 -5.75 4.125 -9.828125q4.140625 -4.09375 9.890625 -4.09375l39.84375 0q5.1875 0 9.171875 3.265625q3.984375 3.265625 4.84375 8.15625zm-53.1875 30.0625l0 12.953125l38.5 0l0 -12.953125l-38.5 0zm0 -26.703125l0 12.875l38.5 0l0 -12.875l-38.5 0z" fill-rule="nonzero"/><path fill="#000000" fill-opacity="0.0" d="m54.14109 38.765984l0 69.19685" fill-rule="evenodd"/><path stroke="#000000" stroke-width="3.0" stroke-linejoin="round" stroke-linecap="butt" d="m54.14109 38.765984l0 69.19685" fill-rule="evenodd"/><path fill="#000000" fill-opacity="0.0" d="m108.113075 39.055668l0 69.19685" fill-rule="evenodd"/><path stroke="#000000" stroke-width="3.0" stroke-linejoin="round" stroke-linecap="butt" d="m108.113075 39.055668l0 69.19685" fill-rule="evenodd"/><path fill="#000000" fill-opacity="0.0" d="m162.42587 39.05512l0 69.19685" fill-rule="evenodd"/><path stroke="#000000" stroke-width="3.0" stroke-linejoin="round" stroke-linecap="butt" d="m162.42587 39.05512l0 69.19685" fill-rule="evenodd"/><path fill="#000000" fill-opacity="0.0" d="m216.5676 39.05512l0 69.19685" fill-rule="evenodd"/><path stroke="#000000" stroke-width="3.0" stroke-linejoin="round" stroke-linecap="butt" d="m216.5676 39.05512l0 69.19685" fill-rule="evenodd"/><path fill="#000000" fill-opacity="0.0" d="m270.70932 37.952755l0 69.19685" fill-rule="evenodd"/><path stroke="#000000" stroke-width="3.0" stroke-linejoin="round" stroke-linecap="butt" d="m270.70932 37.952755l0 69.19685" fill-rule="evenodd"/><path fill="#000000" fill-opacity="0.0" d="m324.85107 39.05512l0 69.19685" fill-rule="evenodd"/><path stroke="#000000" stroke-width="3.0" stroke-linejoin="round" stroke-linecap="butt" d="m324.85107 39.05512l0 69.19685" fill-rule="evenodd"/><path fill="#000000" fill-opacity="0.0" d="m378.9928 37.952755l0 69.19685" fill-rule="evenodd"/><path stroke="#000000" stroke-width="3.0" stroke-linejoin="round" stroke-linecap="butt" d="m378.9928 37.952755l0 69.19685" fill-rule="evenodd"/><path fill="#000000" fill-opacity="0.0" d="m54.14109 256.6925l0 69.19684" fill-rule="evenodd"/><path stroke="#000000" stroke-width="3.0" stroke-linejoin="round" stroke-linecap="butt" d="m54.14109 256.6925l0 69.19684" fill-rule="evenodd"/><path fill="#000000" fill-opacity="0.0" d="m108.113075 256.98218l0 69.19684" fill-rule="evenodd"/><path stroke="#000000" stroke-width="3.0" stroke-linejoin="round" stroke-linecap="butt" d="m108.113075 256.98218l0 69.19684" fill-rule="evenodd"/><path fill="#000000" fill-opacity="0.0" d="m162.42587 256.98163l0 69.19684" fill-rule="evenodd"/><path stroke="#000000" stroke-width="3.0" stroke-linejoin="round" stroke-linecap="butt" d="m162.42587 256.98163l0 69.19684" fill-rule="evenodd"/><path fill="#000000" fill-opacity="0.0" d="m216.5676 256.98163l0 69.19684" fill-rule="evenodd"/><path stroke="#000000" stroke-width="3.0" stroke-linejoin="round" stroke-linecap="butt" d="m216.5676 256.98163l0 69.19684" fill-rule="evenodd"/><path fill="#000000" fill-opacity="0.0" d="m270.70932 255.87927l0 69.19684" fill-rule="evenodd"/><path stroke="#000000" stroke-width="3.0" stroke-linejoin="round" stroke-linecap="butt" d="m270.70932 255.87927l0 69.19684" fill-rule="evenodd"/><path fill="#000000" fill-opacity="0.0" d="m324.85107 256.98163l0 69.19684" fill-rule="evenodd"/><path stroke="#000000" stroke-width="3.0" stroke-linejoin="round" stroke-linecap="butt" d="m324.85107 256.98163l0 69.19684" fill-rule="evenodd"/><path fill="#000000" fill-opacity="0.0" d="m378.9928 255.87927l0 69.19684" fill-rule="evenodd"/><path stroke="#000000" stroke-width="3.0" stroke-linejoin="round" stroke-linecap="butt" d="m378.9928 255.87927l0 69.19684" fill-rule="evenodd"/><path fill="#000000" fill-opacity="0.0" d="m30.692913 0l46.89764 0l0 39.05512l-46.89764 0z" fill-rule="evenodd"/><path fill="#000000" fill-opacity="0.0" d="m193.1181 0l46.897644 0l0 39.05512l-46.897644 0z" fill-rule="evenodd"/><path fill="#000000" fill-opacity="0.0" d="m247.25984 0l46.89763 0l0 39.05512l-46.89763 0z" fill-rule="evenodd"/><path fill="#000000" fill-opacity="0.0" d="m301.40158 327.56955l46.897644 0l0 39.055115l-46.897644 0z" fill-rule="evenodd"/><path fill="#000000" d="m314.14728 342.7227l3.546875 0q1.421875 0 2.578125 0.390625q1.15625 0.375 1.96875 1.171875q0.828125 0.78125 1.28125 2.0q0.453125 1.21875 0.453125 2.90625q0 1.671875 -0.453125 2.921875q-0.453125 1.234375 -1.265625 2.046875q-0.8125 0.8125 -1.9375 1.21875q-1.109375 0.390625 -2.46875 0.390625l-3.703125 0l0 -13.046875zm3.390625 10.671875q0.75 0 1.375 -0.21875q0.640625 -0.21875 1.078125 -0.703125q0.453125 -0.5 0.703125 -1.296875q0.25 -0.8125 0.25 -1.984375q0 -1.15625 -0.25 -1.9375q-0.25 -0.796875 -0.703125 -1.265625q-0.4375 -0.484375 -1.078125 -0.671875q-0.625 -0.203125 -1.375 -0.203125l-0.421875 0l0 8.28125l0.421875 0zm14.125 -2.90625l0 -2.140625q0 -0.59375 0.03125 -1.375q0.03125 -0.796875 0.078125 -1.40625l-0.078125 0q-0.328125 0.546875 -0.6875 1.09375q-0.359375 0.53125 -0.703125 1.0625l-1.90625 2.765625l3.265625 0zm4.34375 2.234375l-1.59375 0l0 3.046875l-2.75 0l0 -3.046875l-6.109375 0l0 -2.015625l5.296875 -7.640625l3.5625 0l0 7.421875l1.59375 0l0 2.234375z" fill-rule="nonzero"/><path fill="#000000" fill-opacity="0.0" d="m355.5433 327.56955l46.897644 0l0 39.055115l-46.897644 0z" fill-rule="evenodd"/><path fill="#000000" fill-opacity="0.0" d="m84.66404 0l46.897636 0l0 39.05512l-46.897636 0z" fill-rule="evenodd"/><path fill="#000000" d="m109.42537 22.793749l-0.296875 -1.1875q-0.25 -0.984375 -0.515625 -2.078125q-0.265625 -1.109375 -0.515625 -2.125l-0.078125 0q-0.25 1.03125 -0.515625 2.125q-0.25 1.09375 -0.515625 2.078125l-0.296875 1.1875l2.734375 0zm0.609375 2.3125l-3.9375 0l-0.796875 3.09375l-3.0 0l4.046875 -13.046875l3.53125 0l4.046875 13.046875l-3.109375 0l-0.78125 -3.09375z" fill-rule="nonzero"/><path fill="#000000" fill-opacity="0.0" d="m138.89108 0l46.89763 0l0 39.05512l-46.89763 0z" fill-rule="evenodd"/><path fill="#000000" d="m158.49615 15.153124l8.609375 0l0 2.484375l-5.671875 0l0 3.015625l4.828125 0l0 2.484375l-4.828125 0l0 5.0625l-2.9375 0l0 -13.046875z" fill-rule="nonzero"/><path fill="#000000" fill-opacity="0.0" d="m301.40027 0l46.897644 0l0 39.05512l-46.897644 0z" fill-rule="evenodd"/><path fill="#000000" d="m320.5366 15.153124l4.078125 0q1.015625 0 1.875 0.15625q0.875 0.15625 1.515625 0.53125q0.640625 0.375 1.015625 1.0q0.375 0.625 0.375 1.5625q0 0.4375 -0.140625 0.875q-0.125 0.4375 -0.40625 0.828125q-0.28125 0.375 -0.703125 0.671875q-0.421875 0.296875 -1.0 0.4375l0 0.078125q1.40625 0.265625 2.125 1.015625q0.71875 0.734375 0.71875 2.046875q0 1.0 -0.390625 1.71875q-0.375 0.71875 -1.0625 1.203125q-0.671875 0.46875 -1.578125 0.703125q-0.90625 0.21875 -1.96875 0.21875l-4.453125 0l0 -13.046875zm3.9375 5.265625q1.078125 0 1.546875 -0.421875q0.484375 -0.4375 0.484375 -1.171875q0 -0.75 -0.484375 -1.0625q-0.484375 -0.328125 -1.53125 -0.328125l-1.015625 0l0 2.984375l1.0 0zm0.28125 5.5q2.359375 0 2.359375 -1.78125q0 -0.859375 -0.578125 -1.25q-0.5625 -0.390625 -1.78125 -0.390625l-1.28125 0l0 3.421875l1.28125 0z" fill-rule="nonzero"/><path fill="#000000" fill-opacity="0.0" d="m247.25853 327.56955l46.89763 0l0 39.055115l-46.89763 0z" fill-rule="evenodd"/><path fill="#000000" d="m265.58237 349.33206q0 -1.640625 0.46875 -2.90625q0.46875 -1.28125 1.28125 -2.140625q0.8125 -0.875 1.90625 -1.328125q1.109375 -0.46875 2.375 -0.46875q1.3125 0 2.234375 0.515625q0.9375 0.5 1.578125 1.140625l-1.625 1.828125q-0.40625 -0.421875 -0.90625 -0.671875q-0.5 -0.265625 -1.28125 -0.265625q-0.640625 0 -1.1875 0.296875q-0.53125 0.28125 -0.9375 0.828125q-0.40625 0.53125 -0.640625 1.3125q-0.21875 0.78125 -0.21875 1.75q0 2.03125 0.765625 3.140625q0.765625 1.109375 2.328125 1.109375q0.390625 0 0.71875 -0.09375q0.34375 -0.109375 0.5625 -0.3125l0 -2.234375l-1.890625 0l0 -2.40625l4.53125 0l0 6.0q-0.65625 0.625 -1.734375 1.109375q-1.078125 0.46875 -2.34375 0.46875q-1.265625 0 -2.359375 -0.421875q-1.078125 -0.4375 -1.890625 -1.265625q-0.8125 -0.84375 -1.28125 -2.09375q-0.453125 -1.25 -0.453125 -2.890625z" fill-rule="nonzero"/><path fill="#000000" fill-opacity="0.0" d="m193.11679 327.56955l46.897644 0l0 39.055115l-46.897644 0z" fill-rule="evenodd"/><path fill="#000000" d="m211.65938 349.33206q0 -1.625 0.484375 -2.890625q0.484375 -1.265625 1.3125 -2.140625q0.84375 -0.890625 1.984375 -1.34375q1.140625 -0.46875 2.4375 -0.46875q1.265625 0 2.234375 0.515625q0.96875 0.5 1.640625 1.140625l-1.625 1.828125q-0.46875 -0.421875 -1.015625 -0.671875q-0.53125 -0.265625 -1.234375 -0.265625q-0.6875 0 -1.28125 0.296875q-0.578125 0.28125 -1.015625 0.828125q-0.421875 0.53125 -0.65625 1.3125q-0.234375 0.78125 -0.234375 1.75q0 2.03125 0.90625 3.140625q0.921875 1.109375 2.40625 1.109375q0.703125 0 1.265625 -0.3125q0.578125 -0.328125 1.0625 -0.84375l1.609375 1.765625q-1.640625 1.921875 -4.109375 1.921875q-1.265625 0 -2.390625 -0.421875q-1.109375 -0.4375 -1.953125 -1.265625q-0.84375 -0.84375 -1.34375 -2.09375q-0.484375 -1.25 -0.484375 -2.890625z" fill-rule="nonzero"/><path fill="#000000" fill-opacity="0.0" d="m138.97507 327.56955l46.89763 0l0 39.055115l-46.89763 0z" fill-rule="evenodd"/><path fill="#000000" fill-opacity="0.0" d="m84.833336 327.56955l46.897636 0l0 39.055115l-46.897636 0z" fill-rule="evenodd"/><path fill="#000000" d="m103.57903 342.7227l3.546875 0q1.421875 0 2.578125 0.390625q1.15625 0.375 1.96875 1.171875q0.828125 0.78125 1.28125 2.0q0.453125 1.21875 0.453125 2.90625q0 1.671875 -0.453125 2.921875q-0.453125 1.234375 -1.265625 2.046875q-0.8125 0.8125 -1.9375 1.21875q-1.109375 0.390625 -2.46875 0.390625l-3.703125 0l0 -13.046875zm3.390625 10.671875q0.75 0 1.375 -0.21875q0.640625 -0.21875 1.078125 -0.703125q0.453125 -0.5 0.703125 -1.296875q0.25 -0.8125 0.25 -1.984375q0 -1.15625 -0.25 -1.9375q-0.25 -0.796875 -0.703125 -1.265625q-0.4375 -0.484375 -1.078125 -0.671875q-0.625 -0.203125 -1.375 -0.203125l-0.421875 0l0 8.28125l0.421875 0z" fill-rule="nonzero"/><path fill="#000000" fill-opacity="0.0" d="m30.6916 326.99213l46.89764 0l0 39.055115l-46.89764 0z" fill-rule="evenodd"/><path fill="#000000" d="m50.015427 342.14526l8.609375 0l0 2.484375l-5.671875 0l0 2.625l4.8125 0l0 2.453125l-4.8125 0l0 3.0l5.875 0l0 2.484375l-8.8125 0l0 -13.046875z" fill-rule="nonzero"/><path fill="#666666" d="m84.83465 239.41995l0 0c0 -4.627014 3.7509384 -8.37796 8.377953 -8.37796l0 0c2.2219696 0 4.352936 0.8826752 5.924103 2.4538422c1.5711746 1.5711823 2.4538498 3.7021484 2.4538498 5.924118l0 0c0 4.627014 -3.7509384 8.377945 -8.377953 8.377945l0 0c-4.627014 0 -8.377953 -3.7509308 -8.377953 -8.377945z" fill-rule="evenodd"/><path fill="#666666" d="m193.1181 239.41995l0 0c0 -4.627014 3.750946 -8.37796 8.37796 -8.37796l0 0c2.2219696 0 4.352936 0.8826752 5.924103 2.4538422c1.5711823 1.5711823 2.4538422 3.7021484 2.4538422 5.924118l0 0c0 4.627014 -3.7509308 8.377945 -8.377945 8.377945l0 0c-4.627014 0 -8.37796 -3.7509308 -8.37796 -8.377945z" fill-rule="evenodd"/><path fill="#666666" d="m301.40158 239.41995l0 0c0 -4.627014 3.750946 -8.37796 8.37796 -8.37796l0 0c2.2219543 0 4.352936 0.8826752 5.924103 2.4538422c1.571167 1.5711823 2.453827 3.7021484 2.453827 5.924118l0 0c0 4.627014 -3.7509155 8.377945 -8.37793 8.377945l0 0c-4.627014 0 -8.37796 -3.7509308 -8.37796 -8.377945z" fill-rule="evenodd"/><path fill="#666666" d="m409.68503 239.41995l0 0c0 -4.627014 3.750946 -8.37796 8.37796 -8.37796l0 0c2.2219849 0 4.352936 0.8826752 5.924103 2.4538422c1.571167 1.5711823 2.4538574 3.7021484 2.4538574 5.924118l0 0c0 4.627014 -3.750946 8.377945 -8.37796 8.377945l0 0c-4.627014 0 -8.37796 -3.7509308 -8.37796 -8.377945z" fill-rule="evenodd"/><path fill="#666666" d="m208.18898 169.64699l0 0c0 -4.6270294 3.7509308 -8.37796 8.377945 -8.37796l0 0c2.2219696 0 4.352936 0.8826752 5.924118 2.4538422c1.571167 1.5711823 2.4538422 3.7021332 2.4538422 5.924118l0 0c0 4.627014 -3.750946 8.377945 -8.37796 8.377945l0 0c-4.627014 0 -8.377945 -3.7509308 -8.377945 -8.377945z" fill-rule="evenodd"/><path stroke="#666666" stroke-width="1.0" stroke-linejoin="round" stroke-linecap="butt" d="m208.18898 169.64699l0 0c0 -4.6270294 3.7509308 -8.37796 8.377945 -8.37796l0 0c2.2219696 0 4.352936 0.8826752 5.924118 2.4538422c1.571167 1.5711823 2.4538422 3.7021332 2.4538422 5.924118l0 0c0 4.627014 -3.750946 8.377945 -8.37796 8.377945l0 0c-4.627014 0 -8.377945 -3.7509308 -8.377945 -8.377945z" fill-rule="evenodd"/><path fill="#666666" d="m208.18898 199.22704l0 0c0 -4.627014 3.7509308 -8.37796 8.377945 -8.37796l0 0c2.2219696 0 4.352936 0.8826752 5.924118 2.4538574c1.571167 1.571167 2.4538422 3.7021332 2.4538422 5.924103l0 0c0 4.627014 -3.750946 8.377945 -8.37796 8.377945l0 0c-4.627014 0 -8.377945 -3.7509308 -8.377945 -8.377945z" fill-rule="evenodd"/></g></svg>