<svg version="1.1" viewBox="0.0 0.0 954.3149606299213 784.7900262467192" fill="none" stroke="none" stroke-linecap="square" stroke-miterlimit="10" xmlns:xlink="http://www.w3.org/1999/xlink" xmlns="http://www.w3.org/2000/svg"><clipPath id="p.0"><path d="m0 0l954.31494 0l0 784.79004l-954.31494 0l0 -784.79004z" clip-rule="nonzero"/></clipPath><g clip-path="url(#p.0)"><path fill="#000000" fill-opacity="0.0" d="m0 0l954.31494 0l0 784.79004l-954.31494 0z" fill-rule="evenodd"/><path fill="#000000" fill-opacity="0.0" d="m36.40945 39.40945l110.89763 0l0 186.70865l-110.89763 0z" fill-rule="evenodd"/><path stroke="#000000" stroke-width="1.0" stroke-linejoin="round" stroke-linecap="butt" d="m36.40945 39.40945l110.89763 0l0 186.70865l-110.89763 0z" fill-rule="evenodd"/><path fill="#000000" fill-opacity="0.0" d="m147.30823 39.40945l110.897644 0l0 186.70865l-110.897644 0z" fill-rule="evenodd"/><path stroke="#000000" stroke-width="1.0" stroke-linejoin="round" stroke-linecap="butt" d="m147.30823 39.40945l110.897644 0l0 186.70865l-110.897644 0z" fill-rule="evenodd"/><path fill="#000000" d="m182.27269 135.79816q0 -6.546875 1.875 -11.625008q1.890625 -5.09375 5.125 -8.5625q3.25 -3.484375 7.640625 -5.328125q4.40625 -1.84375 9.4375 -1.84375q5.28125 0 9.0 2.046875q3.71875 2.03125 6.28125 4.59375l-6.46875 7.28125q-1.6875 -1.671875 -3.6875 -2.703125q-2.0 -1.046875 -5.125 -1.046875q-2.546875 0 -4.71875 1.15625q-2.15625 1.15625 -3.765625 3.328125q-1.59375 2.15625 -2.515625 5.2812576q-0.90625 3.109375 -0.90625 7.03125q0 8.078125 3.078125 12.515625q3.078125 4.4375 9.3125 4.4375q1.515625 0 2.875 -0.390625q1.359375 -0.40625 2.25 -1.203125l0 -8.96875l-7.609375 0l0 -9.59375l18.171875 0l0 24.0q-2.640625 2.484375 -6.96875 4.40625q-4.3125 1.90625 -9.359375 1.90625q-5.03125 0 -9.390625 -1.71875q-4.359375 -1.71875 -7.609375 -5.078125q-3.234375 -3.359375 -5.078125 -8.359375q-1.84375 -5.0 -1.84375 -11.5625z" fill-rule="nonzero"/><path fill="#000000" fill-opacity="0.0" d="m258.20587 39.40945l110.89761 0l0 186.70865l-110.89761 0z" fill-rule="evenodd"/><path stroke="#000000" stroke-width="1.0" stroke-linejoin="round" stroke-linecap="butt" d="m258.20587 39.40945l110.89761 0l0 186.70865l-110.89761 0z" fill-rule="evenodd"/><path fill="#000000" d="m298.29532 109.407524l34.40625 0l0 9.921875l-22.640625 0l0 12.078133l19.28125 0l0 9.921875l-19.28125 0l0 20.234375l-11.765625 0l0 -52.156258z" fill-rule="nonzero"/><path fill="#000000" fill-opacity="0.0" d="m369.10236 39.40945l110.897644 0l0 186.70865l-110.897644 0z" fill-rule="evenodd"/><path stroke="#000000" stroke-width="1.0" stroke-linejoin="round" stroke-linecap="butt" d="m369.10236 39.40945l110.897644 0l0 186.70865l-110.897644 0z" fill-rule="evenodd"/><path fill="#000000" d="m408.06683 109.407524l34.40625 0l0 9.921875l-22.640625 0l0 10.468758l19.203125 0l0 9.84375l-19.203125 0l0 12.0l23.4375 0l0 9.921875l-35.203125 0l0 -52.156258z" fill-rule="nonzero"/><path fill="#000000" fill-opacity="0.0" d="m480.00113 39.40945l110.897675 0l0 186.70865l-110.897675 0z" fill-rule="evenodd"/><path stroke="#000000" stroke-width="1.0" stroke-linejoin="round" stroke-linecap="butt" d="m480.00113 39.40945l110.897675 0l0 186.70865l-110.897675 0z" fill-rule="evenodd"/><path fill="#000000" d="m516.6531 109.407524l14.15625 0q5.6875 0 10.3125 1.515625q4.640625 1.515625 7.921875 4.6875q3.28125 3.15625 5.078125 8.03125q1.8125 4.8750076 1.8125 11.609383q0 6.71875 -1.8125 11.671875q-1.796875 4.953125 -5.03125 8.203125q-3.234375 3.234375 -7.71875 4.84375q-4.484375 1.59375 -9.921875 1.59375l-14.796875 0l0 -52.156258zm13.515625 42.640633q3.046875 0 5.5625 -0.875q2.515625 -0.890625 4.3125 -2.84375q1.8125 -1.96875 2.8125 -5.15625q1.0 -3.203125 1.0 -7.921875q0 -4.640625 -1.0 -7.7968826q-1.0 -3.171875 -2.8125 -5.046875q-1.796875 -1.890625 -4.3125 -2.6875q-2.515625 -0.796875 -5.5625 -0.796875l-1.671875 0l0 33.125008l1.671875 0z" fill-rule="nonzero"/><path fill="#000000" fill-opacity="0.0" d="m590.8988 39.40945l110.89758 0l0 186.70865l-110.89758 0z" fill-rule="evenodd"/><path stroke="#000000" stroke-width="1.0" stroke-linejoin="round" stroke-linecap="butt" d="m590.8988 39.40945l110.89758 0l0 186.70865l-110.89758 0z" fill-rule="evenodd"/><path fill="#000000" d="m626.75385 135.79816q0 -6.46875 1.90625 -11.546883q1.921875 -5.09375 5.28125 -8.609375q3.359375 -3.515625 7.921875 -5.359375q4.5625 -1.84375 9.765625 -1.84375q5.03125 0 8.90625 2.046875q3.890625 2.03125 6.53125 4.59375l-6.484375 7.28125q-1.828125 -1.671875 -4.0 -2.703125q-2.15625 -1.046875 -4.953125 -1.046875q-2.796875 0 -5.125 1.15625q-2.3125 1.15625 -4.03125 3.328125q-1.71875 2.15625 -2.6875 5.2812576q-0.953125 3.109375 -0.953125 7.03125q0 8.078125 3.671875 12.515625q3.6875 4.4375 9.609375 4.4375q2.796875 0 5.078125 -1.28125q2.28125 -1.28125 4.203125 -3.359375l6.46875 7.125q-6.5625 7.671875 -16.46875 7.671875q-5.046875 0 -9.53125 -1.71875q-4.46875 -1.71875 -7.84375 -5.078125q-3.359375 -3.359375 -5.3125 -8.359375q-1.953125 -5.0 -1.953125 -11.5625z" fill-rule="nonzero"/><path fill="#000000" fill-opacity="0.0" d="m701.7964 39.40945l110.897644 0l0 186.70865l-110.897644 0z" fill-rule="evenodd"/><path stroke="#000000" stroke-width="1.0" stroke-linejoin="round" stroke-linecap="butt" d="m701.7964 39.40945l110.897644 0l0 186.70865l-110.897644 0z" fill-rule="evenodd"/><path fill="#000000" d="m739.964 109.407524l16.328125 0q4.078125 0 7.546875 0.609375q3.484375 0.59375 6.046875 2.109375q2.5625 1.515625 4.03125 4.0q1.484375 2.484375 1.484375 6.234375q0 1.765625 -0.515625 3.53125q-0.515625 1.75 -1.640625 3.2812576q-1.125 1.515625 -2.8125 2.71875q-1.671875 1.1875 -3.984375 1.75l0 0.328125q5.59375 1.03125 8.46875 4.0q2.890625 2.953125 2.890625 8.234375q0 4.0 -1.53125 6.890625q-1.515625 2.875 -4.234375 4.75q-2.71875 1.875 -6.359375 2.796875q-3.640625 0.921875 -7.875 0.921875l-17.84375 0l0 -52.156258zm15.765625 21.031258q4.3125 0 6.234375 -1.71875q1.921875 -1.7187576 1.921875 -4.6718826q0 -2.96875 -1.96875 -4.25q-1.953125 -1.28125 -6.109375 -1.28125l-4.078125 0l0 11.921883l4.0 0zm1.109375 22.0q9.453125 0 9.453125 -7.109375q0 -3.453125 -2.28125 -5.0q-2.28125 -1.5625 -7.171875 -1.5625l-5.109375 0l0 13.671875l5.109375 0z" fill-rule="nonzero"/><path fill="#000000" fill-opacity="0.0" d="m812.69403 39.40945l110.897644 0l0 186.70865l-110.897644 0z" fill-rule="evenodd"/><path stroke="#000000" stroke-width="1.0" stroke-linejoin="round" stroke-linecap="butt" d="m812.69403 39.40945l110.897644 0l0 186.70865l-110.897644 0z" fill-rule="evenodd"/><path fill="#000000" d="m873.42413 139.97003l-1.203125 -4.8125q-1.03125 -3.90625 -2.078125 -8.312508q-1.046875 -4.40625 -2.078125 -8.484375l-0.328125 0q-0.953125 4.15625 -2.0 8.53125q-1.03125 4.3593826 -2.078125 8.265633l-1.203125 4.8125l10.96875 0zm2.40625 9.1875l-15.765625 0l-3.203125 12.40625l-12.0 0l16.234375 -52.156258l14.09375 0l16.234375 52.156258l-12.484375 0l-3.109375 -12.40625z" fill-rule="nonzero"/><path fill="#000000" fill-opacity="0.0" d="m36.40945 285.54095l110.89763 0l0 186.70865l-110.89763 0z" fill-rule="evenodd"/><path stroke="#000000" stroke-width="1.0" stroke-linejoin="round" stroke-linecap="butt" d="m36.40945 285.54095l110.89763 0l0 186.70865l-110.89763 0z" fill-rule="evenodd"/><path fill="#000000" fill-opacity="0.0" d="m147.30823 285.54095l110.897644 0l0 186.70865l-110.897644 0z" fill-rule="evenodd"/><path stroke="#000000" stroke-width="1.0" stroke-linejoin="round" stroke-linecap="butt" d="m147.30823 285.54095l110.897644 0l0 186.70865l-110.897644 0z" fill-rule="evenodd"/><path fill="#000000" d="m202.75706 408.6484q-4.40625 0 -8.0 -1.71875q-3.59375 -1.71875 -6.15625 -5.078125q-2.5625 -3.359375 -3.96875 -8.3125q-1.390625 -4.96875 -1.390625 -11.4375q0 -6.484375 1.390625 -11.359375q1.40625 -4.890625 3.96875 -8.203125q2.5625 -3.328125 6.15625 -4.96875q3.59375 -1.640625 8.0 -1.640625q4.40625 0 8.0 1.640625q3.59375 1.640625 6.15625 4.96875q2.5625 3.3125 3.953125 8.203125q1.40625 4.875 1.40625 11.359375q0 6.46875 -1.40625 11.4375q-1.390625 4.953125 -3.953125 8.3125q-2.5625 3.359375 -6.15625 5.078125q-3.59375 1.71875 -8.0 1.71875zm0 -43.59375q-1.921875 0 -3.5625 0.796875q-1.640625 0.796875 -2.84375 2.765625q-1.1875 1.953125 -1.921875 5.234375q-0.71875 3.28125 -0.71875 8.25q0 4.953125 0.71875 8.28125q0.734375 3.3125 1.921875 5.359375q1.203125 2.03125 2.84375 2.921875q1.640625 0.875 3.5625 0.875q1.921875 0 3.5625 -0.875q1.640625 -0.890625 2.828125 -2.921875q1.203125 -2.046875 1.921875 -5.359375q0.734375 -3.328125 0.734375 -8.28125q0 -4.96875 -0.734375 -8.25q-0.71875 -3.28125 -1.921875 -5.234375q-1.1875 -1.96875 -2.828125 -2.765625q-1.640625 -0.796875 -3.5625 -0.796875zm0 22.953125q-2.5625 0 -4.28125 -1.625q-1.71875 -1.640625 -1.71875 -4.453125q0 -2.796875 1.71875 -4.4375q1.71875 -1.640625 4.28125 -1.640625q2.5625 0 4.28125 1.640625q1.71875 1.640625 1.71875 4.4375q0 2.8125 -1.71875 4.453125q-1.71875 1.625 -4.28125 1.625z" fill-rule="nonzero"/><path fill="#000000" fill-opacity="0.0" d="m258.20587 285.54095l110.89761 0l0 186.70865l-110.89761 0z" fill-rule="evenodd"/><path stroke="#000000" stroke-width="1.0" stroke-linejoin="round" stroke-linecap="butt" d="m258.20587 285.54095l110.89761 0l0 186.70865l-110.89761 0z" fill-rule="evenodd"/><path fill="#000000" d="m313.6547 408.6484q-4.40625 0 -8.0 -1.71875q-3.59375 -1.71875 -6.15625 -5.078125q-2.5625 -3.359375 -3.96875 -8.3125q-1.390625 -4.96875 -1.390625 -11.4375q0 -6.484375 1.390625 -11.359375q1.40625 -4.890625 3.96875 -8.203125q2.5625 -3.328125 6.15625 -4.96875q3.59375 -1.640625 8.0 -1.640625q4.40625 0 8.0 1.640625q3.59375 1.640625 6.15625 4.96875q2.5625 3.3125 3.953125 8.203125q1.40625 4.875 1.40625 11.359375q0 6.46875 -1.40625 11.4375q-1.390625 4.953125 -3.953125 8.3125q-2.5625 3.359375 -6.15625 5.078125q-3.59375 1.71875 -8.0 1.71875zm0 -43.59375q-1.921875 0 -3.5625 0.796875q-1.640625 0.796875 -2.84375 2.765625q-1.1875 1.953125 -1.921875 5.234375q-0.71875 3.28125 -0.71875 8.25q0 4.953125 0.71875 8.28125q0.734375 3.3125 1.921875 5.359375q1.203125 2.03125 2.84375 2.921875q1.640625 0.875 3.5625 0.875q1.921875 0 3.5625 -0.875q1.640625 -0.890625 2.828125 -2.921875q1.203125 -2.046875 1.921875 -5.359375q0.734375 -3.328125 0.734375 -8.28125q0 -4.96875 -0.734375 -8.25q-0.71875 -3.28125 -1.921875 -5.234375q-1.1875 -1.96875 -2.828125 -2.765625q-1.640625 -0.796875 -3.5625 -0.796875zm0 22.953125q-2.5625 0 -4.28125 -1.625q-1.71875 -1.640625 -1.71875 -4.453125q0 -2.796875 1.71875 -4.4375q1.71875 -1.640625 4.28125 -1.640625q2.5625 0 4.28125 1.640625q1.71875 1.640625 1.71875 4.4375q0 2.8125 -1.71875 4.453125q-1.71875 1.625 -4.28125 1.625z" fill-rule="nonzero"/><path fill="#000000" fill-opacity="0.0" d="m369.10236 285.54095l110.897644 0l0 186.70865l-110.897644 0z" fill-rule="evenodd"/><path stroke="#000000" stroke-width="1.0" stroke-linejoin="round" stroke-linecap="butt" d="m369.10236 285.54095l110.897644 0l0 186.70865l-110.897644 0z" fill-rule="evenodd"/><path fill="#000000" d="m424.5512 408.6484q-4.40625 0 -8.0 -1.71875q-3.59375 -1.71875 -6.15625 -5.078125q-2.5625 -3.359375 -3.96875 -8.3125q-1.390625 -4.96875 -1.390625 -11.4375q0 -6.484375 1.390625 -11.359375q1.40625 -4.890625 3.96875 -8.203125q2.5625 -3.328125 6.15625 -4.96875q3.59375 -1.640625 8.0 -1.640625q4.40625 0 8.0 1.640625q3.59375 1.640625 6.15625 4.96875q2.5625 3.3125 3.953125 8.203125q1.40625 4.875 1.40625 11.359375q0 6.46875 -1.40625 11.4375q-1.390625 4.953125 -3.953125 8.3125q-2.5625 3.359375 -6.15625 5.078125q-3.59375 1.71875 -8.0 1.71875zm0 -43.59375q-1.921875 0 -3.5625 0.796875q-1.640625 0.796875 -2.84375 2.765625q-1.1875 1.953125 -1.921875 5.234375q-0.71875 3.28125 -0.71875 8.25q0 4.953125 0.71875 8.28125q0.734375 3.3125 1.921875 5.359375q1.203125 2.03125 2.84375 2.921875q1.640625 0.875 3.5625 0.875q1.921875 0 3.5625 -0.875q1.640625 -0.890625 2.828125 -2.921875q1.203125 -2.046875 1.921875 -5.359375q0.734375 -3.328125 0.734375 -8.28125q0 -4.96875 -0.734375 -8.25q-0.71875 -3.28125 -1.921875 -5.234375q-1.1875 -1.96875 -2.828125 -2.765625q-1.640625 -0.796875 -3.5625 -0.796875zm0 22.953125q-2.5625 0 -4.28125 -1.625q-1.71875 -1.640625 -1.71875 -4.453125q0 -2.796875 1.71875 -4.4375q1.71875 -1.640625 4.28125 -1.640625q2.5625 0 4.28125 1.640625q1.71875 1.640625 1.71875 4.4375q0 2.8125 -1.71875 4.453125q-1.71875 1.625 -4.28125 1.625z" fill-rule="nonzero"/><path fill="#000000" fill-opacity="0.0" d="m480.00113 285.54095l110.897675 0l0 186.70865l-110.897675 0z" fill-rule="evenodd"/><path stroke="#000000" stroke-width="1.0" stroke-linejoin="round" stroke-linecap="butt" d="m480.00113 285.54095l110.897675 0l0 186.70865l-110.897675 0z" fill-rule="evenodd"/><path fill="#000000" d="m535.44995 408.6484q-4.40625 0 -8.0 -1.71875q-3.59375 -1.71875 -6.15625 -5.078125q-2.5625 -3.359375 -3.96875 -8.3125q-1.390625 -4.96875 -1.390625 -11.4375q0 -6.484375 1.390625 -11.359375q1.40625 -4.890625 3.96875 -8.203125q2.5625 -3.328125 6.15625 -4.96875q3.59375 -1.640625 8.0 -1.640625q4.40625 0 8.0 1.640625q3.59375 1.640625 6.15625 4.96875q2.5625 3.3125 3.953125 8.203125q1.40625 4.875 1.40625 11.359375q0 6.46875 -1.40625 11.4375q-1.390625 4.953125 -3.953125 8.3125q-2.5625 3.359375 -6.15625 5.078125q-3.59375 1.71875 -8.0 1.71875zm0 -43.59375q-1.921875 0 -3.5625 0.796875q-1.640625 0.796875 -2.84375 2.765625q-1.1875 1.953125 -1.921875 5.234375q-0.71875 3.28125 -0.71875 8.25q0 4.953125 0.71875 8.28125q0.734375 3.3125 1.921875 5.359375q1.203125 2.03125 2.84375 2.921875q1.640625 0.875 3.5625 0.875q1.921875 0 3.5625 -0.875q1.640625 -0.890625 2.828125 -2.921875q1.203125 -2.046875 1.921875 -5.359375q0.734375 -3.328125 0.734375 -8.28125q0 -4.96875 -0.734375 -8.25q-0.71875 -3.28125 -1.921875 -5.234375q-1.1875 -1.96875 -2.828125 -2.765625q-1.640625 -0.796875 -3.5625 -0.796875zm0 22.953125q-2.5625 0 -4.28125 -1.625q-1.71875 -1.640625 -1.71875 -4.453125q0 -2.796875 1.71875 -4.4375q1.71875 -1.640625 4.28125 -1.640625q2.5625 0 4.28125 1.640625q1.71875 1.640625 1.71875 4.4375q0 2.8125 -1.71875 4.453125q-1.71875 1.625 -4.28125 1.625z" fill-rule="nonzero"/><path fill="#000000" fill-opacity="0.0" d="m590.8988 285.54095l110.89758 0l0 186.70865l-110.89758 0z" fill-rule="evenodd"/><path stroke="#000000" stroke-width="1.0" stroke-linejoin="round" stroke-linecap="butt" d="m590.8988 285.54095l110.89758 0l0 186.70865l-110.89758 0z" fill-rule="evenodd"/><path fill="#000000" d="m665.3007 398.17966l0 9.515625l-36.390625 0l0 -9.515625l13.125 0l0 -29.359375l-10.484375 0l0 -7.28125q4.484375 -0.796875 7.640625 -1.921875q3.15625 -1.125 5.953125 -2.71875l8.640625 0l0 41.28125l11.515625 0z" fill-rule="nonzero"/><path fill="#000000" fill-opacity="0.0" d="m701.7964 285.54095l110.897644 0l0 186.70865l-110.897644 0z" fill-rule="evenodd"/><path stroke="#000000" stroke-width="1.0" stroke-linejoin="round" stroke-linecap="butt" d="m701.7964 285.54095l110.897644 0l0 186.70865l-110.897644 0z" fill-rule="evenodd"/><path fill="#000000" d="m776.19836 398.17966l0 9.515625l-36.390625 0l0 -9.515625l13.125 0l0 -29.359375l-10.484375 0l0 -7.28125q4.484375 -0.796875 7.640625 -1.921875q3.15625 -1.125 5.953125 -2.71875l8.640625 0l0 41.28125l11.515625 0z" fill-rule="nonzero"/><path fill="#000000" fill-opacity="0.0" d="m812.69403 285.54095l110.897644 0l0 186.70865l-110.897644 0z" fill-rule="evenodd"/><path stroke="#000000" stroke-width="1.0" stroke-linejoin="round" stroke-linecap="butt" d="m812.69403 285.54095l110.897644 0l0 186.70865l-110.897644 0z" fill-rule="evenodd"/><path fill="#000000" d="m868.1429 408.6484q-4.40625 0 -8.0 -1.71875q-3.59375 -1.71875 -6.15625 -5.078125q-2.5625 -3.359375 -3.96875 -8.3125q-1.390625 -4.96875 -1.390625 -11.4375q0 -6.484375 1.390625 -11.359375q1.40625 -4.890625 3.96875 -8.203125q2.5625 -3.328125 6.15625 -4.96875q3.59375 -1.640625 8.0 -1.640625q4.40625 0 8.0 1.640625q3.59375 1.640625 6.15625 4.96875q2.5625 3.3125 3.953125 8.203125q1.40625 4.875 1.40625 11.359375q0 6.46875 -1.40625 11.4375q-1.390625 4.953125 -3.953125 8.3125q-2.5625 3.359375 -6.15625 5.078125q-3.59375 1.71875 -8.0 1.71875zm0 -43.59375q-1.921875 0 -3.5625 0.796875q-1.640625 0.796875 -2.84375 2.765625q-1.1875 1.953125 -1.921875 5.234375q-0.71875 3.28125 -0.71875 8.25q0 4.953125 0.71875 8.28125q0.734375 3.3125 1.921875 5.359375q1.203125 2.03125 2.84375 2.921875q1.640625 0.875 3.5625 0.875q1.921875 0 3.5625 -0.875q1.640625 -0.890625 2.828125 -2.921875q1.203125 -2.046875 1.921875 -5.359375q0.734375 -3.328125 0.734375 -8.28125q0 -4.96875 -0.734375 -8.25q-0.71875 -3.28125 -1.921875 -5.234375q-1.1875 -1.96875 -2.828125 -2.765625q-1.640625 -0.796875 -3.5625 -0.796875zm0 22.953125q-2.5625 0 -4.28125 -1.625q-1.71875 -1.640625 -1.71875 -4.453125q0 -2.796875 1.71875 -4.4375q1.71875 -1.640625 4.28125 -1.640625q2.5625 0 4.28125 1.640625q1.71875 1.640625 1.71875 4.4375q0 2.8125 -1.71875 4.453125q-1.71875 1.625 -4.28125 1.625z" fill-rule="nonzero"/><path fill="#000000" fill-opacity="0.0" d="m36.40945 531.67065l110.89763 0l0 186.70868l-110.89763 0z" fill-rule="evenodd"/><path stroke="#000000" stroke-width="1.0" stroke-linejoin="round" stroke-linecap="butt" d="m36.40945 531.67065l110.89763 0l0 186.70868l-110.89763 0z" fill-rule="evenodd"/><path fill="#000000" fill-opacity="0.0" d="m147.30823 531.67065l110.897644 0l0 186.70868l-110.897644 0z" fill-rule="evenodd"/><path stroke="#000000" stroke-width="1.0" stroke-linejoin="round" stroke-linecap="butt" d="m147.30823 531.67065l110.897644 0l0 186.70868l-110.897644 0z" fill-rule="evenodd"/><path fill="#000000" d="m202.75706 654.7781q-4.40625 0 -8.0 -1.71875q-3.59375 -1.71875 -6.15625 -5.078125q-2.5625 -3.359375 -3.96875 -8.3125q-1.390625 -4.96875 -1.390625 -11.4375q0 -6.484375 1.390625 -11.359375q1.40625 -4.890625 3.96875 -8.203125q2.5625 -3.328125 6.15625 -4.96875q3.59375 -1.640625 8.0 -1.640625q4.40625 0 8.0 1.640625q3.59375 1.640625 6.15625 4.96875q2.5625 3.3125 3.953125 8.203125q1.40625 4.875 1.40625 11.359375q0 6.46875 -1.40625 11.4375q-1.390625 4.953125 -3.953125 8.3125q-2.5625 3.359375 -6.15625 5.078125q-3.59375 1.71875 -8.0 1.71875zm0 -43.59375q-1.921875 0 -3.5625 0.796875q-1.640625 0.796875 -2.84375 2.765625q-1.1875 1.953125 -1.921875 5.234375q-0.71875 3.28125 -0.71875 8.25q0 4.953125 0.71875 8.28125q0.734375 3.3125 1.921875 5.359375q1.203125 2.03125 2.84375 2.921875q1.640625 0.875 3.5625 0.875q1.921875 0 3.5625 -0.875q1.640625 -0.890625 2.828125 -2.921875q1.203125 -2.046875 1.921875 -5.359375q0.734375 -3.328125 0.734375 -8.28125q0 -4.96875 -0.734375 -8.25q-0.71875 -3.28125 -1.921875 -5.234375q-1.1875 -1.96875 -2.828125 -2.765625q-1.640625 -0.796875 -3.5625 -0.796875zm0 22.953125q-2.5625 0 -4.28125 -1.625q-1.71875 -1.640625 -1.71875 -4.453125q0 -2.796875 1.71875 -4.4375q1.71875 -1.640625 4.28125 -1.640625q2.5625 0 4.28125 1.640625q1.71875 1.640625 1.71875 4.4375q0 2.8125 -1.71875 4.453125q-1.71875 1.625 -4.28125 1.625z" fill-rule="nonzero"/><path fill="#000000" fill-opacity="0.0" d="m258.20587 531.67065l110.89761 0l0 186.70868l-110.89761 0z" fill-rule="evenodd"/><path stroke="#000000" stroke-width="1.0" stroke-linejoin="round" stroke-linecap="butt" d="m258.20587 531.67065l110.89761 0l0 186.70868l-110.89761 0z" fill-rule="evenodd"/><path fill="#000000" d="m313.6547 654.7781q-4.40625 0 -8.0 -1.71875q-3.59375 -1.71875 -6.15625 -5.078125q-2.5625 -3.359375 -3.96875 -8.3125q-1.390625 -4.96875 -1.390625 -11.4375q0 -6.484375 1.390625 -11.359375q1.40625 -4.890625 3.96875 -8.203125q2.5625 -3.328125 6.15625 -4.96875q3.59375 -1.640625 8.0 -1.640625q4.40625 0 8.0 1.640625q3.59375 1.640625 6.15625 4.96875q2.5625 3.3125 3.953125 8.203125q1.40625 4.875 1.40625 11.359375q0 6.46875 -1.40625 11.4375q-1.390625 4.953125 -3.953125 8.3125q-2.5625 3.359375 -6.15625 5.078125q-3.59375 1.71875 -8.0 1.71875zm0 -43.59375q-1.921875 0 -3.5625 0.796875q-1.640625 0.796875 -2.84375 2.765625q-1.1875 1.953125 -1.921875 5.234375q-0.71875 3.28125 -0.71875 8.25q0 4.953125 0.71875 8.28125q0.734375 3.3125 1.921875 5.359375q1.203125 2.03125 2.84375 2.921875q1.640625 0.875 3.5625 0.875q1.921875 0 3.5625 -0.875q1.640625 -0.890625 2.828125 -2.921875q1.203125 -2.046875 1.921875 -5.359375q0.734375 -3.328125 0.734375 -8.28125q0 -4.96875 -0.734375 -8.25q-0.71875 -3.28125 -1.921875 -5.234375q-1.1875 -1.96875 -2.828125 -2.765625q-1.640625 -0.796875 -3.5625 -0.796875zm0 22.953125q-2.5625 0 -4.28125 -1.625q-1.71875 -1.640625 -1.71875 -4.453125q0 -2.796875 1.71875 -4.4375q1.71875 -1.640625 4.28125 -1.640625q2.5625 0 4.28125 1.640625q1.71875 1.640625 1.71875 4.4375q0 2.8125 -1.71875 4.453125q-1.71875 1.625 -4.28125 1.625z" fill-rule="nonzero"/><path fill="#000000" fill-opacity="0.0" d="m369.10236 531.67065l110.897644 0l0 186.70868l-110.897644 0z" fill-rule="evenodd"/><path stroke="#000000" stroke-width="1.0" stroke-linejoin="round" stroke-linecap="butt" d="m369.10236 531.67065l110.897644 0l0 186.70868l-110.897644 0z" fill-rule="evenodd"/><path fill="#000000" d="m424.5512 654.7781q-4.40625 0 -8.0 -1.71875q-3.59375 -1.71875 -6.15625 -5.078125q-2.5625 -3.359375 -3.96875 -8.3125q-1.390625 -4.96875 -1.390625 -11.4375q0 -6.484375 1.390625 -11.359375q1.40625 -4.890625 3.96875 -8.203125q2.5625 -3.328125 6.15625 -4.96875q3.59375 -1.640625 8.0 -1.640625q4.40625 0 8.0 1.640625q3.59375 1.640625 6.15625 4.96875q2.5625 3.3125 3.953125 8.203125q1.40625 4.875 1.40625 11.359375q0 6.46875 -1.40625 11.4375q-1.390625 4.953125 -3.953125 8.3125q-2.5625 3.359375 -6.15625 5.078125q-3.59375 1.71875 -8.0 1.71875zm0 -43.59375q-1.921875 0 -3.5625 0.796875q-1.640625 0.796875 -2.84375 2.765625q-1.1875 1.953125 -1.921875 5.234375q-0.71875 3.28125 -0.71875 8.25q0 4.953125 0.71875 8.28125q0.734375 3.3125 1.921875 5.359375q1.203125 2.03125 2.84375 2.921875q1.640625 0.875 3.5625 0.875q1.921875 0 3.5625 -0.875q1.640625 -0.890625 2.828125 -2.921875q1.203125 -2.046875 1.921875 -5.359375q0.734375 -3.328125 0.734375 -8.28125q0 -4.96875 -0.734375 -8.25q-0.71875 -3.28125 -1.921875 -5.234375q-1.1875 -1.96875 -2.828125 -2.765625q-1.640625 -0.796875 -3.5625 -0.796875zm0 22.953125q-2.5625 0 -4.28125 -1.625q-1.71875 -1.640625 -1.71875 -4.453125q0 -2.796875 1.71875 -4.4375q1.71875 -1.640625 4.28125 -1.640625q2.5625 0 4.28125 1.640625q1.71875 1.640625 1.71875 4.4375q0 2.8125 -1.71875 4.453125q-1.71875 1.625 -4.28125 1.625z" fill-rule="nonzero"/><path fill="#000000" fill-opacity="0.0" d="m480.00113 531.67065l110.897675 0l0 186.70868l-110.897675 0z" fill-rule="evenodd"/><path stroke="#000000" stroke-width="1.0" stroke-linejoin="round" stroke-linecap="butt" d="m480.00113 531.67065l110.897675 0l0 186.70868l-110.897675 0z" fill-rule="evenodd"/><path fill="#000000" d="m535.44995 654.7781q-4.40625 0 -8.0 -1.71875q-3.59375 -1.71875 -6.15625 -5.078125q-2.5625 -3.359375 -3.96875 -8.3125q-1.390625 -4.96875 -1.390625 -11.4375q0 -6.484375 1.390625 -11.359375q1.40625 -4.890625 3.96875 -8.203125q2.5625 -3.328125 6.15625 -4.96875q3.59375 -1.640625 8.0 -1.640625q4.40625 0 8.0 1.640625q3.59375 1.640625 6.15625 4.96875q2.5625 3.3125 3.953125 8.203125q1.40625 4.875 1.40625 11.359375q0 6.46875 -1.40625 11.4375q-1.390625 4.953125 -3.953125 8.3125q-2.5625 3.359375 -6.15625 5.078125q-3.59375 1.71875 -8.0 1.71875zm0 -43.59375q-1.921875 0 -3.5625 0.796875q-1.640625 0.796875 -2.84375 2.765625q-1.1875 1.953125 -1.921875 5.234375q-0.71875 3.28125 -0.71875 8.25q0 4.953125 0.71875 8.28125q0.734375 3.3125 1.921875 5.359375q1.203125 2.03125 2.84375 2.921875q1.640625 0.875 3.5625 0.875q1.921875 0 3.5625 -0.875q1.640625 -0.890625 2.828125 -2.921875q1.203125 -2.046875 1.921875 -5.359375q0.734375 -3.328125 0.734375 -8.28125q0 -4.96875 -0.734375 -8.25q-0.71875 -3.28125 -1.921875 -5.234375q-1.1875 -1.96875 -2.828125 -2.765625q-1.640625 -0.796875 -3.5625 -0.796875zm0 22.953125q-2.5625 0 -4.28125 -1.625q-1.71875 -1.640625 -1.71875 -4.453125q0 -2.796875 1.71875 -4.4375q1.71875 -1.640625 4.28125 -1.640625q2.5625 0 4.28125 1.640625q1.71875 1.640625 1.71875 4.4375q0 2.8125 -1.71875 4.453125q-1.71875 1.625 -4.28125 1.625z" fill-rule="nonzero"/><path fill="#000000" fill-opacity="0.0" d="m590.8988 531.67065l110.89758 0l0 186.70868l-110.89758 0z" fill-rule="evenodd"/><path stroke="#000000" stroke-width="1.0" stroke-linejoin="round" stroke-linecap="butt" d="m590.8988 531.67065l110.89758 0l0 186.70868l-110.89758 0z" fill-rule="evenodd"/><path fill="#000000" d="m646.3476 654.7781q-4.40625 0 -8.0 -1.71875q-3.59375 -1.71875 -6.15625 -5.078125q-2.5625 -3.359375 -3.96875 -8.3125q-1.390625 -4.96875 -1.390625 -11.4375q0 -6.484375 1.390625 -11.359375q1.40625 -4.890625 3.96875 -8.203125q2.5625 -3.328125 6.15625 -4.96875q3.59375 -1.640625 8.0 -1.640625q4.40625 0 8.0 1.640625q3.59375 1.640625 6.15625 4.96875q2.5625 3.3125 3.953125 8.203125q1.40625 4.875 1.40625 11.359375q0 6.46875 -1.40625 11.4375q-1.390625 4.953125 -3.953125 8.3125q-2.5625 3.359375 -6.15625 5.078125q-3.59375 1.71875 -8.0 1.71875zm0 -43.59375q-1.921875 0 -3.5625 0.796875q-1.640625 0.796875 -2.84375 2.765625q-1.1875 1.953125 -1.921875 5.234375q-0.71875 3.28125 -0.71875 8.25q0 4.953125 0.71875 8.28125q0.734375 3.3125 1.921875 5.359375q1.203125 2.03125 2.84375 2.921875q1.640625 0.875 3.5625 0.875q1.921875 0 3.5625 -0.875q1.640625 -0.890625 2.828125 -2.921875q1.203125 -2.046875 1.921875 -5.359375q0.734375 -3.328125 0.734375 -8.28125q0 -4.96875 -0.734375 -8.25q-0.71875 -3.28125 -1.921875 -5.234375q-1.1875 -1.96875 -2.828125 -2.765625q-1.640625 -0.796875 -3.5625 -0.796875zm0 22.953125q-2.5625 0 -4.28125 -1.625q-1.71875 -1.640625 -1.71875 -4.453125q0 -2.796875 1.71875 -4.4375q1.71875 -1.640625 4.28125 -1.640625q2.5625 0 4.28125 1.640625q1.71875 1.640625 1.71875 4.4375q0 2.8125 -1.71875 4.453125q-1.71875 1.625 -4.28125 1.625z" fill-rule="nonzero"/><path fill="#000000" fill-opacity="0.0" d="m701.7964 531.67065l110.897644 0l0 186.70868l-110.897644 0z" fill-rule="evenodd"/><path stroke="#000000" stroke-width="1.0" stroke-linejoin="round" stroke-linecap="butt" d="m701.7964 531.67065l110.897644 0l0 186.70868l-110.897644 0z" fill-rule="evenodd"/><path fill="#000000" d="m776.19836 644.3093l0 9.515625l-36.390625 0l0 -9.515625l13.125 0l0 -29.359375l-10.484375 0l0 -7.28125q4.484375 -0.796875 7.640625 -1.921875q3.15625 -1.125 5.953125 -2.71875l8.640625 0l0 41.28125l11.515625 0z" fill-rule="nonzero"/><path fill="#000000" fill-opacity="0.0" d="m812.69403 531.67065l110.897644 0l0 186.70868l-110.897644 0z" fill-rule="evenodd"/><path stroke="#000000" stroke-width="1.0" stroke-linejoin="round" stroke-linecap="butt" d="m812.69403 531.67065l110.897644 0l0 186.70868l-110.897644 0z" fill-rule="evenodd"/><path fill="#000000" d="m868.1429 654.7781q-4.40625 0 -8.0 -1.71875q-3.59375 -1.71875 -6.15625 -5.078125q-2.5625 -3.359375 -3.96875 -8.3125q-1.390625 -4.96875 -1.390625 -11.4375q0 -6.484375 1.390625 -11.359375q1.40625 -4.890625 3.96875 -8.203125q2.5625 -3.328125 6.15625 -4.96875q3.59375 -1.640625 8.0 -1.640625q4.40625 0 8.0 1.640625q3.59375 1.640625 6.15625 4.96875q2.5625 3.3125 3.953125 8.203125q1.40625 4.875 1.40625 11.359375q0 6.46875 -1.40625 11.4375q-1.390625 4.953125 -3.953125 8.3125q-2.5625 3.359375 -6.15625 5.078125q-3.59375 1.71875 -8.0 1.71875zm0 -43.59375q-1.921875 0 -3.5625 0.796875q-1.640625 0.796875 -2.84375 2.765625q-1.1875 1.953125 -1.921875 5.234375q-0.71875 3.28125 -0.71875 8.25q0 4.953125 0.71875 8.28125q0.734375 3.3125 1.921875 5.359375q1.203125 2.03125 2.84375 2.921875q1.640625 0.875 3.5625 0.875q1.921875 0 3.5625 -0.875q1.640625 -0.890625 2.828125 -2.921875q1.203125 -2.046875 1.921875 -5.359375q0.734375 -3.328125 0.734375 -8.28125q0 -4.96875 -0.734375 -8.25q-0.71875 -3.28125 -1.921875 -5.234375q-1.1875 -1.96875 -2.828125 -2.765625q-1.640625 -0.796875 -3.5625 -0.796875zm0 22.953125q-2.5625 0 -4.28125 -1.625q-1.71875 -1.640625 -1.71875 -4.453125q0 -2.796875 1.71875 -4.4375q1.71875 -1.640625 4.28125 -1.640625q2.5625 0 4.28125 1.640625q1.71875 1.640625 1.71875 4.4375q0 2.8125 -1.71875 4.453125q-1.71875 1.625 -4.28125 1.625z" fill-rule="nonzero"/><path fill="#000000" fill-opacity="0.0" d="m36.40945 472.2496l887.18115 0l0 44.75589l-887.18115 0z" fill-rule="evenodd"/><path fill="#000000" d="m274.74362 486.95087l3.46875 0q0.9375 0 1.71875 0.15625q0.78125 0.15625 1.34375 0.515625q0.578125 0.359375 0.890625 0.9375q0.328125 0.578125 0.328125 1.390625q0 0.890625 -0.53125 1.640625q-0.515625 0.734375 -1.609375 1.015625l0 0.0625q1.34375 0.234375 2.0625 0.953125q0.71875 0.71875 0.71875 1.96875q0 0.90625 -0.34375 1.578125q-0.34375 0.671875 -0.96875 1.125q-0.609375 0.453125 -1.453125 0.671875q-0.84375 0.203125 -1.859375 0.203125l-3.765625 0l0 -12.21875zm3.25 5.125q1.421875 0 2.046875 -0.484375q0.625 -0.5 0.625 -1.453125q0 -0.90625 -0.65625 -1.3125q-0.65625 -0.421875 -1.96875 -0.421875l-1.4375 0l0 3.671875l1.390625 0zm0.296875 5.625q1.453125 0 2.234375 -0.546875q0.78125 -0.546875 0.78125 -1.671875q0 -1.0625 -0.765625 -1.546875q-0.765625 -0.5 -2.25 -0.5l-1.6875 0l0 4.265625l1.6875 0zm7.443756 -7.65625l5.9375 0l0 9.125l-1.859375 0l0 -7.625l-4.078125 0l0 -1.5zm4.84375 -1.734375q-0.59375 0 -0.984375 -0.34375q-0.390625 -0.359375 -0.390625 -0.953125q0 -0.609375 0.390625 -0.96875q0.390625 -0.359375 0.984375 -0.359375q0.609375 0 1.0 0.359375q0.390625 0.359375 0.390625 0.96875q0 0.59375 -0.390625 0.953125q-0.390625 0.34375 -1.0 0.34375zm8.412506 3.234375l-2.5 0l0 -1.40625l2.578125 -0.09375l0.25 -2.515625l1.53125 0l0 2.515625l4.296875 0l0 1.5l-4.296875 0l0 4.03125q0 1.171875 0.46875 1.75q0.484375 0.578125 1.734375 0.578125q0.59375 0 1.09375 -0.09375q0.515625 -0.109375 0.984375 -0.296875l0.375 1.359375q-0.609375 0.203125 -1.359375 0.359375q-0.75 0.15625 -1.53125 0.15625q-1.0 0 -1.703125 -0.265625q-0.703125 -0.28125 -1.125 -0.78125q-0.421875 -0.515625 -0.609375 -1.21875q-0.1875 -0.703125 -0.1875 -1.546875l0 -4.03125zm20.121887 5.21875q0 -0.765625 0.359375 -1.34375q0.359375 -0.578125 1.125 -0.984375q0.78125 -0.421875 2.0 -0.671875q1.234375 -0.265625 2.953125 -0.390625q-0.046875 -0.84375 -0.5625 -1.4375q-0.5 -0.59375 -1.71875 -0.59375q-0.84375 0 -1.640625 0.3125q-0.78125 0.3125 -1.453125 0.703125l-0.6875 -1.25q0.375 -0.21875 0.828125 -0.453125q0.46875 -0.234375 1.0 -0.421875q0.53125 -0.1875 1.09375 -0.296875q0.578125 -0.109375 1.171875 -0.109375q1.90625 0 2.859375 1.03125q0.953125 1.015625 0.953125 2.828125l0 5.484375l-1.515625 0l-0.140625 -1.171875l-0.0625 0q-0.734375 0.5625 -1.640625 0.984375q-0.890625 0.40625 -1.84375 0.40625q-0.65625 0 -1.234375 -0.1875q-0.5625 -0.1875 -0.96875 -0.53125q-0.40625 -0.34375 -0.640625 -0.828125q-0.234375 -0.484375 -0.234375 -1.078125zm1.78125 -0.125q0 0.6875 0.53125 0.984375q0.53125 0.296875 1.28125 0.296875q0.734375 0 1.421875 -0.3125q0.703125 -0.328125 1.421875 -0.90625l0 -2.15625q-1.34375 0.109375 -2.25 0.296875q-0.890625 0.171875 -1.421875 0.4375q-0.53125 0.265625 -0.765625 0.609375q-0.21875 0.328125 -0.21875 0.75zm10.568787 -6.59375l1.53125 0l0.140625 2.125l0.0625 0q0.703125 -1.109375 1.71875 -1.71875q1.015625 -0.625 2.25 -0.625q0.546875 0 0.953125 0.09375q0.40625 0.078125 0.84375 0.28125l-0.421875 1.578125q-0.453125 -0.140625 -0.796875 -0.21875q-0.328125 -0.078125 -0.859375 -0.078125q-0.984375 0 -1.90625 0.5625q-0.90625 0.5625 -1.671875 1.9375l0 5.1875l-1.84375 0l0 -9.125zm11.193726 0l1.53125 0l0.140625 2.125l0.0625 0q0.703125 -1.109375 1.71875 -1.71875q1.015625 -0.625 2.25 -0.625q0.546875 0 0.953125 0.09375q0.40625 0.078125 0.84375 0.28125l-0.421875 1.578125q-0.453125 -0.140625 -0.796875 -0.21875q-0.328125 -0.078125 -0.859375 -0.078125q-0.984375 0 -1.90625 0.5625q-0.90625 0.5625 -1.671875 1.9375l0 5.1875l-1.84375 0l0 -9.125zm10.037537 6.71875q0 -0.765625 0.359375 -1.34375q0.359375 -0.578125 1.125 -0.984375q0.78125 -0.421875 2.0 -0.671875q1.234375 -0.265625 2.953125 -0.390625q-0.046875 -0.84375 -0.5625 -1.4375q-0.5 -0.59375 -1.71875 -0.59375q-0.84375 0 -1.640625 0.3125q-0.78125 0.3125 -1.453125 0.703125l-0.6875 -1.25q0.375 -0.21875 0.828125 -0.453125q0.46875 -0.234375 1.0 -0.421875q0.53125 -0.1875 1.09375 -0.296875q0.578125 -0.109375 1.171875 -0.109375q1.90625 0 2.859375 1.03125q0.953125 1.015625 0.953125 2.828125l0 5.484375l-1.515625 0l-0.140625 -1.171875l-0.0625 0q-0.734375 0.5625 -1.640625 0.984375q-0.890625 0.40625 -1.84375 0.40625q-0.65625 0 -1.234375 -0.1875q-0.5625 -0.1875 -0.96875 -0.53125q-0.40625 -0.34375 -0.640625 -0.828125q-0.234375 -0.484375 -0.234375 -1.078125zm1.78125 -0.125q0 0.6875 0.53125 0.984375q0.53125 0.296875 1.28125 0.296875q0.734375 0 1.421875 -0.3125q0.703125 -0.328125 1.421875 -0.90625l0 -2.15625q-1.34375 0.109375 -2.25 0.296875q-0.890625 0.171875 -1.421875 0.4375q-0.53125 0.265625 -0.765625 0.609375q-0.21875 0.328125 -0.21875 0.75zm9.615601 4.734375q0.171875 0.046875 0.375 0.078125q0.203125 0.046875 0.40625 0.046875q0.921875 0 1.46875 -0.5q0.5625 -0.484375 0.875 -1.25l0.25 -0.640625l-4.15625 -9.0625l1.84375 0l2.046875 4.765625q0.265625 0.609375 0.515625 1.296875q0.265625 0.6875 0.546875 1.359375l0.078125 0q0.21875 -0.640625 0.453125 -1.328125q0.25 -0.703125 0.484375 -1.328125l1.8125 -4.765625l1.75 0l-3.90625 9.703125q-0.28125 0.734375 -0.640625 1.328125q-0.34375 0.59375 -0.828125 1.015625q-0.46875 0.4375 -1.09375 0.671875q-0.609375 0.234375 -1.40625 0.234375q-0.328125 0 -0.65625 -0.046875q-0.328125 -0.046875 -0.59375 -0.140625l0.375 -1.4375l0 0zm23.340637 -11.328125l1.53125 0l0.140625 2.125l0.0625 0q0.703125 -1.109375 1.71875 -1.71875q1.015625 -0.625 2.25 -0.625q0.546875 0 0.953125 0.09375q0.40625 0.078125 0.84375 0.28125l-0.421875 1.578125q-0.453125 -0.140625 -0.796875 -0.21875q-0.328125 -0.078125 -0.859375 -0.078125q-0.984375 0 -1.90625 0.5625q-0.90625 0.5625 -1.671875 1.9375l0 5.1875l-1.84375 0l0 -9.125zm9.834412 4.578125q0 -1.125 0.390625 -2.0q0.390625 -0.890625 1.03125 -1.515625q0.65625 -0.625 1.5 -0.953125q0.84375 -0.328125 1.734375 -0.328125q1.015625 0 1.78125 0.3125q0.78125 0.3125 1.3125 0.890625q0.546875 0.5625 0.828125 1.359375q0.28125 0.796875 0.28125 1.75q0 0.28125 -0.03125 0.53125q-0.03125 0.25 -0.0625 0.421875l-6.875 0q0.09375 1.328125 1.0 2.09375q0.90625 0.75 2.296875 0.75q0.734375 0 1.375 -0.203125q0.65625 -0.203125 1.265625 -0.578125l0.65625 1.171875q-0.703125 0.453125 -1.59375 0.765625q-0.890625 0.296875 -1.953125 0.296875q-1.03125 0 -1.9375 -0.3125q-0.890625 -0.328125 -1.5625 -0.9375q-0.671875 -0.625 -1.0625 -1.515625q-0.375 -0.890625 -0.375 -2.0zm7.140625 -0.8125q0 -1.21875 -0.640625 -1.875q-0.625 -0.65625 -1.8125 -0.65625q-1.015625 0 -1.828125 0.65625q-0.796875 0.65625 -0.984375 1.875l5.265625 0zm6.3187256 6.109375l0 2.984375l-1.84375 0l0 -12.859375l1.515625 0l0.140625 1.125l0.0625 0q0.609375 -0.59375 1.40625 -0.96875q0.8125 -0.375 1.640625 -0.375q0.890625 0 1.578125 0.328125q0.703125 0.328125 1.171875 0.9375q0.484375 0.59375 0.734375 1.453125q0.265625 0.859375 0.265625 1.921875q0 1.171875 -0.34375 2.09375q-0.328125 0.90625 -0.90625 1.53125q-0.5625 0.625 -1.3125 0.96875q-0.75 0.328125 -1.546875 0.328125q-0.640625 0 -1.328125 -0.28125q-0.6875 -0.296875 -1.28125 -0.828125l0.046875 1.640625zm0 -3.0q0.578125 0.515625 1.171875 0.734375q0.609375 0.203125 1.03125 0.203125q1.109375 0 1.828125 -0.859375q0.734375 -0.875 0.734375 -2.515625q0 -1.4375 -0.5625 -2.265625q-0.5625 -0.84375 -1.796875 -0.84375q-0.5625 0 -1.171875 0.296875q-0.609375 0.28125 -1.234375 0.9375l0 4.3125zm10.287537 -6.875l1.53125 0l0.140625 2.125l0.0625 0q0.703125 -1.109375 1.71875 -1.71875q1.015625 -0.625 2.25 -0.625q0.546875 0 0.953125 0.09375q0.40625 0.078125 0.84375 0.28125l-0.421875 1.578125q-0.453125 -0.140625 -0.796875 -0.21875q-0.328125 -0.078125 -0.859375 -0.078125q-0.984375 0 -1.90625 0.5625q-0.90625 0.5625 -1.671875 1.9375l0 5.1875l-1.84375 0l0 -9.125zm9.834351 4.578125q0 -1.125 0.390625 -2.0q0.390625 -0.890625 1.03125 -1.515625q0.65625 -0.625 1.5 -0.953125q0.84375 -0.328125 1.734375 -0.328125q1.015625 0 1.78125 0.3125q0.78125 0.3125 1.3125 0.890625q0.546875 0.5625 0.828125 1.359375q0.28125 0.796875 0.28125 1.75q0 0.28125 -0.03125 0.53125q-0.03125 0.25 -0.0625 0.421875l-6.875 0q0.09375 1.328125 1.0 2.09375q0.90625 0.75 2.296875 0.75q0.734375 0 1.375 -0.203125q0.65625 -0.203125 1.265625 -0.578125l0.65625 1.171875q-0.703125 0.453125 -1.59375 0.765625q-0.890625 0.296875 -1.953125 0.296875q-1.03125 0 -1.9375 -0.3125q-0.890625 -0.328125 -1.5625 -0.9375q-0.671875 -0.625 -1.0625 -1.515625q-0.375 -0.890625 -0.375 -2.0zm7.140625 -0.8125q0 -1.21875 -0.640625 -1.875q-0.625 -0.65625 -1.8125 -0.65625q-1.015625 0 -1.828125 0.65625q-0.796875 0.65625 -0.984375 1.875l5.265625 0zm4.9594116 2.96875q0.78125 0.546875 1.640625 0.875q0.859375 0.328125 2.0 0.328125q1.171875 0 1.703125 -0.359375q0.546875 -0.359375 0.546875 -0.890625q0 -0.515625 -0.65625 -0.875q-0.640625 -0.375 -2.15625 -0.75q-0.671875 -0.171875 -1.296875 -0.40625q-0.625 -0.25 -1.09375 -0.578125q-0.46875 -0.328125 -0.75 -0.71875q-0.265625 -0.40625 -0.265625 -0.90625q0 -0.578125 0.25 -1.0625q0.25 -0.5 0.75 -0.84375q0.5 -0.359375 1.21875 -0.5625q0.734375 -0.203125 1.6875 -0.203125q1.09375 0 2.0625 0.359375q0.984375 0.359375 1.671875 0.828125l-0.859375 1.15625q-0.609375 -0.40625 -1.328125 -0.65625q-0.703125 -0.265625 -1.515625 -0.265625q-1.15625 0 -1.625 0.34375q-0.453125 0.328125 -0.453125 0.8125q0 0.515625 0.75 0.859375q0.75 0.328125 1.921875 0.625q1.71875 0.4375 2.640625 1.046875q0.921875 0.59375 0.921875 1.671875q0 0.578125 -0.28125 1.09375q-0.28125 0.5 -0.8125 0.890625q-0.53125 0.375 -1.3125 0.578125q-0.765625 0.21875 -1.78125 0.21875q-1.296875 0 -2.453125 -0.40625q-1.15625 -0.421875 -2.0 -1.0l0.875 -1.203125zm10.287476 -2.15625q0 -1.125 0.390625 -2.0q0.390625 -0.890625 1.03125 -1.515625q0.65625 -0.625 1.5 -0.953125q0.84375 -0.328125 1.734375 -0.328125q1.015625 0 1.78125 0.3125q0.78125 0.3125 1.3125 0.890625q0.546875 0.5625 0.828125 1.359375q0.28125 0.796875 0.28125 1.75q0 0.28125 -0.03125 0.53125q-0.03125 0.25 -0.0625 0.421875l-6.875 0q0.09375 1.328125 1.0 2.09375q0.90625 0.75 2.296875 0.75q0.734375 0 1.375 -0.203125q0.65625 -0.203125 1.265625 -0.578125l0.65625 1.171875q-0.703125 0.453125 -1.59375 0.765625q-0.890625 0.296875 -1.953125 0.296875q-1.03125 0 -1.9375 -0.3125q-0.890625 -0.328125 -1.5625 -0.9375q-0.671875 -0.625 -1.0625 -1.515625q-0.375 -0.890625 -0.375 -2.0zm7.140625 -0.8125q0 -1.21875 -0.640625 -1.875q-0.625 -0.65625 -1.8125 -0.65625q-1.015625 0 -1.828125 0.65625q-0.796875 0.65625 -0.984375 1.875l5.265625 0zm4.4750366 -3.765625l1.515625 0l0.140625 1.46875l0.078125 0q0.6875 -0.703125 1.484375 -1.1875q0.8125 -0.5 1.875 -0.5q1.609375 0 2.34375 0.953125q0.75 0.953125 0.75 2.734375l0 5.65625l-1.84375 0l0 -5.40625q0 -1.203125 -0.4375 -1.765625q-0.421875 -0.578125 -1.46875 -0.578125q-0.71875 0 -1.296875 0.375q-0.578125 0.359375 -1.296875 1.09375l0 6.28125l-1.84375 0l0 -9.125zm13.240601 1.5l-2.5 0l0 -1.40625l2.578125 -0.09375l0.25 -2.515625l1.53125 0l0 2.515625l4.296875 0l0 1.5l-4.296875 0l0 4.03125q0 1.171875 0.46875 1.75q0.484375 0.578125 1.734375 0.578125q0.59375 0 1.09375 -0.09375q0.515625 -0.109375 0.984375 -0.296875l0.375 1.359375q-0.609375 0.203125 -1.359375 0.359375q-0.75 0.15625 -1.53125 0.15625q-1.0 0 -1.703125 -0.265625q-0.703125 -0.28125 -1.125 -0.78125q-0.421875 -0.515625 -0.609375 -1.21875q-0.1875 -0.703125 -0.1875 -1.546875l0 -4.03125zm9.131287 -1.5l5.9375 0l0 9.125l-1.859375 0l0 -7.625l-4.078125 0l0 -1.5zm4.84375 -1.734375q-0.59375 0 -0.984375 -0.34375q-0.390625 -0.359375 -0.390625 -0.953125q0 -0.609375 0.390625 -0.96875q0.390625 -0.359375 0.984375 -0.359375q0.609375 0 1.0 0.359375q0.390625 0.359375 0.390625 0.96875q0 0.59375 -0.390625 0.953125q-0.390625 0.34375 -1.0 0.34375zm6.3656006 1.734375l1.515625 0l0.140625 1.46875l0.078125 0q0.6875 -0.703125 1.484375 -1.1875q0.8125 -0.5 1.875 -0.5q1.609375 0 2.34375 0.953125q0.75 0.953125 0.75 2.734375l0 5.65625l-1.84375 0l0 -5.40625q0 -1.203125 -0.4375 -1.765625q-0.421875 -0.578125 -1.46875 -0.578125q-0.71875 0 -1.296875 0.375q-0.578125 0.359375 -1.296875 1.09375l0 6.28125l-1.84375 0l0 -9.125zm12.365662 10.546875q0 0.65625 0.71875 1.046875q0.7187195 0.40625 2.0780945 0.40625q0.734375 0 1.3125 -0.140625q0.59375 -0.140625 1.015625 -0.375q0.421875 -0.234375 0.640625 -0.53125q0.234375 -0.296875 0.234375 -0.640625q0 -0.59375 -0.5 -0.796875q-0.5 -0.1875 -1.484375 -0.1875l-1.609375 0q-0.421875 0 -0.765625 -0.03125q-0.328125 -0.015625 -0.6249695 -0.109375q-0.5625 0.3125 -0.796875 0.640625q-0.21875 0.34375 -0.21875 0.71875zm-1.5625 0.21875q0 -0.546875 0.375 -1.0625q0.390625 -0.5 1.09375 -0.90625l0 -0.078125q-0.375 -0.203125 -0.65625 -0.5625q-0.265625 -0.375 -0.265625 -0.953125q0 -0.453125 0.28125 -0.90625q0.296875 -0.453125 0.8125 -0.8125l0 -0.078125q-0.484375 -0.34375 -0.828125 -0.9375q-0.328125 -0.59375 -0.328125 -1.40625q0 -0.765625 0.296875 -1.375q0.296875 -0.609375 0.796875 -1.03125q0.515625 -0.4375 1.171875 -0.65625q0.6718445 -0.21875 1.4062195 -0.21875q0.765625 0 1.390625 0.21875l3.75 0l0 1.40625l-2.28125 0q0.28125 0.296875 0.5 0.734375q0.234375 0.4375 0.234375 0.984375q0 0.734375 -0.28125 1.3125q-0.28125 0.578125 -0.765625 0.984375q-0.484375 0.40625 -1.140625 0.609375q-0.65625 0.203125 -1.40625 0.203125q-0.328125 0 -0.71875 -0.078125q-0.375 -0.078125 -0.7499695 -0.21875q-0.640625 0.40625 -0.640625 0.953125q0 0.5 0.46875 0.734375q0.46871948 0.21875 1.3437195 0.21875l1.9375 0q1.796875 0 2.65625 0.515625q0.875 0.5 0.875 1.6875q0 0.640625 -0.375 1.21875q-0.359375 0.578125 -1.03125 1.015625q-0.671875 0.4375 -1.625 0.6875q-0.9375 0.265625 -2.125 0.265625q-1.9374695 0 -3.0624695 -0.625q-1.109375 -0.625 -1.109375 -1.84375zm4.1562195 -5.71875q0.78125 0 1.34375 -0.515625q0.5625 -0.53125 0.5625 -1.46875q0 -0.890625 -0.5625 -1.4375q-0.5625 -0.546875 -1.34375 -0.546875q-0.78125 0 -1.34375 0.546875q-0.5624695 0.546875 -0.5624695 1.4375q0 0.9375 0.5624695 1.46875q0.5625 0.515625 1.34375 0.515625zm20.668762 -3.546875l-2.5 0l0 -1.40625l2.578125 -0.09375l0.25 -2.515625l1.53125 0l0 2.515625l4.296875 0l0 1.5l-4.296875 0l0 4.03125q0 1.171875 0.46875 1.75q0.484375 0.578125 1.734375 0.578125q0.59375 0 1.09375 -0.09375q0.515625 -0.109375 0.984375 -0.296875l0.375 1.359375q-0.609375 0.203125 -1.359375 0.359375q-0.75 0.15625 -1.53125 0.15625q-1.0 0 -1.703125 -0.265625q-0.703125 -0.28125 -1.125 -0.78125q-0.421875 -0.515625 -0.609375 -1.21875q-0.1875 -0.703125 -0.1875 -1.546875l0 -4.03125zm9.146851 -5.609375l1.84375 0l0 3.515625l-0.109375 2.046875q0.6875 -0.703125 1.484375 -1.1875q0.8125 -0.484375 1.875 -0.484375q1.609375 0 2.34375 0.953125q0.75 0.953125 0.75 2.734375l0 5.65625l-1.84375 0l0 -5.40625q0 -1.203125 -0.4375 -1.765625q-0.421875 -0.578125 -1.46875 -0.578125q-0.71875 0 -1.296875 0.375q-0.578125 0.359375 -1.296875 1.09375l0 6.28125l-1.84375 0l0 -13.234375zm10.771912 8.6875q0 -1.125 0.390625 -2.0q0.390625 -0.890625 1.03125 -1.515625q0.65625 -0.625 1.5 -0.953125q0.84375 -0.328125 1.734375 -0.328125q1.015625 0 1.78125 0.3125q0.78125 0.3125 1.3125 0.890625q0.546875 0.5625 0.828125 1.359375q0.28125 0.796875 0.28125 1.75q0 0.28125 -0.03125 0.53125q-0.03125 0.25 -0.0625 0.421875l-6.875 0q0.09375 1.328125 1.0 2.09375q0.90625 0.75 2.296875 0.75q0.734375 0 1.375 -0.203125q0.65625 -0.203125 1.265625 -0.578125l0.65625 1.171875q-0.703125 0.453125 -1.59375 0.765625q-0.890625 0.296875 -1.953125 0.296875q-1.03125 0 -1.9375 -0.3125q-0.890625 -0.328125 -1.5625 -0.9375q-0.671875 -0.625 -1.0625 -1.515625q-0.375 -0.890625 -0.375 -2.0zm7.140625 -0.8125q0 -1.21875 -0.640625 -1.875q-0.625 -0.65625 -1.8125 -0.65625q-1.015625 0 -1.828125 0.65625q-0.796875 0.65625 -0.984375 1.875l5.265625 0zm15.668762 -3.765625l1.515625 0l0.140625 1.46875l0.078125 0q0.6875 -0.703125 1.484375 -1.1875q0.8125 -0.5 1.875 -0.5q1.609375 0 2.34375 0.953125q0.75 0.953125 0.75 2.734375l0 5.65625l-1.84375 0l0 -5.40625q0 -1.203125 -0.4375 -1.765625q-0.421875 -0.578125 -1.46875 -0.578125q-0.71875 0 -1.296875 0.375q-0.578125 0.359375 -1.296875 1.09375l0 6.28125l-1.84375 0l0 -9.125zm19.068726 9.125l-1.515625 0l-0.140625 -1.515625l-0.078125 0q-0.671875 0.78125 -1.46875 1.265625q-0.796875 0.46875 -1.828125 0.46875q-1.625 0 -2.375 -0.9375q-0.75 -0.9375 -0.75 -2.75l0 -5.65625l1.84375 0l0 5.40625q0 1.21875 0.421875 1.796875q0.4375 0.5625 1.484375 0.5625q0.71875 0 1.296875 -0.34375q0.59375 -0.34375 1.265625 -1.171875l0 -6.25l1.84375 0l0 9.125zm2.6781616 -9.125l1.421875 0l0.15625 1.203125l0.046875 0q0.328125 -0.625 0.78125 -1.015625q0.453125 -0.40625 1.234375 -0.40625q1.359375 0 1.703125 1.546875q0.375 -0.6875 0.859375 -1.109375q0.484375 -0.4375 1.25 -0.4375q0.953125 0 1.46875 0.734375q0.53125 0.734375 0.53125 2.109375l0 6.5l-1.765625 0l0 -6.34375q0 -1.40625 -0.859375 -1.40625q-0.421875 0 -0.75 0.3125q-0.3125 0.3125 -0.625 0.9375l0 6.5l-1.453125 0l0 -6.34375q0 -1.40625 -0.890625 -1.40625q-0.4375 0 -0.734375 0.3125q-0.296875 0.3125 -0.609375 0.9375l0 6.5l-1.765625 0l0 -9.125zm11.834351 -4.109375l1.84375 0l0 3.515625l-0.046875 1.671875q0.609375 -0.59375 1.375 -0.9375q0.78125 -0.359375 1.5625 -0.359375q0.90625 0 1.609375 0.328125q0.703125 0.328125 1.171875 0.9375q0.484375 0.59375 0.734375 1.453125q0.265625 0.859375 0.265625 1.921875q0 1.171875 -0.34375 2.09375q-0.328125 0.90625 -0.90625 1.53125q-0.5625 0.625 -1.3125 0.96875q-0.734375 0.328125 -1.53125 0.328125q-0.65625 0 -1.390625 -0.3125q-0.734375 -0.3125 -1.34375 -0.90625l-0.0625 0l-0.171875 1.0l-1.453125 0l0 -13.234375zm1.84375 10.984375q0.578125 0.515625 1.171875 0.734375q0.609375 0.203125 1.046875 0.203125q1.09375 0 1.8125 -0.859375q0.734375 -0.875 0.734375 -2.515625q0 -1.4375 -0.5625 -2.265625q-0.5625 -0.84375 -1.796875 -0.84375q-0.5625 0 -1.171875 0.296875q-0.609375 0.28125 -1.234375 0.9375l0 4.3125zm8.928162 -2.296875q0 -1.125 0.390625 -2.0q0.390625 -0.890625 1.03125 -1.515625q0.65625 -0.625 1.5 -0.953125q0.84375 -0.328125 1.734375 -0.328125q1.015625 0 1.78125 0.3125q0.78125 0.3125 1.3125 0.890625q0.546875 0.5625 0.828125 1.359375q0.28125 0.796875 0.28125 1.75q0 0.28125 -0.03125 0.53125q-0.03125 0.25 -0.0625 0.421875l-6.875 0q0.09375 1.328125 1.0 2.09375q0.90625 0.75 2.296875 0.75q0.734375 0 1.375 -0.203125q0.65625 -0.203125 1.265625 -0.578125l0.65625 1.171875q-0.703125 0.453125 -1.59375 0.765625q-0.890625 0.296875 -1.953125 0.296875q-1.03125 0 -1.9375 -0.3125q-0.890625 -0.328125 -1.5625 -0.9375q-0.671875 -0.625 -1.0625 -1.515625q-0.375 -0.890625 -0.375 -2.0zm7.140625 -0.8125q0 -1.21875 -0.640625 -1.875q-0.625 -0.65625 -1.8125 -0.65625q-1.015625 0 -1.828125 0.65625q-0.796875 0.65625 -0.984375 1.875l5.265625 0zm5.4124756 -3.765625l1.53125 0l0.140625 2.125l0.0625 0q0.703125 -1.109375 1.71875 -1.71875q1.015625 -0.625 2.25 -0.625q0.546875 0 0.953125 0.09375q0.40625 0.078125 0.84375 0.28125l-0.421875 1.578125q-0.453125 -0.140625 -0.796875 -0.21875q-0.328125 -0.078125 -0.859375 -0.078125q-0.984375 0 -1.90625 0.5625q-0.90625 0.5625 -1.671875 1.9375l0 5.1875l-1.84375 0l0 -9.125zm24.965637 -2.859375q-0.890625 0.484375 -1.390625 1.1875q-0.5 0.703125 -0.5625 1.65625q0.25 -0.09375 0.453125 -0.09375q0.625 0 1.015625 0.40625q0.40625 0.390625 0.40625 1.03125q0 0.703125 -0.421875 1.140625q-0.40625 0.421875 -1.0625 0.421875q-0.8125 0 -1.3125 -0.640625q-0.5 -0.640625 -0.5 -1.796875q0 -1.4375 0.734375 -2.546875q0.75 -1.125 2.09375 -1.796875l0.546875 1.03125zm4.0 0q-0.890625 0.484375 -1.390625 1.1875q-0.5 0.703125 -0.5625 1.65625q0.25 -0.09375 0.453125 -0.09375q0.625 0 1.015625 0.40625q0.40625 0.390625 0.40625 1.03125q0 0.703125 -0.421875 1.140625q-0.40625 0.421875 -1.0625 0.421875q-0.8125 0 -1.3125 -0.640625q-0.5 -0.640625 -0.5 -1.796875q0 -1.4375 0.734375 -2.546875q0.75 -1.125 2.09375 -1.796875l0.546875 1.03125zm11.928162 10.46875l0 1.515625l-8.140625 0l0 -1.515625l3.3125 0l0 -8.28125l-2.53125 0l0 -1.15625q0.96875 -0.140625 1.671875 -0.375q0.71875 -0.234375 1.3125 -0.5625l1.390625 0l0 10.375l2.984375 0zm3.2718506 -5.765625q0.90625 -0.484375 1.40625 -1.1875q0.515625 -0.703125 0.578125 -1.65625q-0.25 0.09375 -0.453125 0.09375q-0.625 0 -1.03125 -0.390625q-0.390625 -0.40625 -0.390625 -1.046875q0 -0.6875 0.40625 -1.109375q0.421875 -0.4375 1.078125 -0.4375q0.8125 0 1.3125 0.640625q0.5 0.625 0.5 1.796875q0 1.4375 -0.75 2.5625q-0.734375 1.109375 -2.078125 1.78125l-0.578125 -1.046875zm4.0 0q0.90625 -0.484375 1.40625 -1.1875q0.515625 -0.703125 0.578125 -1.65625q-0.25 0.09375 -0.453125 0.09375q-0.625 0 -1.03125 -0.390625q-0.390625 -0.40625 -0.390625 -1.046875q0 -0.6875 0.40625 -1.109375q0.421875 -0.4375 1.078125 -0.4375q0.8125 0 1.3125 0.640625q0.5 0.625 0.5 1.796875q0 1.4375 -0.75 2.5625q-0.734375 1.109375 -2.078125 1.78125l-0.578125 -1.046875z" fill-rule="nonzero"/><path fill="#000000" fill-opacity="0.0" d="m36.40945 718.38086l887.18115 0l0 44.75592l-887.18115 0z" fill-rule="evenodd"/><path fill="#000000" d="m280.3405 733.0821l3.46875 0q0.9375 0 1.71875 0.15625q0.78125 0.15625 1.34375 0.515625q0.578125 0.359375 0.890625 0.9375q0.328125 0.578125 0.328125 1.390625q0 0.890625 -0.53125 1.640625q-0.515625 0.734375 -1.609375 1.015625l0 0.0625q1.34375 0.234375 2.0625 0.953125q0.71875 0.71875 0.71875 1.96875q0 0.90625 -0.34375 1.578125q-0.34375 0.671875 -0.96875 1.125q-0.609375 0.453125 -1.453125 0.671875q-0.84375 0.203125 -1.859375 0.203125l-3.765625 0l0 -12.21875zm3.25 5.125q1.421875 0 2.046875 -0.484375q0.625 -0.5 0.625 -1.453125q0 -0.90625 -0.65625 -1.3125q-0.65625 -0.421875 -1.96875 -0.421875l-1.4375 0l0 3.671875l1.390625 0zm0.296875 5.625q1.453125 0 2.234375 -0.546875q0.78125 -0.546875 0.78125 -1.671875q0 -1.0625 -0.765625 -1.546875q-0.765625 -0.5 -2.25 -0.5l-1.6875 0l0 4.265625l1.6875 0zm7.443756 -7.65625l5.9375 0l0 9.125l-1.859375 0l0 -7.625l-4.078125 0l0 -1.5zm4.84375 -1.734375q-0.59375 0 -0.984375 -0.34375q-0.390625 -0.359375 -0.390625 -0.953125q0 -0.609375 0.390625 -0.96875q0.390625 -0.359375 0.984375 -0.359375q0.609375 0 1.0 0.359375q0.390625 0.359375 0.390625 0.96875q0 0.59375 -0.390625 0.953125q-0.390625 0.34375 -1.0 0.34375zm8.412506 3.234375l-2.5 0l0 -1.40625l2.578125 -0.09375l0.25 -2.515625l1.53125 0l0 2.515625l4.296875 0l0 1.5l-4.296875 0l0 4.03125q0 1.171875 0.46875 1.75q0.484375 0.578125 1.734375 0.578125q0.59375 0 1.09375 -0.09375q0.515625 -0.109375 0.984375 -0.296875l0.375 1.359375q-0.609375 0.203125 -1.359375 0.359375q-0.75 0.15625 -1.53125 0.15625q-1.0 0 -1.703125 -0.265625q-0.703125 -0.28125 -1.125 -0.78125q-0.421875 -0.515625 -0.609375 -1.21875q-0.1875 -0.703125 -0.1875 -1.546875l0 -4.03125zm8.506256 -1.5l1.421875 0l0.15625 1.203125l0.046875 0q0.328125 -0.625 0.78125 -1.015625q0.453125 -0.40625 1.234375 -0.40625q1.359375 0 1.703125 1.546875q0.375 -0.6875 0.859375 -1.109375q0.484375 -0.4375 1.25 -0.4375q0.953125 0 1.46875 0.734375q0.53125 0.734375 0.53125 2.109375l0 6.5l-1.765625 0l0 -6.34375q0 -1.40625 -0.859375 -1.40625q-0.421875 0 -0.75 0.3125q-0.3125 0.3125 -0.625 0.9375l0 6.5l-1.453125 0l0 -6.34375q0 -1.40625 -0.890625 -1.40625q-0.4375 0 -0.734375 0.3125q-0.296875 0.3125 -0.609375 0.9375l0 6.5l-1.765625 0l0 -9.125zm11.615631 6.71875q0 -0.765625 0.359375 -1.34375q0.359375 -0.578125 1.125 -0.984375q0.78125 -0.421875 2.0 -0.671875q1.234375 -0.265625 2.953125 -0.390625q-0.046875 -0.84375 -0.5625 -1.4375q-0.5 -0.59375 -1.71875 -0.59375q-0.84375 0 -1.640625 0.3125q-0.78125 0.3125 -1.453125 0.703125l-0.6875 -1.25q0.375 -0.21875 0.828125 -0.453125q0.46875 -0.234375 1.0 -0.421875q0.53125 -0.1875 1.09375 -0.296875q0.578125 -0.109375 1.171875 -0.109375q1.90625 0 2.859375 1.03125q0.953125 1.015625 0.953125 2.828125l0 5.484375l-1.515625 0l-0.140625 -1.171875l-0.0625 0q-0.734375 0.5625 -1.640625 0.984375q-0.890625 0.40625 -1.84375 0.40625q-0.65625 0 -1.234375 -0.1875q-0.5625 -0.1875 -0.96875 -0.53125q-0.40625 -0.34375 -0.640625 -0.828125q-0.234375 -0.484375 -0.234375 -1.078125zm1.78125 -0.125q0 0.6875 0.53125 0.984375q0.53125 0.296875 1.28125 0.296875q0.734375 0 1.421875 -0.3125q0.703125 -0.328125 1.421875 -0.90625l0 -2.15625q-1.34375 0.109375 -2.25 0.296875q-0.890625 0.171875 -1.421875 0.4375q-0.53125 0.265625 -0.765625 0.609375q-0.21875 0.328125 -0.21875 0.75zm10.115631 0.140625q0.78125 0.546875 1.640625 0.875q0.859375 0.328125 2.0 0.328125q1.171875 0 1.703125 -0.359375q0.546875 -0.359375 0.546875 -0.890625q0 -0.515625 -0.65625 -0.875q-0.640625 -0.375 -2.15625 -0.75q-0.671875 -0.171875 -1.296875 -0.40625q-0.625 -0.25 -1.09375 -0.578125q-0.46875 -0.328125 -0.75 -0.71875q-0.265625 -0.40625 -0.265625 -0.90625q0 -0.578125 0.25 -1.0625q0.25 -0.5 0.75 -0.84375q0.5 -0.359375 1.21875 -0.5625q0.734375 -0.203125 1.6875 -0.203125q1.09375 0 2.0625 0.359375q0.984375 0.359375 1.671875 0.828125l-0.859375 1.15625q-0.609375 -0.40625 -1.328125 -0.65625q-0.703125 -0.265625 -1.515625 -0.265625q-1.15625 0 -1.625 0.34375q-0.453125 0.328125 -0.453125 0.8125q0 0.515625 0.75 0.859375q0.75 0.328125 1.921875 0.625q1.71875 0.4375 2.640625 1.046875q0.921875 0.59375 0.921875 1.671875q0 0.578125 -0.28125 1.09375q-0.28125 0.5 -0.8125 0.890625q-0.53125 0.375 -1.3125 0.578125q-0.765625 0.21875 -1.78125 0.21875q-1.296875 0 -2.453125 -0.40625q-1.15625 -0.421875 -2.0 -1.0l0.875 -1.203125zm10.896881 -10.84375l1.84375 0l0 8.625l0.078125 0l4.5 -4.515625l2.0625 0l-3.5625 3.65625l4.015625 5.46875l-2.03125 0l-3.125 -4.328125l-1.9375 1.90625l0 2.421875l-1.84375 0l0 -13.234375zm23.137512 4.109375l1.53125 0l0.140625 2.125l0.0625 0q0.703125 -1.109375 1.71875 -1.71875q1.015625 -0.625 2.25 -0.625q0.546875 0 0.953125 0.09375q0.40625 0.078125 0.84375 0.28125l-0.421875 1.578125q-0.453125 -0.140625 -0.796875 -0.21875q-0.328125 -0.078125 -0.859375 -0.078125q-0.984375 0 -1.90625 0.5625q-0.90625 0.5625 -1.671875 1.9375l0 5.1875l-1.84375 0l0 -9.125zm9.834381 4.578125q0 -1.125 0.390625 -2.0q0.390625 -0.890625 1.03125 -1.515625q0.65625 -0.625 1.5 -0.953125q0.84375 -0.328125 1.734375 -0.328125q1.015625 0 1.78125 0.3125q0.78125 0.3125 1.3125 0.890625q0.546875 0.5625 0.828125 1.359375q0.28125 0.796875 0.28125 1.75q0 0.28125 -0.03125 0.53125q-0.03125 0.25 -0.0625 0.421875l-6.875 0q0.09375 1.328125 1.0 2.09375q0.90625 0.75 2.296875 0.75q0.734375 0 1.375 -0.203125q0.65625 -0.203125 1.265625 -0.578125l0.65625 1.171875q-0.703125 0.453125 -1.59375 0.765625q-0.890625 0.296875 -1.953125 0.296875q-1.03125 0 -1.9375 -0.3125q-0.890625 -0.328125 -1.5625 -0.9375q-0.671875 -0.625 -1.0625 -1.515625q-0.375 -0.890625 -0.375 -2.0zm7.140625 -0.8125q0 -1.21875 -0.640625 -1.875q-0.625 -0.65625 -1.8125 -0.65625q-1.015625 0 -1.828125 0.65625q-0.796875 0.65625 -0.984375 1.875l5.265625 0zm6.318756 6.109375l0 2.984375l-1.84375 0l0 -12.859375l1.515625 0l0.140625 1.125l0.0625 0q0.609375 -0.59375 1.40625 -0.96875q0.8125 -0.375 1.640625 -0.375q0.890625 0 1.578125 0.328125q0.703125 0.328125 1.171875 0.9375q0.484375 0.59375 0.734375 1.453125q0.265625 0.859375 0.265625 1.921875q0 1.171875 -0.34375 2.09375q-0.328125 0.90625 -0.90625 1.53125q-0.5625 0.625 -1.3125 0.96875q-0.75 0.328125 -1.546875 0.328125q-0.640625 0 -1.328125 -0.28125q-0.6875 -0.296875 -1.28125 -0.828125l0.046875 1.640625zm0 -3.0q0.578125 0.515625 1.171875 0.734375q0.609375 0.203125 1.03125 0.203125q1.109375 0 1.828125 -0.859375q0.734375 -0.875 0.734375 -2.515625q0 -1.4375 -0.5625 -2.265625q-0.5625 -0.84375 -1.796875 -0.84375q-0.5625 0 -1.171875 0.296875q-0.609375 0.28125 -1.234375 0.9375l0 4.3125zm10.287506 -6.875l1.53125 0l0.140625 2.125l0.0625 0q0.703125 -1.109375 1.71875 -1.71875q1.015625 -0.625 2.25 -0.625q0.546875 0 0.953125 0.09375q0.40625 0.078125 0.84375 0.28125l-0.421875 1.578125q-0.453125 -0.140625 -0.796875 -0.21875q-0.328125 -0.078125 -0.859375 -0.078125q-0.984375 0 -1.90625 0.5625q-0.90625 0.5625 -1.671875 1.9375l0 5.1875l-1.84375 0l0 -9.125zm9.834381 4.578125q0 -1.125 0.390625 -2.0q0.390625 -0.890625 1.03125 -1.515625q0.65625 -0.625 1.5 -0.953125q0.84375 -0.328125 1.734375 -0.328125q1.015625 0 1.78125 0.3125q0.78125 0.3125 1.3125 0.890625q0.546875 0.5625 0.828125 1.359375q0.28125 0.796875 0.28125 1.75q0 0.28125 -0.03125 0.53125q-0.03125 0.25 -0.0625 0.421875l-6.875 0q0.09375 1.328125 1.0 2.09375q0.90625 0.75 2.296875 0.75q0.734375 0 1.375 -0.203125q0.65625 -0.203125 1.265625 -0.578125l0.65625 1.171875q-0.703125 0.453125 -1.59375 0.765625q-0.890625 0.296875 -1.953125 0.296875q-1.03125 0 -1.9375 -0.3125q-0.890625 -0.328125 -1.5625 -0.9375q-0.671875 -0.625 -1.0625 -1.515625q-0.375 -0.890625 -0.375 -2.0zm7.140625 -0.8125q0 -1.21875 -0.640625 -1.875q-0.625 -0.65625 -1.8125 -0.65625q-1.015625 0 -1.828125 0.65625q-0.796875 0.65625 -0.984375 1.875l5.265625 0zm4.959381 2.96875q0.78125 0.546875 1.640625 0.875q0.859375 0.328125 2.0 0.328125q1.171875 0 1.703125 -0.359375q0.546875 -0.359375 0.546875 -0.890625q0 -0.515625 -0.65625 -0.875q-0.640625 -0.375 -2.15625 -0.75q-0.671875 -0.171875 -1.296875 -0.40625q-0.625 -0.25 -1.09375 -0.578125q-0.46875 -0.328125 -0.75 -0.71875q-0.265625 -0.40625 -0.265625 -0.90625q0 -0.578125 0.25 -1.0625q0.25 -0.5 0.75 -0.84375q0.5 -0.359375 1.21875 -0.5625q0.734375 -0.203125 1.6875 -0.203125q1.09375 0 2.0625 0.359375q0.984375 0.359375 1.671875 0.828125l-0.859375 1.15625q-0.609375 -0.40625 -1.328125 -0.65625q-0.703125 -0.265625 -1.515625 -0.265625q-1.15625 0 -1.625 0.34375q-0.453125 0.328125 -0.453125 0.8125q0 0.515625 0.75 0.859375q0.75 0.328125 1.921875 0.625q1.71875 0.4375 2.640625 1.046875q0.921875 0.59375 0.921875 1.671875q0 0.578125 -0.28125 1.09375q-0.28125 0.5 -0.8125 0.890625q-0.53125 0.375 -1.3125 0.578125q-0.765625 0.21875 -1.78125 0.21875q-1.296875 0 -2.453125 -0.40625q-1.15625 -0.421875 -2.0 -1.0l0.875 -1.203125zm10.287506 -2.15625q0 -1.125 0.390625 -2.0q0.390625 -0.890625 1.03125 -1.515625q0.65625 -0.625 1.5 -0.953125q0.84375 -0.328125 1.734375 -0.328125q1.015625 0 1.78125 0.3125q0.78125 0.3125 1.3125 0.890625q0.546875 0.5625 0.828125 1.359375q0.28125 0.796875 0.28125 1.75q0 0.28125 -0.03125 0.53125q-0.03125 0.25 -0.0625 0.421875l-6.875 0q0.09375 1.328125 1.0 2.09375q0.90625 0.75 2.296875 0.75q0.734375 0 1.375 -0.203125q0.65625 -0.203125 1.265625 -0.578125l0.65625 1.171875q-0.703125 0.453125 -1.59375 0.765625q-0.890625 0.296875 -1.953125 0.296875q-1.03125 0 -1.9375 -0.3125q-0.890625 -0.328125 -1.5625 -0.9375q-0.671875 -0.625 -1.0625 -1.515625q-0.375 -0.890625 -0.375 -2.0zm7.140625 -0.8125q0 -1.21875 -0.640625 -1.875q-0.625 -0.65625 -1.8125 -0.65625q-1.015625 0 -1.828125 0.65625q-0.796875 0.65625 -0.984375 1.875l5.265625 0zm4.475006 -3.765625l1.515625 0l0.140625 1.46875l0.078125 0q0.6875 -0.703125 1.484375 -1.1875q0.8125 -0.5 1.875 -0.5q1.609375 0 2.34375 0.953125q0.75 0.953125 0.75 2.734375l0 5.65625l-1.84375 0l0 -5.40625q0 -1.203125 -0.4375 -1.765625q-0.421875 -0.578125 -1.46875 -0.578125q-0.71875 0 -1.296875 0.375q-0.578125 0.359375 -1.296875 1.09375l0 6.28125l-1.84375 0l0 -9.125zm13.240631 1.5l-2.5 0l0 -1.40625l2.578125 -0.09375l0.25 -2.515625l1.53125 0l0 2.515625l4.296875 0l0 1.5l-4.296875 0l0 4.03125q0 1.171875 0.46875 1.75q0.484375 0.578125 1.734375 0.578125q0.59375 0 1.09375 -0.09375q0.515625 -0.109375 0.984375 -0.296875l0.375 1.359375q-0.609375 0.203125 -1.359375 0.359375q-0.75 0.15625 -1.53125 0.15625q-1.0 0 -1.703125 -0.265625q-0.703125 -0.28125 -1.125 -0.78125q-0.421875 -0.515625 -0.609375 -1.21875q-0.1875 -0.703125 -0.1875 -1.546875l0 -4.03125zm9.131256 -1.5l5.9375 0l0 9.125l-1.859375 0l0 -7.625l-4.078125 0l0 -1.5zm4.84375 -1.734375q-0.59375 0 -0.984375 -0.34375q-0.390625 -0.359375 -0.390625 -0.953125q0 -0.609375 0.390625 -0.96875q0.390625 -0.359375 0.984375 -0.359375q0.609375 0 1.0 0.359375q0.390625 0.359375 0.390625 0.96875q0 0.59375 -0.390625 0.953125q-0.390625 0.34375 -1.0 0.34375zm6.365631 1.734375l1.515625 0l0.140625 1.46875l0.078125 0q0.6875 -0.703125 1.484375 -1.1875q0.8125 -0.5 1.875 -0.5q1.609375 0 2.34375 0.953125q0.75 0.953125 0.75 2.734375l0 5.65625l-1.84375 0l0 -5.40625q0 -1.203125 -0.4375 -1.765625q-0.421875 -0.578125 -1.46875 -0.578125q-0.71875 0 -1.296875 0.375q-0.578125 0.359375 -1.296875 1.09375l0 6.28125l-1.84375 0l0 -9.125zm12.365631 10.546875q0 0.65625 0.71875 1.046875q0.71875 0.40625 2.078125 0.40625q0.734375 0 1.3125 -0.140625q0.59375 -0.140625 1.015625 -0.375q0.421875 -0.234375 0.640625 -0.53125q0.234375 -0.296875 0.234375 -0.640625q0 -0.59375 -0.5 -0.796875q-0.5 -0.1875 -1.484375 -0.1875l-1.609375 0q-0.421875 0 -0.765625 -0.03125q-0.328125 -0.015625 -0.625 -0.109375q-0.5625 0.3125 -0.796875 0.640625q-0.21875 0.34375 -0.21875 0.71875zm-1.5625 0.21875q0 -0.546875 0.375 -1.0625q0.390625 -0.5 1.09375 -0.90625l0 -0.078125q-0.375 -0.203125 -0.65625 -0.5625q-0.265625 -0.375 -0.265625 -0.953125q0 -0.453125 0.28125 -0.90625q0.296875 -0.453125 0.8125 -0.8125l0 -0.078125q-0.484375 -0.34375 -0.828125 -0.9375q-0.328125 -0.59375 -0.328125 -1.40625q0 -0.765625 0.296875 -1.375q0.296875 -0.609375 0.796875 -1.03125q0.515625 -0.4375 1.171875 -0.65625q0.671875 -0.21875 1.40625 -0.21875q0.765625 0 1.390625 0.21875l3.75 0l0 1.40625l-2.28125 0q0.28125 0.296875 0.5 0.734375q0.234375 0.4375 0.234375 0.984375q0 0.734375 -0.28125 1.3125q-0.28125 0.578125 -0.765625 0.984375q-0.484375 0.40625 -1.140625 0.609375q-0.65625 0.203125 -1.40625 0.203125q-0.328125 0 -0.71875 -0.078125q-0.375 -0.078125 -0.75 -0.21875q-0.640625 0.40625 -0.640625 0.953125q0 0.5 0.46875 0.734375q0.46875 0.21875 1.34375 0.21875l1.9375 0q1.796875 0 2.65625 0.515625q0.875 0.5 0.875 1.6875q0 0.640625 -0.375 1.21875q-0.359375 0.578125 -1.03125 1.015625q-0.671875 0.4375 -1.625 0.6875q-0.9375 0.265625 -2.125 0.265625q-1.9375 0 -3.0625 -0.625q-1.109375 -0.625 -1.109375 -1.84375zm4.15625 -5.71875q0.78125 0 1.34375 -0.515625q0.5625 -0.53125 0.5625 -1.46875q0 -0.890625 -0.5625 -1.4375q-0.5625 -0.546875 -1.34375 -0.546875q-0.78125 0 -1.34375 0.546875q-0.5625 0.546875 -0.5625 1.4375q0 0.9375 0.5625 1.46875q0.5625 0.515625 1.34375 0.515625zm20.668732 -3.546875l-2.5 0l0 -1.40625l2.578125 -0.09375l0.25 -2.515625l1.53125 0l0 2.515625l4.296875 0l0 1.5l-4.296875 0l0 4.03125q0 1.171875 0.46875 1.75q0.484375 0.578125 1.734375 0.578125q0.59375 0 1.09375 -0.09375q0.515625 -0.109375 0.984375 -0.296875l0.375 1.359375q-0.609375 0.203125 -1.359375 0.359375q-0.75 0.15625 -1.53125 0.15625q-1.0 0 -1.703125 -0.265625q-0.703125 -0.28125 -1.125 -0.78125q-0.421875 -0.515625 -0.609375 -1.21875q-0.1875 -0.703125 -0.1875 -1.546875l0 -4.03125zm9.146912 -5.609375l1.84375 0l0 3.515625l-0.109375 2.046875q0.6875 -0.703125 1.484375 -1.1875q0.8125 -0.484375 1.875 -0.484375q1.609375 0 2.34375 0.953125q0.75 0.953125 0.75 2.734375l0 5.65625l-1.84375 0l0 -5.40625q0 -1.203125 -0.4375 -1.765625q-0.421875 -0.578125 -1.46875 -0.578125q-0.71875 0 -1.296875 0.375q-0.578125 0.359375 -1.296875 1.09375l0 6.28125l-1.84375 0l0 -13.234375zm10.771851 8.6875q0 -1.125 0.390625 -2.0q0.390625 -0.890625 1.03125 -1.515625q0.65625 -0.625 1.5 -0.953125q0.84375 -0.328125 1.734375 -0.328125q1.015625 0 1.78125 0.3125q0.78125 0.3125 1.3125 0.890625q0.546875 0.5625 0.828125 1.359375q0.28125 0.796875 0.28125 1.75q0 0.28125 -0.03125 0.53125q-0.03125 0.25 -0.0625 0.421875l-6.875 0q0.09375 1.328125 1.0 2.09375q0.90625 0.75 2.296875 0.75q0.734375 0 1.375 -0.203125q0.65625 -0.203125 1.265625 -0.578125l0.65625 1.171875q-0.703125 0.453125 -1.59375 0.765625q-0.890625 0.296875 -1.953125 0.296875q-1.03125 0 -1.9375 -0.3125q-0.890625 -0.328125 -1.5625 -0.9375q-0.671875 -0.625 -1.0625 -1.515625q-0.375 -0.890625 -0.375 -2.0zm7.140625 -0.8125q0 -1.21875 -0.640625 -1.875q-0.625 -0.65625 -1.8125 -0.65625q-1.015625 0 -1.828125 0.65625q-0.796875 0.65625 -0.984375 1.875l5.265625 0zm16.153137 2.96875q0.78125 0.546875 1.640625 0.875q0.859375 0.328125 2.0 0.328125q1.171875 0 1.703125 -0.359375q0.546875 -0.359375 0.546875 -0.890625q0 -0.515625 -0.65625 -0.875q-0.640625 -0.375 -2.15625 -0.75q-0.671875 -0.171875 -1.296875 -0.40625q-0.625 -0.25 -1.09375 -0.578125q-0.46875 -0.328125 -0.75 -0.71875q-0.265625 -0.40625 -0.265625 -0.90625q0 -0.578125 0.25 -1.0625q0.25 -0.5 0.75 -0.84375q0.5 -0.359375 1.21875 -0.5625q0.734375 -0.203125 1.6875 -0.203125q1.09375 0 2.0625 0.359375q0.984375 0.359375 1.671875 0.828125l-0.859375 1.15625q-0.609375 -0.40625 -1.328125 -0.65625q-0.703125 -0.265625 -1.515625 -0.265625q-1.15625 0 -1.625 0.34375q-0.453125 0.328125 -0.453125 0.8125q0 0.515625 0.75 0.859375q0.75 0.328125 1.921875 0.625q1.71875 0.4375 2.640625 1.046875q0.921875 0.59375 0.921875 1.671875q0 0.578125 -0.28125 1.09375q-0.28125 0.5 -0.8125 0.890625q-0.53125 0.375 -1.3125 0.578125q-0.765625 0.21875 -1.78125 0.21875q-1.296875 0 -2.453125 -0.40625q-1.15625 -0.421875 -2.0 -1.0l0.875 -1.203125zm10.287537 -2.15625q0 -1.125 0.390625 -2.0q0.390625 -0.890625 1.03125 -1.515625q0.65625 -0.625 1.5 -0.953125q0.84375 -0.328125 1.734375 -0.328125q1.015625 0 1.78125 0.3125q0.78125 0.3125 1.3125 0.890625q0.546875 0.5625 0.828125 1.359375q0.28125 0.796875 0.28125 1.75q0 0.28125 -0.03125 0.53125q-0.03125 0.25 -0.0625 0.421875l-6.875 0q0.09375 1.328125 1.0 2.09375q0.90625 0.75 2.296875 0.75q0.734375 0 1.375 -0.203125q0.65625 -0.203125 1.265625 -0.578125l0.65625 1.171875q-0.703125 0.453125 -1.59375 0.765625q-0.890625 0.296875 -1.953125 0.296875q-1.03125 0 -1.9375 -0.3125q-0.890625 -0.328125 -1.5625 -0.9375q-0.671875 -0.625 -1.0625 -1.515625q-0.375 -0.890625 -0.375 -2.0zm7.140625 -0.8125q0 -1.21875 -0.640625 -1.875q-0.625 -0.65625 -1.8125 -0.65625q-1.015625 0 -1.828125 0.65625q-0.796875 0.65625 -0.984375 1.875l5.265625 0zm5.6468506 6.78125q0 0.65625 0.71875 1.046875q0.71875 0.40625 2.078125 0.40625q0.734375 0 1.3125 -0.140625q0.59375 -0.140625 1.015625 -0.375q0.421875 -0.234375 0.640625 -0.53125q0.234375 -0.296875 0.234375 -0.640625q0 -0.59375 -0.5 -0.796875q-0.5 -0.1875 -1.484375 -0.1875l-1.609375 0q-0.421875 0 -0.765625 -0.03125q-0.328125 -0.015625 -0.625 -0.109375q-0.5625 0.3125 -0.796875 0.640625q-0.21875 0.34375 -0.21875 0.71875zm-1.5625 0.21875q0 -0.546875 0.375 -1.0625q0.390625 -0.5 1.09375 -0.90625l0 -0.078125q-0.375 -0.203125 -0.65625 -0.5625q-0.265625 -0.375 -0.265625 -0.953125q0 -0.453125 0.28125 -0.90625q0.296875 -0.453125 0.8125 -0.8125l0 -0.078125q-0.484375 -0.34375 -0.828125 -0.9375q-0.328125 -0.59375 -0.328125 -1.40625q0 -0.765625 0.296875 -1.375q0.296875 -0.609375 0.796875 -1.03125q0.515625 -0.4375 1.171875 -0.65625q0.671875 -0.21875 1.40625 -0.21875q0.765625 0 1.390625 0.21875l3.75 0l0 1.40625l-2.28125 0q0.28125 0.296875 0.5 0.734375q0.234375 0.4375 0.234375 0.984375q0 0.734375 -0.28125 1.3125q-0.28125 0.578125 -0.765625 0.984375q-0.484375 0.40625 -1.140625 0.609375q-0.65625 0.203125 -1.40625 0.203125q-0.328125 0 -0.71875 -0.078125q-0.375 -0.078125 -0.75 -0.21875q-0.640625 0.40625 -0.640625 0.953125q0 0.5 0.46875 0.734375q0.46875 0.21875 1.34375 0.21875l1.9375 0q1.796875 0 2.65625 0.515625q0.875 0.5 0.875 1.6875q0 0.640625 -0.375 1.21875q-0.359375 0.578125 -1.03125 1.015625q-0.671875 0.4375 -1.625 0.6875q-0.9375 0.265625 -2.125 0.265625q-1.9375 0 -3.0625 -0.625q-1.109375 -0.625 -1.109375 -1.84375zm4.15625 -5.71875q0.78125 0 1.34375 -0.515625q0.5625 -0.53125 0.5625 -1.46875q0 -0.890625 -0.5625 -1.4375q-0.5625 -0.546875 -1.34375 -0.546875q-0.78125 0 -1.34375 0.546875q-0.5625 0.546875 -0.5625 1.4375q0 0.9375 0.5625 1.46875q0.5625 0.515625 1.34375 0.515625zm6.7874756 -5.046875l1.421875 0l0.15625 1.203125l0.046875 0q0.328125 -0.625 0.78125 -1.015625q0.453125 -0.40625 1.234375 -0.40625q1.359375 0 1.703125 1.546875q0.375 -0.6875 0.859375 -1.109375q0.484375 -0.4375 1.25 -0.4375q0.953125 0 1.46875 0.734375q0.53125 0.734375 0.53125 2.109375l0 6.5l-1.765625 0l0 -6.34375q0 -1.40625 -0.859375 -1.40625q-0.421875 0 -0.75 0.3125q-0.3125 0.3125 -0.625 0.9375l0 6.5l-1.453125 0l0 -6.34375q0 -1.40625 -0.890625 -1.40625q-0.4375 0 -0.734375 0.3125q-0.296875 0.3125 -0.609375 0.9375l0 6.5l-1.765625 0l0 -9.125zm11.412537 4.578125q0 -1.125 0.390625 -2.0q0.390625 -0.890625 1.03125 -1.515625q0.65625 -0.625 1.5 -0.953125q0.84375 -0.328125 1.734375 -0.328125q1.015625 0 1.78125 0.3125q0.78125 0.3125 1.3125 0.890625q0.546875 0.5625 0.828125 1.359375q0.28125 0.796875 0.28125 1.75q0 0.28125 -0.03125 0.53125q-0.03125 0.25 -0.0625 0.421875l-6.875 0q0.09375 1.328125 1.0 2.09375q0.90625 0.75 2.296875 0.75q0.734375 0 1.375 -0.203125q0.65625 -0.203125 1.265625 -0.578125l0.65625 1.171875q-0.703125 0.453125 -1.59375 0.765625q-0.890625 0.296875 -1.953125 0.296875q-1.03125 0 -1.9375 -0.3125q-0.890625 -0.328125 -1.5625 -0.9375q-0.671875 -0.625 -1.0625 -1.515625q-0.375 -0.890625 -0.375 -2.0zm7.140625 -0.8125q0 -1.21875 -0.640625 -1.875q-0.625 -0.65625 -1.8125 -0.65625q-1.015625 0 -1.828125 0.65625q-0.796875 0.65625 -0.984375 1.875l5.265625 0zm4.4750366 -3.765625l1.515625 0l0.140625 1.46875l0.078125 0q0.6875 -0.703125 1.484375 -1.1875q0.8125 -0.5 1.875 -0.5q1.609375 0 2.34375 0.953125q0.75 0.953125 0.75 2.734375l0 5.65625l-1.84375 0l0 -5.40625q0 -1.203125 -0.4375 -1.765625q-0.421875 -0.578125 -1.46875 -0.578125q-0.71875 0 -1.296875 0.375q-0.578125 0.359375 -1.296875 1.09375l0 6.28125l-1.84375 0l0 -9.125zm13.240601 1.5l-2.5 0l0 -1.40625l2.578125 -0.09375l0.25 -2.515625l1.53125 0l0 2.515625l4.296875 0l0 1.5l-4.296875 0l0 4.03125q0 1.171875 0.46875 1.75q0.484375 0.578125 1.734375 0.578125q0.59375 0 1.09375 -0.09375q0.515625 -0.109375 0.984375 -0.296875l0.375 1.359375q-0.609375 0.203125 -1.359375 0.359375q-0.75 0.15625 -1.53125 0.15625q-1.0 0 -1.703125 -0.265625q-0.703125 -0.28125 -1.125 -0.78125q-0.421875 -0.515625 -0.609375 -1.21875q-0.1875 -0.703125 -0.1875 -1.546875l0 -4.03125zm23.856262 -4.359375q-0.890625 0.484375 -1.390625 1.1875q-0.5 0.703125 -0.5625 1.65625q0.25 -0.09375 0.453125 -0.09375q0.625 0 1.015625 0.40625q0.40625 0.390625 0.40625 1.03125q0 0.703125 -0.421875 1.140625q-0.40625 0.421875 -1.0625 0.421875q-0.8125 0 -1.3125 -0.640625q-0.5 -0.640625 -0.5 -1.796875q0 -1.4375 0.734375 -2.546875q0.75 -1.125 2.09375 -1.796875l0.546875 1.03125zm4.0 0q-0.890625 0.484375 -1.390625 1.1875q-0.5 0.703125 -0.5625 1.65625q0.25 -0.09375 0.453125 -0.09375q0.625 0 1.015625 0.40625q0.40625 0.390625 0.40625 1.03125q0 0.703125 -0.421875 1.140625q-0.40625 0.421875 -1.0625 0.421875q-0.8125 0 -1.3125 -0.640625q-0.5 -0.640625 -0.5 -1.796875q0 -1.4375 0.734375 -2.546875q0.75 -1.125 2.09375 -1.796875l0.546875 1.03125zm3.8656616 -0.234375l3.46875 0q0.9375 0 1.71875 0.15625q0.78125 0.15625 1.34375 0.515625q0.578125 0.359375 0.890625 0.9375q0.328125 0.578125 0.328125 1.390625q0 0.890625 -0.53125 1.640625q-0.515625 0.734375 -1.609375 1.015625l0 0.0625q1.34375 0.234375 2.0625 0.953125q0.71875 0.71875 0.71875 1.96875q0 0.90625 -0.34375 1.578125q-0.34375 0.671875 -0.96875 1.125q-0.609375 0.453125 -1.453125 0.671875q-0.84375 0.203125 -1.859375 0.203125l-3.765625 0l0 -12.21875zm3.25 5.125q1.421875 0 2.046875 -0.484375q0.625 -0.5 0.625 -1.453125q0 -0.90625 -0.65625 -1.3125q-0.65625 -0.421875 -1.96875 -0.421875l-1.4375 0l0 3.671875l1.390625 0zm0.296875 5.625q1.453125 0 2.234375 -0.546875q0.78125 -0.546875 0.78125 -1.671875q0 -1.0625 -0.765625 -1.546875q-0.765625 -0.5 -2.25 -0.5l-1.6875 0l0 4.265625l1.6875 0zm7.7874756 -5.8125q0.90625 -0.484375 1.40625 -1.1875q0.515625 -0.703125 0.578125 -1.65625q-0.25 0.09375 -0.453125 0.09375q-0.625 0 -1.03125 -0.390625q-0.390625 -0.40625 -0.390625 -1.046875q0 -0.6875 0.40625 -1.109375q0.421875 -0.4375 1.078125 -0.4375q0.8125 0 1.3125 0.640625q0.5 0.625 0.5 1.796875q0 1.4375 -0.75 2.5625q-0.734375 1.109375 -2.078125 1.78125l-0.578125 -1.046875zm4.0 0q0.90625 -0.484375 1.40625 -1.1875q0.515625 -0.703125 0.578125 -1.65625q-0.25 0.09375 -0.453125 0.09375q-0.625 0 -1.03125 -0.390625q-0.390625 -0.40625 -0.390625 -1.046875q0 -0.6875 0.40625 -1.109375q0.421875 -0.4375 1.078125 -0.4375q0.8125 0 1.3125 0.640625q0.5 0.625 0.5 1.796875q0 1.4375 -0.75 2.5625q-0.734375 1.109375 -2.078125 1.78125l-0.578125 -1.046875z" fill-rule="nonzero"/><path fill="#000000" fill-opacity="0.0" d="m36.40945 226.11838l887.18115 0l0 44.75592l-887.18115 0z" fill-rule="evenodd"/><path fill="#000000" d="m319.94052 250.179q0.71875 0.65625 1.59375 1.0625q0.890625 0.390625 1.84375 0.390625q1.21875 0 1.859375 -0.484375q0.640625 -0.484375 0.640625 -1.296875q0 -0.40625 -0.15625 -0.703125q-0.15625 -0.3125 -0.4375 -0.515625q-0.28125 -0.21875 -0.671875 -0.390625q-0.390625 -0.171875 -0.859375 -0.359375l-1.71875 -0.75q-0.46875 -0.1875 -0.9375 -0.453125q-0.453125 -0.28125 -0.828125 -0.65625q-0.375 -0.390625 -0.609375 -0.90625q-0.234375 -0.515625 -0.234375 -1.1875q0 -0.703125 0.296875 -1.3125q0.296875 -0.625 0.84375 -1.0625q0.5625 -0.453125 1.3125 -0.703125q0.75 -0.25 1.671875 -0.25q1.140625 0 2.125 0.40625q0.984375 0.40625 1.703125 1.125l-0.96875 1.1875q-0.609375 -0.53125 -1.296875 -0.8125q-0.6875 -0.296875 -1.5625 -0.296875q-1.046875 0 -1.640625 0.4375q-0.59375 0.421875 -0.59375 1.171875q0 0.40625 0.171875 0.6875q0.171875 0.28125 0.46875 0.5q0.3125 0.21875 0.6875 0.375q0.375 0.15625 0.796875 0.328125l1.65625 0.71875q0.578125 0.234375 1.0625 0.53125q0.484375 0.28125 0.84375 0.671875q0.375 0.375 0.578125 0.890625q0.203125 0.5 0.203125 1.171875q0 0.734375 -0.296875 1.390625q-0.296875 0.640625 -0.875 1.140625q-0.578125 0.484375 -1.40625 0.765625q-0.8125 0.265625 -1.859375 0.265625q-1.328125 0 -2.46875 -0.46875q-1.140625 -0.484375 -2.015625 -1.328125l1.078125 -1.28125zm10.162506 -1.6875q0 -1.125 0.390625 -2.0q0.390625 -0.890625 1.03125 -1.515625q0.65625 -0.625 1.5 -0.953125q0.84375 -0.328125 1.734375 -0.328125q1.015625 0 1.78125 0.3125q0.78125 0.3125 1.3125 0.890625q0.546875 0.5625 0.828125 1.359375q0.28125 0.796875 0.28125 1.75q0 0.28125 -0.03125 0.53125q-0.03125 0.25 -0.0625 0.421875l-6.875 0q0.09375 1.328125 1.0 2.09375q0.90625 0.75 2.296875 0.75q0.734375 0 1.375 -0.203125q0.65625 -0.203125 1.265625 -0.578125l0.65625 1.171875q-0.703125 0.453125 -1.59375 0.765625q-0.890625 0.296875 -1.953125 0.296875q-1.03125 0 -1.9375 -0.3125q-0.890625 -0.328125 -1.5625 -0.9375q-0.671875 -0.625 -1.0625 -1.515625q-0.375 -0.890625 -0.375 -2.0zm7.140625 -0.8125q0 -1.21875 -0.640625 -1.875q-0.625 -0.65625 -1.8125 -0.65625q-1.015625 0 -1.828125 0.65625q-0.796875 0.65625 -0.984375 1.875l5.265625 0zm5.646881 6.78125q0 0.65625 0.71875 1.046875q0.71875 0.40625 2.078125 0.40625q0.734375 0 1.3125 -0.140625q0.59375 -0.140625 1.015625 -0.375q0.421875 -0.234375 0.640625 -0.53125q0.234375 -0.296875 0.234375 -0.640625q0 -0.59375 -0.5 -0.796875q-0.5 -0.1875 -1.484375 -0.1875l-1.609375 0q-0.421875 0 -0.765625 -0.03125q-0.328125 -0.015625 -0.625 -0.109375q-0.5625 0.3125 -0.796875 0.640625q-0.21875 0.34375 -0.21875 0.71875zm-1.5625 0.21875q0 -0.546875 0.375 -1.0625q0.390625 -0.5 1.09375 -0.90625l0 -0.078125q-0.375 -0.203125 -0.65625 -0.5625q-0.265625 -0.375 -0.265625 -0.953125q0 -0.453125 0.28125 -0.90625q0.296875 -0.453125 0.8125 -0.8125l0 -0.078125q-0.484375 -0.34375 -0.828125 -0.9375q-0.328125 -0.59375 -0.328125 -1.40625q0 -0.765625 0.296875 -1.375q0.296875 -0.609375 0.796875 -1.03125q0.515625 -0.4375 1.171875 -0.65625q0.671875 -0.21875 1.40625 -0.21875q0.765625 0 1.390625 0.21875l3.75 0l0 1.40625l-2.28125 0q0.28125 0.296875 0.5 0.734375q0.234375 0.4375 0.234375 0.984375q0 0.734375 -0.28125 1.3125q-0.28125 0.578125 -0.765625 0.984375q-0.484375 0.40625 -1.140625 0.609375q-0.65625 0.203125 -1.40625 0.203125q-0.328125 0 -0.71875 -0.078125q-0.375 -0.078125 -0.75 -0.21875q-0.640625 0.40625 -0.640625 0.953125q0 0.5 0.46875 0.734375q0.46875 0.21875 1.34375 0.21875l1.9375 0q1.796875 0 2.65625 0.515625q0.875 0.5 0.875 1.6875q0 0.640625 -0.375 1.21875q-0.359375 0.578125 -1.03125 1.0156403q-0.671875 0.4375 -1.625 0.6875q-0.9375 0.265625 -2.125 0.265625q-1.9375 0 -3.0625 -0.625q-1.109375 -0.62501526 -1.109375 -1.8437653zm4.15625 -5.71875q0.78125 0 1.34375 -0.515625q0.5625 -0.53125 0.5625 -1.46875q0 -0.890625 -0.5625 -1.4375q-0.5625 -0.546875 -1.34375 -0.546875q-0.78125 0 -1.34375 0.546875q-0.5625 0.546875 -0.5625 1.4375q0 0.9375 0.5625 1.46875q0.5625 0.515625 1.34375 0.515625zm6.787506 -5.046875l1.421875 0l0.15625 1.203125l0.046875 0q0.328125 -0.625 0.78125 -1.015625q0.453125 -0.40625 1.234375 -0.40625q1.359375 0 1.703125 1.546875q0.375 -0.6875 0.859375 -1.109375q0.484375 -0.4375 1.25 -0.4375q0.953125 0 1.46875 0.734375q0.53125 0.734375 0.53125 2.109375l0 6.5l-1.765625 0l0 -6.34375q0 -1.40625 -0.859375 -1.40625q-0.421875 0 -0.75 0.3125q-0.3125 0.3125 -0.625 0.9375l0 6.5l-1.453125 0l0 -6.34375q0 -1.40625 -0.890625 -1.40625q-0.4375 0 -0.734375 0.3125q-0.296875 0.3125 -0.609375 0.9375l0 6.5l-1.765625 0l0 -9.125zm11.412506 4.578125q0 -1.125 0.390625 -2.0q0.390625 -0.890625 1.03125 -1.515625q0.65625 -0.625 1.5 -0.953125q0.84375 -0.328125 1.734375 -0.328125q1.015625 0 1.78125 0.3125q0.78125 0.3125 1.3125 0.890625q0.546875 0.5625 0.828125 1.359375q0.28125 0.796875 0.28125 1.75q0 0.28125 -0.03125 0.53125q-0.03125 0.25 -0.0625 0.421875l-6.875 0q0.09375 1.328125 1.0 2.09375q0.90625 0.75 2.296875 0.75q0.734375 0 1.375 -0.203125q0.65625 -0.203125 1.265625 -0.578125l0.65625 1.171875q-0.703125 0.453125 -1.59375 0.765625q-0.890625 0.296875 -1.953125 0.296875q-1.03125 0 -1.9375 -0.3125q-0.890625 -0.328125 -1.5625 -0.9375q-0.671875 -0.625 -1.0625 -1.515625q-0.375 -0.890625 -0.375 -2.0zm7.140625 -0.8125q0 -1.21875 -0.640625 -1.875q-0.625 -0.65625 -1.8125 -0.65625q-1.015625 0 -1.828125 0.65625q-0.796875 0.65625 -0.984375 1.875l5.265625 0zm4.475006 -3.765625l1.515625 0l0.140625 1.46875l0.078125 0q0.6875 -0.703125 1.484375 -1.1875q0.8125 -0.5 1.875 -0.5q1.609375 0 2.34375 0.953125q0.75 0.953125 0.75 2.734375l0 5.65625l-1.84375 0l0 -5.40625q0 -1.203125 -0.4375 -1.765625q-0.421875 -0.578125 -1.46875 -0.578125q-0.71875 0 -1.296875 0.375q-0.578125 0.359375 -1.296875 1.09375l0 6.28125l-1.84375 0l0 -9.125zm13.240631 1.5l-2.5 0l0 -1.40625l2.578125 -0.09375l0.25 -2.515625l1.53125 0l0 2.515625l4.296875 0l0 1.5l-4.296875 0l0 4.03125q0 1.171875 0.46875 1.75q0.484375 0.578125 1.734375 0.578125q0.59375 0 1.09375 -0.09375q0.515625 -0.109375 0.984375 -0.296875l0.375 1.359375q-0.609375 0.203125 -1.359375 0.359375q-0.75 0.15625 -1.53125 0.15625q-1.0 0 -1.703125 -0.265625q-0.703125 -0.28125 -1.125 -0.78125q-0.421875 -0.515625 -0.609375 -1.21875q-0.1875 -0.703125 -0.1875 -1.546875l0 -4.03125zm22.184387 8.375l0 2.9843903l-1.84375 0l0 -12.85939l1.515625 0l0.140625 1.125l0.0625 0q0.609375 -0.59375 1.40625 -0.96875q0.8125 -0.375 1.640625 -0.375q0.890625 0 1.578125 0.328125q0.703125 0.328125 1.171875 0.9375q0.484375 0.59375 0.734375 1.453125q0.265625 0.859375 0.265625 1.921875q0 1.171875 -0.34375 2.09375q-0.328125 0.90625 -0.90625 1.53125q-0.5625 0.625 -1.3125 0.96875q-0.75 0.328125 -1.546875 0.328125q-0.640625 0 -1.328125 -0.28125q-0.6875 -0.296875 -1.28125 -0.828125l0.046875 1.640625zm0 -3.0q0.578125 0.515625 1.171875 0.734375q0.609375 0.203125 1.03125 0.203125q1.109375 0 1.828125 -0.859375q0.734375 -0.875 0.734375 -2.515625q0 -1.4375 -0.5625 -2.265625q-0.5625 -0.84375 -1.796875 -0.84375q-0.5625 0 -1.171875 0.296875q-0.609375 0.28125 -1.234375 0.9375l0 4.3125zm8.756256 -2.296875q0 -1.140625 0.375 -2.03125q0.375 -0.90625 1.0 -1.515625q0.640625 -0.625 1.453125 -0.9375q0.828125 -0.3125 1.71875 -0.3125q0.90625 0 1.71875 0.3125q0.828125 0.3125 1.453125 0.9375q0.640625 0.609375 1.015625 1.515625q0.375 0.890625 0.375 2.03125q0 1.125 -0.375 2.015625q-0.375 0.890625 -1.015625 1.515625q-0.625 0.609375 -1.453125 0.921875q-0.8125 0.3125 -1.71875 0.3125q-0.890625 0 -1.71875 -0.3125q-0.8125 -0.3125 -1.453125 -0.921875q-0.625 -0.625 -1.0 -1.515625q-0.375 -0.890625 -0.375 -2.015625zm1.90625 0q0 1.46875 0.703125 2.375q0.703125 0.890625 1.9375 0.890625q1.234375 0 1.9375 -0.890625q0.71875 -0.90625 0.71875 -2.375q0 -1.484375 -0.71875 -2.375q-0.703125 -0.890625 -1.9375 -0.890625q-1.234375 0 -1.9375 0.890625q-0.703125 0.890625 -0.703125 2.375zm10.365631 2.15625q0.78125 0.546875 1.640625 0.875q0.859375 0.328125 2.0 0.328125q1.171875 0 1.703125 -0.359375q0.546875 -0.359375 0.546875 -0.890625q0 -0.515625 -0.65625 -0.875q-0.640625 -0.375 -2.15625 -0.75q-0.671875 -0.171875 -1.296875 -0.40625q-0.625 -0.25 -1.09375 -0.578125q-0.46875 -0.328125 -0.75 -0.71875q-0.265625 -0.40625 -0.265625 -0.90625q0 -0.578125 0.25 -1.0625q0.25 -0.5 0.75 -0.84375q0.5 -0.359375 1.21875 -0.5625q0.734375 -0.203125 1.6875 -0.203125q1.09375 0 2.0625 0.359375q0.984375 0.359375 1.671875 0.828125l-0.859375 1.15625q-0.609375 -0.40625 -1.328125 -0.65625q-0.703125 -0.265625 -1.515625 -0.265625q-1.15625 0 -1.625 0.34375q-0.453125 0.328125 -0.453125 0.8125q0 0.515625 0.75 0.859375q0.75 0.328125 1.921875 0.625q1.71875 0.4375 2.640625 1.046875q0.921875 0.59375 0.921875 1.671875q0 0.578125 -0.28125 1.09375q-0.28125 0.5 -0.8125 0.890625q-0.53125 0.375 -1.3125 0.578125q-0.765625 0.21875 -1.78125 0.21875q-1.296875 0 -2.453125 -0.40625q-1.15625 -0.421875 -2.0 -1.0l0.875 -1.203125zm10.693756 -6.734375l5.9375 0l0 9.125l-1.859375 0l0 -7.625l-4.078125 0l0 -1.5zm4.84375 -1.734375q-0.59375 0 -0.984375 -0.34375q-0.390625 -0.359375 -0.390625 -0.953125q0 -0.609375 0.390625 -0.96875q0.390625 -0.359375 0.984375 -0.359375q0.609375 0 1.0 0.359375q0.390625 0.359375 0.390625 0.96875q0 0.59375 -0.390625 0.953125q-0.390625 0.34375 -1.0 0.34375zm8.412506 3.234375l-2.5 0l0 -1.40625l2.578125 -0.09375l0.25 -2.515625l1.53125 0l0 2.515625l4.296875 0l0 1.5l-4.296875 0l0 4.03125q0 1.171875 0.46875 1.75q0.484375 0.578125 1.734375 0.578125q0.59375 0 1.09375 -0.09375q0.515625 -0.109375 0.984375 -0.296875l0.375 1.359375q-0.609375 0.203125 -1.359375 0.359375q-0.75 0.15625 -1.53125 0.15625q-1.0 0 -1.703125 -0.265625q-0.703125 -0.28125 -1.125 -0.78125q-0.421875 -0.515625 -0.609375 -1.21875q-0.1875 -0.703125 -0.1875 -1.546875l0 -4.03125zm9.131256 -1.5l5.9375 0l0 9.125l-1.859375 0l0 -7.625l-4.078125 0l0 -1.5zm4.84375 -1.734375q-0.59375 0 -0.984375 -0.34375q-0.390625 -0.359375 -0.390625 -0.953125q0 -0.609375 0.390625 -0.96875q0.390625 -0.359375 0.984375 -0.359375q0.609375 0 1.0 0.359375q0.390625 0.359375 0.390625 0.96875q0 0.59375 -0.390625 0.953125q-0.390625 0.34375 -1.0 0.34375zm5.771881 6.3125q0 -1.140625 0.375 -2.03125q0.375 -0.90625 1.0 -1.515625q0.640625 -0.625 1.453125 -0.9375q0.828125 -0.3125 1.71875 -0.3125q0.90625 0 1.71875 0.3125q0.828125 0.3125 1.453125 0.9375q0.640625 0.609375 1.015625 1.515625q0.375 0.890625 0.375 2.03125q0 1.125 -0.375 2.015625q-0.375 0.890625 -1.015625 1.515625q-0.625 0.609375 -1.453125 0.921875q-0.8125 0.3125 -1.71875 0.3125q-0.890625 0 -1.71875 -0.3125q-0.8125 -0.3125 -1.453125 -0.921875q-0.625 -0.625 -1.0 -1.515625q-0.375 -0.890625 -0.375 -2.015625zm1.90625 0q0 1.46875 0.703125 2.375q0.703125 0.890625 1.9375 0.890625q1.234375 0 1.9375 -0.890625q0.71875 -0.90625 0.71875 -2.375q0 -1.484375 -0.71875 -2.375q-0.703125 -0.890625 -1.9375 -0.890625q-1.234375 0 -1.9375 0.890625q-0.703125 0.890625 -0.703125 2.375zm9.881256 -4.578125l1.515625 0l0.140625 1.46875l0.078125 0q0.6875 -0.703125 1.484375 -1.1875q0.8125 -0.5 1.875 -0.5q1.609375 0 2.34375 0.953125q0.75 0.953125 0.75 2.734375l0 5.65625l-1.84375 0l0 -5.40625q0 -1.203125 -0.4375 -1.765625q-0.421875 -0.578125 -1.46875 -0.578125q-0.71875 0 -1.296875 0.375q-0.578125 0.359375 -1.296875 1.09375l0 6.28125l-1.84375 0l0 -9.125zm22.371887 0l5.9375 0l0 9.125l-1.859375 0l0 -7.625l-4.078125 0l0 -1.5zm4.84375 -1.734375q-0.59375 0 -0.984375 -0.34375q-0.390625 -0.359375 -0.390625 -0.953125q0 -0.609375 0.390625 -0.96875q0.390625 -0.359375 0.984375 -0.359375q0.609375 0 1.0 0.359375q0.390625 0.359375 0.390625 0.96875q0 0.59375 -0.390625 0.953125q-0.390625 0.34375 -1.0 0.34375zm6.3656006 1.734375l1.515625 0l0.140625 1.46875l0.078125 0q0.6875 -0.703125 1.484375 -1.1875q0.8125 -0.5 1.875 -0.5q1.609375 0 2.34375 0.953125q0.75 0.953125 0.75 2.734375l0 5.65625l-1.84375 0l0 -5.40625q0 -1.203125 -0.4375 -1.765625q-0.421875 -0.578125 -1.46875 -0.578125q-0.71875 0 -1.296875 0.375q-0.578125 0.359375 -1.296875 1.09375l0 6.28125l-1.84375 0l0 -9.125zm22.387512 -4.109375l1.84375 0l0 3.515625l-0.046875 1.671875q0.609375 -0.59375 1.375 -0.9375q0.78125 -0.359375 1.5625 -0.359375q0.90625 0 1.609375 0.328125q0.703125 0.328125 1.171875 0.9375q0.484375 0.59375 0.734375 1.453125q0.265625 0.859375 0.265625 1.921875q0 1.171875 -0.34375 2.09375q-0.328125 0.90625 -0.90625 1.53125q-0.5625 0.625 -1.3125 0.96875q-0.734375 0.328125 -1.53125 0.328125q-0.65625 0 -1.390625 -0.3125q-0.734375 -0.3125 -1.34375 -0.90625l-0.0625 0l-0.171875 1.0l-1.453125 0l0 -13.234375zm1.84375 10.984375q0.578125 0.515625 1.171875 0.734375q0.609375 0.203125 1.046875 0.203125q1.09375 0 1.8125 -0.859375q0.734375 -0.875 0.734375 -2.515625q0 -1.4375 -0.5625 -2.265625q-0.5625 -0.84375 -1.796875 -0.84375q-0.5625 0 -1.171875 0.296875q-0.609375 0.28125 -1.234375 0.9375l0 4.3125zm9.334412 -6.875l5.9375 0l0 9.125l-1.859375 0l0 -7.625l-4.078125 0l0 -1.5zm4.84375 -1.734375q-0.59375 0 -0.984375 -0.34375q-0.390625 -0.359375 -0.390625 -0.953125q0 -0.609375 0.390625 -0.96875q0.390625 -0.359375 0.984375 -0.359375q0.609375 0 1.0 0.359375q0.390625 0.359375 0.390625 0.96875q0 0.59375 -0.390625 0.953125q-0.390625 0.34375 -1.0 0.34375zm8.412476 3.234375l-2.5 0l0 -1.40625l2.578125 -0.09375l0.25 -2.515625l1.53125 0l0 2.515625l4.296875 0l0 1.5l-4.296875 0l0 4.03125q0 1.171875 0.46875 1.75q0.484375 0.578125 1.734375 0.578125q0.59375 0 1.09375 -0.09375q0.515625 -0.109375 0.984375 -0.296875l0.375 1.359375q-0.609375 0.203125 -1.359375 0.359375q-0.75 0.15625 -1.53125 0.15625q-1.0 0 -1.703125 -0.265625q-0.703125 -0.28125 -1.125 -0.78125q-0.421875 -0.515625 -0.609375 -1.21875q-0.1875 -0.703125 -0.1875 -1.546875l0 -4.03125zm20.121887 5.21875q0 -0.765625 0.359375 -1.34375q0.359375 -0.578125 1.125 -0.984375q0.78125 -0.421875 2.0 -0.671875q1.234375 -0.265625 2.953125 -0.390625q-0.046875 -0.84375 -0.5625 -1.4375q-0.5 -0.59375 -1.71875 -0.59375q-0.84375 0 -1.640625 0.3125q-0.78125 0.3125 -1.453125 0.703125l-0.6875 -1.25q0.375 -0.21875 0.828125 -0.453125q0.46875 -0.234375 1.0 -0.421875q0.53125 -0.1875 1.09375 -0.296875q0.578125 -0.109375 1.171875 -0.109375q1.90625 0 2.859375 1.03125q0.953125 1.015625 0.953125 2.828125l0 5.484375l-1.515625 0l-0.140625 -1.171875l-0.0625 0q-0.734375 0.5625 -1.640625 0.984375q-0.890625 0.40625 -1.84375 0.40625q-0.65625 0 -1.234375 -0.1875q-0.5625 -0.1875 -0.96875 -0.53125q-0.40625 -0.34375 -0.640625 -0.828125q-0.234375 -0.484375 -0.234375 -1.078125zm1.78125 -0.125q0 0.6875 0.53125 0.984375q0.53125 0.296875 1.28125 0.296875q0.734375 0 1.421875 -0.3125q0.703125 -0.328125 1.421875 -0.90625l0 -2.15625q-1.34375 0.109375 -2.25 0.296875q-0.890625 0.171875 -1.421875 0.4375q-0.53125 0.265625 -0.765625 0.609375q-0.21875 0.328125 -0.21875 0.75zm10.568787 -6.59375l1.53125 0l0.140625 2.125l0.0625 0q0.703125 -1.109375 1.71875 -1.71875q1.015625 -0.625 2.25 -0.625q0.546875 0 0.953125 0.09375q0.40625 0.078125 0.84375 0.28125l-0.421875 1.578125q-0.453125 -0.140625 -0.796875 -0.21875q-0.328125 -0.078125 -0.859375 -0.078125q-0.984375 0 -1.90625 0.5625q-0.90625 0.5625 -1.671875 1.9375l0 5.1875l-1.84375 0l0 -9.125zm11.193726 0l1.53125 0l0.140625 2.125l0.0625 0q0.703125 -1.109375 1.71875 -1.71875q1.015625 -0.625 2.25 -0.625q0.546875 0 0.953125 0.09375q0.40625 0.078125 0.84375 0.28125l-0.421875 1.578125q-0.453125 -0.140625 -0.796875 -0.21875q-0.328125 -0.078125 -0.859375 -0.078125q-0.984375 0 -1.90625 0.5625q-0.90625 0.5625 -1.671875 1.9375l0 5.1875l-1.84375 0l0 -9.125zm10.037476 6.71875q0 -0.765625 0.359375 -1.34375q0.359375 -0.578125 1.125 -0.984375q0.78125 -0.421875 2.0 -0.671875q1.234375 -0.265625 2.953125 -0.390625q-0.046875 -0.84375 -0.5625 -1.4375q-0.5 -0.59375 -1.71875 -0.59375q-0.84375 0 -1.640625 0.3125q-0.78125 0.3125 -1.453125 0.703125l-0.6875 -1.25q0.375 -0.21875 0.828125 -0.453125q0.46875 -0.234375 1.0 -0.421875q0.53125 -0.1875 1.09375 -0.296875q0.578125 -0.109375 1.171875 -0.109375q1.90625 0 2.859375 1.03125q0.953125 1.015625 0.953125 2.828125l0 5.484375l-1.515625 0l-0.140625 -1.171875l-0.0625 0q-0.734375 0.5625 -1.640625 0.984375q-0.890625 0.40625 -1.84375 0.40625q-0.65625 0 -1.234375 -0.1875q-0.5625 -0.1875 -0.96875 -0.53125q-0.40625 -0.34375 -0.640625 -0.828125q-0.234375 -0.484375 -0.234375 -1.078125zm1.78125 -0.125q0 0.6875 0.53125 0.984375q0.53125 0.296875 1.28125 0.296875q0.734375 0 1.421875 -0.3125q0.703125 -0.328125 1.421875 -0.90625l0 -2.15625q-1.34375 0.109375 -2.25 0.296875q-0.890625 0.171875 -1.421875 0.4375q-0.53125 0.265625 -0.765625 0.609375q-0.21875 0.328125 -0.21875 0.75zm9.615662 4.734375q0.171875 0.046875 0.375 0.078125q0.203125 0.046875 0.40625 0.046875q0.921875 0 1.46875 -0.5q0.5625 -0.484375 0.875 -1.25l0.25 -0.640625l-4.15625 -9.0625l1.84375 0l2.046875 4.765625q0.265625 0.609375 0.515625 1.296875q0.265625 0.6875 0.546875 1.359375l0.078125 0q0.21875 -0.640625 0.453125 -1.328125q0.25 -0.703125 0.484375 -1.328125l1.8125 -4.765625l1.75 0l-3.90625 9.703125q-0.28125 0.734375 -0.640625 1.328125q-0.34375 0.59375 -0.828125 1.015625q-0.46875 0.43751526 -1.09375 0.67189026q-0.609375 0.234375 -1.40625 0.234375q-0.328125 0 -0.65625 -0.046875q-0.328125 -0.046875 -0.59375 -0.140625l0.375 -1.4375153l0 0z" fill-rule="nonzero"/></g></svg>