<svg version="1.1" viewBox="0.0 0.0 1110.9658792650919 500.66141732283467" fill="none" stroke="none" stroke-linecap="square" stroke-miterlimit="10" xmlns:xlink="http://www.w3.org/1999/xlink" xmlns="http://www.w3.org/2000/svg"><clipPath id="p.0"><path d="m0 0l1110.9658 0l0 500.6614l-1110.9658 0l0 -500.6614z" clip-rule="nonzero"/></clipPath><g clip-path="url(#p.0)"><path fill="#000000" fill-opacity="0.0" d="m0 0l1110.9658 0l0 500.6614l-1110.9658 0z" fill-rule="evenodd"/><path fill="#000000" fill-opacity="0.0" d="m39.61811 265.84384l145.95276 0l0 145.95276l-145.95276 0z" fill-rule="evenodd"/><path stroke="#000000" stroke-width="1.0" stroke-linejoin="round" stroke-linecap="butt" d="m39.61811 265.84384l145.95276 0l0 145.95276l-145.95276 0z" fill-rule="evenodd"/><path fill="#000000" d="m93.557045 331.71957l3.53125 0l0 12.671875l6.96875 0l0 2.96875l-10.5 0l0 -15.640625zm19.040588 15.921875q-1.390625 0 -2.5625 -0.5625q-1.15625 -0.5625 -1.984375 -1.609375q-0.828125 -1.0625 -1.296875 -2.5625q-0.453125 -1.515625 -0.453125 -3.4375q0 -1.921875 0.453125 -3.421875q0.46875 -1.5 1.296875 -2.515625q0.828125 -1.03125 1.984375 -1.5625q1.171875 -0.546875 2.5625 -0.546875q1.390625 0 2.546875 0.546875q1.171875 0.53125 2.0 1.5625q0.828125 1.03125 1.28125 2.53125q0.453125 1.5 0.453125 3.40625q0 1.921875 -0.453125 3.4375q-0.453125 1.5 -1.28125 2.5625q-0.828125 1.046875 -2.0 1.609375q-1.15625 0.5625 -2.546875 0.5625zm0 -3.046875q1.21875 0 1.9375 -1.375q0.71875 -1.375 0.71875 -3.75q0 -2.359375 -0.71875 -3.671875q-0.71875 -1.328125 -1.9375 -1.328125q-1.234375 0 -1.953125 1.328125q-0.71875 1.3125 -0.71875 3.671875q0 2.375 0.71875 3.75q0.71875 1.375 1.953125 1.375zm7.2905884 -12.875l3.609375 0l0.5 8.328125q0.015625 1.0 0.03125 1.984375q0.03125 0.984375 0.0625 1.984375l0.078125 0q0.1875 -1.0 0.40625 -1.984375q0.234375 -0.984375 0.421875 -1.984375l1.078125 -4.34375l2.1406174 0l1.03125 4.34375q0.1875 0.953125 0.40625 1.96875q0.21875 1.0 0.40625 2.0l0.109375 0q0.046875 -1.0 0.046875 -2.0q0.015625 -1.0 0.0625 -1.96875l0.453125 -8.328125l3.359375 0l-1.9375 15.640625l-3.703125 0l-0.9687424 -4.921875q-0.15625 -0.734375 -0.28125 -1.515625q-0.109375 -0.78125 -0.15625 -1.484375l-0.078125 0q-0.0625 0.703125 -0.171875 1.484375q-0.109375 0.78125 -0.25 1.515625l-0.9375 4.921875l-3.625 0l-2.09375 -15.640625z" fill-rule="nonzero"/><path fill="#000000" fill-opacity="0.0" d="m185.57086 265.84384l145.95276 0l0 145.95276l-145.95276 0z" fill-rule="evenodd"/><path stroke="#000000" stroke-width="1.0" stroke-linejoin="round" stroke-linecap="butt" d="m185.57086 265.84384l145.95276 0l0 145.95276l-145.95276 0z" fill-rule="evenodd"/><path fill="#000000" d="m231.27856 331.71957l3.53125 0l0 6.015625l4.28125 0l0 -6.015625l3.515625 0l0 15.640625l-3.515625 0l0 -6.53125l-4.28125 0l0 6.53125l-3.53125 0l0 -15.640625zm14.649963 12.671875l3.640625 0l0 -9.703125l-3.640625 0l0 -2.96875l10.84375 0l0 2.96875l-3.65625 0l0 9.703125l3.65625 0l0 2.96875l-10.84375 0l0 -2.96875zm13.681213 -4.765625q0 -1.96875 0.5625 -3.484375q0.5625 -1.53125 1.53125 -2.5625q0.96875 -1.046875 2.28125 -1.59375q1.328125 -0.5625 2.84375 -0.5625q1.578125 0 2.6875 0.609375q1.125 0.609375 1.890625 1.390625l-1.9375 2.171875q-0.5 -0.5 -1.109375 -0.8125q-0.59375 -0.3125 -1.53125 -0.3125q-0.765625 0 -1.421875 0.359375q-0.640625 0.34375 -1.125 1.0q-0.484375 0.640625 -0.765625 1.578125q-0.265625 0.921875 -0.265625 2.109375q0 2.421875 0.921875 3.75q0.921875 1.328125 2.796875 1.328125q0.453125 0 0.859375 -0.109375q0.421875 -0.125 0.671875 -0.359375l0 -2.6875l-2.265625 0l0 -2.890625l5.4375 0l0 7.203125q-0.78125 0.75 -2.078125 1.328125q-1.296875 0.5625 -2.8125 0.5625q-1.515625 0 -2.828125 -0.515625q-1.296875 -0.515625 -2.28125 -1.515625q-0.96875 -1.015625 -1.515625 -2.515625q-0.546875 -1.5 -0.546875 -3.46875zm14.868713 -7.90625l3.53125 0l0 6.015625l4.28125 0l0 -6.015625l3.515625 0l0 15.640625l-3.515625 0l0 -6.53125l-4.28125 0l0 6.53125l-3.53125 0l0 -15.640625z" fill-rule="nonzero"/><path fill="#000000" fill-opacity="0.0" d="m112.59449 88.85171l145.95276 0l0 145.95276l-145.95276 0z" fill-rule="evenodd"/><path stroke="#000000" stroke-width="1.0" stroke-linejoin="round" stroke-linecap="butt" d="m112.59449 88.85171l145.95276 0l0 145.95276l-145.95276 0z" fill-rule="evenodd"/><path fill="#000000" d="m182.99588 170.36809q0.109375 -1.890625 0.375 -3.484375q0.28125 -1.609375 0.796875 -3.046875q0.515625 -1.453125 1.328125 -2.828125q0.8125 -1.390625 2.015625 -2.90625l-7.65625 0l0 -2.96875l11.453125 0l0 2.15625q-1.4375 1.609375 -2.328125 3.015625q-0.890625 1.40625 -1.390625 2.90625q-0.5 1.5 -0.71875 3.21875q-0.21875 1.703125 -0.3125 3.9375l-3.5625 0l0 0z" fill-rule="nonzero"/><path fill="#000000" fill-opacity="0.0" d="m258.54724 88.85171l145.95276 0l0 145.95276l-145.95276 0z" fill-rule="evenodd"/><path stroke="#000000" stroke-width="1.0" stroke-linejoin="round" stroke-linecap="butt" d="m258.54724 88.85171l145.95276 0l0 145.95276l-145.95276 0z" fill-rule="evenodd"/><path fill="#000000" d="m326.96426 166.25871q0.765625 0.671875 1.703125 1.109375q0.953125 0.4375 2.015625 0.4375q1.25 0 2.046875 -0.46875q0.8125 -0.46875 0.8125 -1.34375q0 -0.5 -0.21875 -0.90625q-0.21875 -0.40625 -0.75 -0.671875q-0.515625 -0.28125 -1.40625 -0.4375q-0.890625 -0.15625 -2.234375 -0.15625l0 -2.5q2.25 0 3.171875 -0.5625q0.9375 -0.5625 0.9375 -1.484375q0 -0.78125 -0.609375 -1.21875q-0.59375 -0.453125 -1.65625 -0.453125q-0.90625 0 -1.671875 0.359375q-0.765625 0.359375 -1.5625 0.984375l-1.78125 -2.15625q1.125 -0.921875 2.40625 -1.4375q1.296875 -0.515625 2.78125 -0.515625q1.25 0 2.28125 0.28125q1.03125 0.28125 1.765625 0.828125q0.75 0.53125 1.15625 1.296875q0.40625 0.765625 0.40625 1.765625q0 1.203125 -0.765625 2.03125q-0.765625 0.828125 -2.125 1.359375l0 0.09375q1.4375 0.390625 2.421875 1.3125q0.984375 0.921875 0.984375 2.40625q0 1.0625 -0.5 1.890625q-0.484375 0.828125 -1.3125 1.390625q-0.828125 0.5625 -1.9375 0.859375q-1.109375 0.296875 -2.296875 0.296875q-1.96875 0 -3.390625 -0.578125q-1.421875 -0.59375 -2.296875 -1.578125l1.625 -2.234375z" fill-rule="nonzero"/><path fill="#000000" fill-opacity="0.0" d="m404.5 88.85171l145.95276 0l0 145.95276l-145.95276 0z" fill-rule="evenodd"/><path stroke="#000000" stroke-width="1.0" stroke-linejoin="round" stroke-linecap="butt" d="m404.5 88.85171l145.95276 0l0 145.95276l-145.95276 0z" fill-rule="evenodd"/><path fill="#000000" d="m483.16702 167.50871l0 2.859375l-10.921875 0l0 -2.859375l3.9375 0l0 -8.796875l-3.140625 0l0 -2.1875q1.34375 -0.25 2.28125 -0.578125q0.953125 -0.34375 1.796875 -0.8125l2.59375 0l0 12.375l3.453125 0z" fill-rule="nonzero"/><path fill="#000000" fill-opacity="0.0" d="m633.4895 177.34645l145.95276 0l0 145.95277l-145.95276 0z" fill-rule="evenodd"/><path stroke="#000000" stroke-width="1.0" stroke-linejoin="round" stroke-linecap="butt" d="m633.4895 177.34645l145.95276 0l0 145.95277l-145.95276 0z" fill-rule="evenodd"/><path fill="#000000" d="m665.4722 263.1597q-2.34375 -2.09375 -3.703125 -4.828125q-1.359375 -2.7343597 -1.359375 -6.1406097q0 -3.40625 1.359375 -6.140625q1.359375 -2.734375 3.703125 -4.828125l1.96875 1.5625q-2.140625 2.09375 -3.109375 4.34375q-0.96875 2.234375 -0.96875 5.0625q0 1.421875 0.234375 2.6875q0.25 1.2499847 0.734375 2.4062347q0.5 1.140625 1.265625 2.203125q0.765625 1.078125 1.84375 2.109375l-1.96875 1.5625l0 0zm9.618713 -4.296875q0.109375 -1.890625 0.375 -3.4843597q0.28125 -1.609375 0.796875 -3.046875q0.515625 -1.453125 1.328125 -2.828125q0.8125 -1.390625 2.015625 -2.90625l-7.65625 0l0 -2.96875l11.453125 0l0 2.15625q-1.4375 1.609375 -2.328125 3.015625q-0.890625 1.40625 -1.390625 2.90625q-0.5 1.5 -0.71875 3.21875q-0.21875 1.7031097 -0.3125 3.9374847l-3.5625 0l0 0zm14.149963 3.140625q3.109375 -1.078125 3.109375 -3.40625q-0.09375 0.03125 -0.265625 0.03125q-0.5 0 -0.96875 -0.15625q-0.46875 -0.15625 -0.828125 -0.46875q-0.359375 -0.3125 -0.578125 -0.765625q-0.21875 -0.46875 -0.21875 -1.0625q0 -1.1249847 0.78125 -1.7968597q0.78125 -0.671875 1.90625 -0.671875q1.5 0 2.234375 1.09375q0.75 1.09375 0.75 3.0312347q0 2.296875 -1.28125 3.875q-1.265625 1.59375 -3.765625 2.359375l-0.875 -2.0625zm12.587463 -18.781235l3.53125 0l0 12.671875l6.96875 0l0 2.9687347l-10.5 0l0 -15.64061zm19.040588 15.92186q-1.390625 0 -2.5625 -0.5625q-1.15625 -0.5625 -1.984375 -1.609375q-0.828125 -1.0624847 -1.296875 -2.5624847q-0.453125 -1.515625 -0.453125 -3.4375q0 -1.921875 0.453125 -3.421875q0.46875 -1.5 1.296875 -2.515625q0.828125 -1.03125 1.984375 -1.5625q1.171875 -0.546875 2.5625 -0.546875q1.390625 0 2.546875 0.546875q1.171875 0.53125 2.0 1.5625q0.828125 1.03125 1.28125 2.53125q0.453125 1.5 0.453125 3.40625q0 1.921875 -0.453125 3.4375q-0.453125 1.5 -1.28125 2.5624847q-0.828125 1.046875 -2.0 1.609375q-1.15625 0.5625 -2.546875 0.5625zm0 -3.046875q1.21875 0 1.9375 -1.3749847q0.71875 -1.375 0.71875 -3.75q0 -2.359375 -0.71875 -3.671875q-0.71875 -1.328125 -1.9375 -1.328125q-1.234375 0 -1.953125 1.328125q-0.71875 1.3125 -0.71875 3.671875q0 2.375 0.71875 3.75q0.71875 1.3749847 1.953125 1.3749847zm7.2905884 -12.874985l3.609375 0l0.5 8.328125q0.015625 1.0 0.03125 1.984375q0.03125 0.984375 0.0625 1.984375l0.078125 0q0.1875 -1.0 0.40625 -1.984375q0.234375 -0.984375 0.421875 -1.984375l1.078125 -4.34375l2.140625 0l1.03125 4.34375q0.1875 0.953125 0.40625 1.96875q0.21875 1.0 0.40625 2.0l0.109375 0q0.046875 -1.0 0.046875 -2.0q0.015625 -1.0 0.0625 -1.96875l0.453125 -8.328125l3.359375 0l-1.9375 15.64061l-3.703125 0l-0.96875 -4.9218597q-0.15625 -0.734375 -0.28125 -1.515625q-0.109375 -0.78125 -0.15625 -1.484375l-0.078125 0q-0.0625 0.703125 -0.171875 1.484375q-0.109375 0.78125 -0.25 1.515625l-0.9375 4.9218597l-3.625 0l-2.09375 -15.64061zm17.337463 18.374985q1.078125 -1.03125 1.84375 -2.109375q0.765625 -1.0625 1.25 -2.203125q0.5 -1.15625 0.734375 -2.4062347q0.25 -1.265625 0.25 -2.6875q0 -2.828125 -0.984375 -5.0625q-0.96875 -2.25 -3.09375 -4.34375l1.953125 -1.5625q2.359375 2.09375 3.71875 4.828125q1.359375 2.734375 1.359375 6.140625q0 3.40625 -1.359375 6.1406097q-1.359375 2.734375 -3.71875 4.828125l-1.953125 -1.5625z" fill-rule="nonzero"/><path fill="#000000" fill-opacity="0.0" d="m779.44226 177.34645l145.95276 0l0 145.95277l-145.95276 0z" fill-rule="evenodd"/><path stroke="#000000" stroke-width="1.0" stroke-linejoin="round" stroke-linecap="butt" d="m779.44226 177.34645l145.95276 0l0 145.95277l-145.95276 0z" fill-rule="evenodd"/><path fill="#000000" d="m804.22504 263.1597q-2.34375 -2.09375 -3.703125 -4.828125q-1.359375 -2.7343597 -1.359375 -6.1406097q0 -3.40625 1.359375 -6.140625q1.359375 -2.734375 3.703125 -4.828125l1.96875 1.5625q-2.140625 2.09375 -3.109375 4.34375q-0.96875 2.234375 -0.96875 5.0625q0 1.421875 0.234375 2.6875q0.25 1.2499847 0.734375 2.4062347q0.5 1.140625 1.265625 2.203125q0.765625 1.078125 1.84375 2.109375l-1.96875 1.5625l0 0zm7.6343384 -8.406235q0.765625 0.671875 1.703125 1.109375q0.953125 0.43748474 2.015625 0.43748474q1.25 0 2.046875 -0.46873474q0.8125 -0.46875 0.8125 -1.34375q0 -0.5 -0.21875 -0.90625q-0.21875 -0.40625 -0.75 -0.671875q-0.515625 -0.28125 -1.40625 -0.4375q-0.890625 -0.15625 -2.234375 -0.15625l0 -2.5q2.25 0 3.171875 -0.5625q0.9375 -0.5625 0.9375 -1.484375q0 -0.78125 -0.609375 -1.21875q-0.59375 -0.453125 -1.65625 -0.453125q-0.90625 0 -1.671875 0.359375q-0.765625 0.359375 -1.5625 0.984375l-1.78125 -2.15625q1.125 -0.921875 2.40625 -1.4375q1.296875 -0.515625 2.78125 -0.515625q1.25 0 2.28125 0.28125q1.03125 0.28125 1.765625 0.828125q0.75 0.53125 1.15625 1.296875q0.40625 0.765625 0.40625 1.765625q0 1.203125 -0.765625 2.03125q-0.765625 0.828125 -2.125 1.359375l0 0.09375q1.4375 0.390625 2.421875 1.3125q0.984375 0.921875 0.984375 2.40625q0 1.0625 -0.5 1.8906097q-0.484375 0.828125 -1.3125 1.390625q-0.828125 0.5625 -1.9375 0.859375q-1.109375 0.296875 -2.296875 0.296875q-1.96875 0 -3.390625 -0.578125q-1.421875 -0.59375 -2.296875 -1.578125l1.625 -2.2343597zm16.134338 7.2499847q3.109375 -1.078125 3.109375 -3.40625q-0.09375 0.03125 -0.265625 0.03125q-0.5 0 -0.96875 -0.15625q-0.46875 -0.15625 -0.828125 -0.46875q-0.359375 -0.3125 -0.578125 -0.765625q-0.21875 -0.46875 -0.21875 -1.0625q0 -1.1249847 0.78125 -1.7968597q0.78125 -0.671875 1.90625 -0.671875q1.5 0 2.234375 1.09375q0.75 1.09375 0.75 3.0312347q0 2.296875 -1.28125 3.875q-1.265625 1.59375 -3.765625 2.359375l-0.875 -2.0625zm11.556213 -18.781235l3.53125 0l0 6.015625l4.28125 0l0 -6.015625l3.515625 0l0 15.64061l-3.515625 0l0 -6.5312347l-4.28125 0l0 6.5312347l-3.53125 0l0 -15.64061zm14.649963 12.671875l3.640625 0l0 -9.703125l-3.640625 0l0 -2.96875l10.84375 0l0 2.96875l-3.65625 0l0 9.703125l3.65625 0l0 2.9687347l-10.84375 0l0 -2.9687347zm13.681213 -4.765625q0 -1.96875 0.5625 -3.484375q0.5625 -1.53125 1.53125 -2.5625q0.96875 -1.046875 2.28125 -1.59375q1.328125 -0.5625 2.84375 -0.5625q1.578125 0 2.6875 0.609375q1.125 0.609375 1.890625 1.390625l-1.9375 2.171875q-0.5 -0.5 -1.109375 -0.8125q-0.59375 -0.3125 -1.53125 -0.3125q-0.765625 0 -1.421875 0.359375q-0.640625 0.34375 -1.125 1.0q-0.484375 0.640625 -0.765625 1.578125q-0.265625 0.921875 -0.265625 2.109375q0 2.421875 0.921875 3.75q0.921875 1.3281097 2.796875 1.3281097q0.453125 0 0.859375 -0.10935974q0.421875 -0.125 0.671875 -0.359375l0 -2.6875l-2.265625 0l0 -2.890625l5.4375 0l0 7.2031097q-0.78125 0.75 -2.078125 1.328125q-1.296875 0.5625 -2.8125 0.5625q-1.515625 0 -2.828125 -0.515625q-1.296875 -0.515625 -2.28125 -1.515625q-0.96875 -1.015625 -1.515625 -2.5156097q-0.546875 -1.5 -0.546875 -3.46875zm14.868713 -7.90625l3.53125 0l0 6.015625l4.28125 0l0 -6.015625l3.515625 0l0 15.64061l-3.515625 0l0 -6.5312347l-4.28125 0l0 6.5312347l-3.53125 0l0 -15.64061zm15.899963 18.374985q1.078125 -1.03125 1.84375 -2.109375q0.765625 -1.0625 1.25 -2.203125q0.5 -1.15625 0.734375 -2.4062347q0.25 -1.265625 0.25 -2.6875q0 -2.828125 -0.984375 -5.0625q-0.96875 -2.25 -3.09375 -4.34375l1.953125 -1.5625q2.359375 2.09375 3.71875 4.828125q1.359375 2.734375 1.359375 6.140625q0 3.40625 -1.359375 6.1406097q-1.359375 2.734375 -3.71875 4.828125l-1.953125 -1.5625z" fill-rule="nonzero"/><path fill="#000000" fill-opacity="0.0" d="m331.52362 338.82022c75.49121 0 113.23831 -22.126007 150.98242 -44.251984c37.74408 -22.125977 75.48517 -44.25197 150.97034 -44.25197" fill-rule="evenodd"/><path stroke="#000000" stroke-width="1.0" stroke-linejoin="round" stroke-linecap="butt" d="m331.52362 338.82022c75.49121 0 113.23831 -22.126007 150.98242 -44.251984c18.87204 -11.062988 37.743347 -22.125977 61.332275 -30.423218c11.794495 -4.1486206 24.76831 -7.6058044 39.511414 -10.025848c7.371521 -1.2100067 15.185364 -2.160736 23.515259 -2.8089752c4.164917 -0.32409668 8.458862 -0.57258606 12.891052 -0.74002075c2.2160034 -0.08375549 4.466675 -0.1472168 6.7529907 -0.1897583l0.9675293 -0.015716553" fill-rule="evenodd"/><path fill="#000000" stroke="#000000" stroke-width="1.0" stroke-linecap="butt" d="m627.4899 252.01637l4.524597 -1.6882935l-4.5512695 -1.6150513z" fill-rule="evenodd"/><path fill="#000000" fill-opacity="0.0" d="m550.45276 161.82808c20.759216 0 31.140503 22.125992 41.518433 44.25197c10.377991 22.125992 20.752625 44.25197 41.505188 44.25197" fill-rule="evenodd"/><path stroke="#000000" stroke-width="1.0" stroke-linejoin="round" stroke-linecap="butt" d="m550.45276 161.82808c20.759216 0 31.140503 22.125992 41.518433 44.25197c5.189026 11.063004 10.377136 22.125992 16.862122 30.423233c3.2424927 4.1486206 6.809143 7.6058044 10.862244 10.025833c2.0266113 1.210022 4.1747437 2.1607513 6.4647827 2.8089752c0.28625488 0.08102417 0.57470703 0.15731812 0.8654785 0.2288208c0.14538574 0.035736084 0.29125977 0.07026672 0.43774414 0.10360718l0.04827881 0.010528564" fill-rule="evenodd"/><path fill="#000000" stroke="#000000" stroke-width="1.0" stroke-linecap="butt" d="m627.3326 251.32303l4.6905518 -1.1496124l-4.3321533 -2.1343536z" fill-rule="evenodd"/><path fill="#000000" fill-opacity="0.0" d="m112.59449 30.43832l437.85828 0l0 58.425198l-437.85828 0z" fill-rule="evenodd"/><path fill="#000000" d="m260.4361 54.35217l1.890625 0l0 5.84375l0.0625 0l4.734375 -5.84375l2.09375 0l-3.796875 4.71875l4.21875 7.500004l-2.0625 0l-3.296875 -6.046879l-1.953125 2.328125l0 3.7187538l-1.890625 0l0 -12.218754zm10.740631 7.671875q0 -1.125 0.390625 -2.0q0.390625 -0.890625 1.03125 -1.515625q0.65625 -0.625 1.5 -0.953125q0.84375 -0.328125 1.734375 -0.328125q1.015625 0 1.78125 0.3125q0.78125 0.3125 1.3125 0.890625q0.546875 0.5625 0.828125 1.359375q0.28125 0.796875 0.28125 1.75q0 0.28125 -0.03125 0.53125q-0.03125 0.25 -0.0625 0.421875l-6.875 0q0.09375 1.328125 1.0 2.0937538q0.90625 0.75 2.296875 0.75q0.734375 0 1.375 -0.203125q0.65625 -0.203125 1.265625 -0.578125l0.65625 1.171875q-0.703125 0.453125 -1.59375 0.765625q-0.890625 0.296875 -1.953125 0.296875q-1.03125 0 -1.9375 -0.3125q-0.890625 -0.328125 -1.5625 -0.9375q-0.671875 -0.625 -1.0625 -1.515625q-0.375 -0.8906288 -0.375 -2.0000038zm7.140625 -0.8125q0 -1.21875 -0.640625 -1.875q-0.625 -0.65625 -1.8125 -0.65625q-1.015625 0 -1.828125 0.65625q-0.796875 0.65625 -0.984375 1.875l5.265625 0zm4.459381 7.562504q0.171875 0.046875 0.375 0.078125q0.203125 0.046875 0.40625 0.046875q0.921875 0 1.46875 -0.5q0.5625 -0.484375 0.875 -1.25l0.25 -0.640625l-4.15625 -9.062504l1.84375 0l2.046875 4.765625q0.265625 0.609375 0.515625 1.296875q0.265625 0.6875038 0.546875 1.3593788l0.078125 0q0.21875 -0.640625 0.453125 -1.3281288q0.25 -0.703125 0.484375 -1.328125l1.8125 -4.765625l1.75 0l-3.90625 9.703129q-0.28125 0.734375 -0.640625 1.328125q-0.34375 0.59375 -0.828125 1.015625q-0.46875 0.4375 -1.09375 0.671875q-0.609375 0.234375 -1.40625 0.234375q-0.328125 0 -0.65625 -0.046875q-0.328125 -0.046875 -0.59375 -0.140625l0.375 -1.4375l0 0zm13.053131 -1.453125l0 2.984375l-1.84375 0l0 -12.859379l1.515625 0l0.140625 1.125l0.0625 0q0.609375 -0.59375 1.40625 -0.96875q0.8125 -0.375 1.640625 -0.375q0.890625 0 1.578125 0.328125q0.703125 0.328125 1.171875 0.9375q0.484375 0.59375 0.734375 1.453125q0.265625 0.859375 0.265625 1.921875q0 1.171875 -0.34375 2.09375q-0.328125 0.9062538 -0.90625 1.5312538q-0.5625 0.625 -1.3125 0.96875q-0.75 0.328125 -1.546875 0.328125q-0.640625 0 -1.328125 -0.28125q-0.6875 -0.296875 -1.28125 -0.828125l0.046875 1.640625zm0 -3.0q0.578125 0.515625 1.171875 0.734375q0.609375 0.203125 1.03125 0.203125q1.109375 0 1.828125 -0.859375q0.734375 -0.8750038 0.734375 -2.5156288q0 -1.4375 -0.5625 -2.265625q-0.5625 -0.84375 -1.796875 -0.84375q-0.5625 0 -1.171875 0.296875q-0.609375 0.28125 -1.234375 0.9375l0 4.312504zm9.131256 -0.15625q0 -0.7656288 0.359375 -1.3437538q0.359375 -0.578125 1.125 -0.984375q0.78125 -0.421875 2.0 -0.671875q1.234375 -0.265625 2.953125 -0.390625q-0.046875 -0.84375 -0.5625 -1.4375q-0.5 -0.59375 -1.71875 -0.59375q-0.84375 0 -1.640625 0.3125q-0.78125 0.3125 -1.453125 0.703125l-0.6875 -1.25q0.375 -0.21875 0.828125 -0.453125q0.46875 -0.234375 1.0 -0.421875q0.53125 -0.1875 1.09375 -0.296875q0.578125 -0.109375 1.171875 -0.109375q1.90625 0 2.859375 1.03125q0.953125 1.015625 0.953125 2.828125l0 5.484379l-1.515625 0l-0.140625 -1.171875l-0.0625 0q-0.734375 0.5625 -1.640625 0.984375q-0.890625 0.40625 -1.84375 0.40625q-0.65625 0 -1.234375 -0.1875q-0.5625 -0.1875 -0.96875 -0.53125q-0.40625 -0.34375 -0.640625 -0.828125q-0.234375 -0.484375 -0.234375 -1.078125zm1.78125 -0.125q0 0.6875 0.53125 0.984375q0.53125 0.296875 1.28125 0.296875q0.734375 0 1.421875 -0.3125q0.703125 -0.328125 1.421875 -0.90625l0 -2.1562538q-1.34375 0.109375 -2.25 0.296875q-0.890625 0.171875 -1.421875 0.4375q-0.53125 0.265625 -0.765625 0.609375q-0.21875 0.328125 -0.21875 0.7500038zm9.037506 -2.0156288q0 -1.125 0.34375 -2.0q0.34375 -0.890625 0.90625 -1.5q0.578125 -0.625 1.3125 -0.953125q0.734375 -0.34375 1.515625 -0.34375q0.84375 0 1.453125 0.296875q0.609375 0.296875 1.203125 0.84375l-0.078125 -1.625l0 -3.40625l1.84375 0l0 13.234379l-1.5 0l-0.15625 -1.125l-0.0625 0q-0.53125 0.546875 -1.28125 0.953125q-0.75 0.390625 -1.5625 0.390625q-0.90625 0 -1.625 -0.3125q-0.703125 -0.3125 -1.234375 -0.921875q-0.515625 -0.625 -0.796875 -1.515625q-0.28125 -0.8906288 -0.28125 -2.0156288zm1.90625 -0.03125q0 1.59375 0.640625 2.4375038q0.640625 0.828125 1.8125 0.828125q1.234375 0 2.296875 -1.21875l0 -4.328129q-0.546875 -0.53125 -1.09375 -0.734375q-0.53125 -0.203125 -1.0625 -0.203125q-0.546875 0 -1.015625 0.234375q-0.46875 0.21875 -0.828125 0.640625q-0.34375 0.40625 -0.546875 1.015625q-0.203125 0.59375 -0.203125 1.328125zm21.559387 2.1875038q0.78125 0.546875 1.640625 0.875q0.859375 0.328125 2.0 0.328125q1.171875 0 1.703125 -0.359375q0.546875 -0.359375 0.546875 -0.890625q0 -0.5156288 -0.65625 -0.8750038q-0.640625 -0.375 -2.15625 -0.75q-0.671875 -0.171875 -1.296875 -0.40625q-0.625 -0.25 -1.09375 -0.578125q-0.46875 -0.328125 -0.75 -0.71875q-0.265625 -0.40625 -0.265625 -0.90625q0 -0.578125 0.25 -1.0625q0.25 -0.5 0.75 -0.84375q0.5 -0.359375 1.21875 -0.5625q0.734375 -0.203125 1.6875 -0.203125q1.09375 0 2.0625 0.359375q0.984375 0.359375 1.671875 0.828125l-0.859375 1.15625q-0.609375 -0.40625 -1.328125 -0.65625q-0.703125 -0.265625 -1.515625 -0.265625q-1.15625 0 -1.625 0.34375q-0.453125 0.328125 -0.453125 0.8125q0 0.515625 0.75 0.859375q0.75 0.328125 1.921875 0.625q1.71875 0.4375 2.640625 1.046875q0.921875 0.59375 0.921875 1.6718788q0 0.578125 -0.28125 1.09375q-0.28125 0.5 -0.8125 0.890625q-0.53125 0.375 -1.3125 0.578125q-0.765625 0.21875 -1.78125 0.21875q-1.296875 0 -2.453125 -0.40625q-1.15625 -0.421875 -2.0 -1.0l0.875 -1.203125zm12.756256 -5.234379l-2.5 0l0 -1.40625l2.578125 -0.09375l0.25 -2.515625l1.53125 0l0 2.515625l4.296875 0l0 1.5l-4.296875 0l0 4.03125q0 1.1718788 0.46875 1.7500038q0.484375 0.578125 1.734375 0.578125q0.59375 0 1.09375 -0.09375q0.515625 -0.109375 0.984375 -0.296875l0.375 1.359375q-0.609375 0.203125 -1.359375 0.359375q-0.75 0.15625 -1.53125 0.15625q-1.0 0 -1.703125 -0.265625q-0.703125 -0.28125 -1.125 -0.78125q-0.421875 -0.515625 -0.609375 -1.21875q-0.1875 -0.7031288 -0.1875 -1.5468788l0 -4.03125zm10.084381 -1.5l1.53125 0l0.140625 2.125l0.0625 0q0.703125 -1.109375 1.71875 -1.71875q1.015625 -0.625 2.25 -0.625q0.546875 0 0.9530945 0.09375q0.40625 0.078125 0.84375 0.28125l-0.421875 1.578125q-0.453125 -0.140625 -0.7968445 -0.21875q-0.328125 -0.078125 -0.859375 -0.078125q-0.984375 0 -1.90625 0.5625q-0.90625 0.5625 -1.671875 1.9375l0 5.187504l-1.84375 0l0 -9.125004zm9.834381 4.578125q0 -1.125 0.390625 -2.0q0.390625 -0.890625 1.03125 -1.515625q0.65625 -0.625 1.5 -0.953125q0.84375 -0.328125 1.734375 -0.328125q1.015625 0 1.78125 0.3125q0.78125 0.3125 1.3125 0.890625q0.546875 0.5625 0.828125 1.359375q0.28125 0.796875 0.28125 1.75q0 0.28125 -0.03125 0.53125q-0.03125 0.25 -0.0625 0.421875l-6.875 0q0.09375 1.328125 1.0 2.0937538q0.90625 0.75 2.296875 0.75q0.734375 0 1.375 -0.203125q0.65625 -0.203125 1.265625 -0.578125l0.65625 1.171875q-0.703125 0.453125 -1.59375 0.765625q-0.890625 0.296875 -1.953125 0.296875q-1.03125 0 -1.9375 -0.3125q-0.890625 -0.328125 -1.5625 -0.9375q-0.671875 -0.625 -1.0625 -1.515625q-0.375 -0.8906288 -0.375 -2.0000038zm7.140625 -0.8125q0 -1.21875 -0.640625 -1.875q-0.625 -0.65625 -1.8125 -0.65625q-1.015625 0 -1.828125 0.65625q-0.796875 0.65625 -0.984375 1.875l5.265625 0zm4.2562256 2.9531288q0 -0.7656288 0.359375 -1.3437538q0.359375 -0.578125 1.125 -0.984375q0.78125 -0.421875 2.0 -0.671875q1.234375 -0.265625 2.953125 -0.390625q-0.046875 -0.84375 -0.5625 -1.4375q-0.5 -0.59375 -1.71875 -0.59375q-0.84375 0 -1.640625 0.3125q-0.78125 0.3125 -1.453125 0.703125l-0.6875 -1.25q0.375 -0.21875 0.828125 -0.453125q0.46875 -0.234375 1.0 -0.421875q0.53125 -0.1875 1.09375 -0.296875q0.578125 -0.109375 1.171875 -0.109375q1.90625 0 2.859375 1.03125q0.953125 1.015625 0.953125 2.828125l0 5.484379l-1.515625 0l-0.140625 -1.171875l-0.0625 0q-0.734375 0.5625 -1.640625 0.984375q-0.890625 0.40625 -1.84375 0.40625q-0.65625 0 -1.234375 -0.1875q-0.5625 -0.1875 -0.96875 -0.53125q-0.40625 -0.34375 -0.640625 -0.828125q-0.234375 -0.484375 -0.234375 -1.078125zm1.78125 -0.125q0 0.6875 0.53125 0.984375q0.53125 0.296875 1.28125 0.296875q0.734375 0 1.421875 -0.3125q0.703125 -0.328125 1.421875 -0.90625l0 -2.1562538q-1.34375 0.109375 -2.25 0.296875q-0.890625 0.171875 -1.421875 0.4375q-0.53125 0.265625 -0.765625 0.609375q-0.21875 0.328125 -0.21875 0.7500038zm8.990662 -6.593754l1.421875 0l0.15625 1.203125l0.046875 0q0.328125 -0.625 0.78125 -1.015625q0.453125 -0.40625 1.234375 -0.40625q1.359375 0 1.703125 1.546875q0.375 -0.6875 0.859375 -1.109375q0.484375 -0.4375 1.25 -0.4375q0.953125 0 1.46875 0.734375q0.53125 0.734375 0.53125 2.109375l0 6.500004l-1.765625 0l0 -6.343754q0 -1.40625 -0.859375 -1.40625q-0.421875 0 -0.75 0.3125q-0.3125 0.3125 -0.625 0.9375l0 6.500004l-1.453125 0l0 -6.343754q0 -1.40625 -0.890625 -1.40625q-0.4375 0 -0.734375 0.3125q-0.296875 0.3125 -0.609375 0.9375l0 6.500004l-1.765625 0l0 -9.125004z" fill-rule="nonzero"/><path fill="#000000" fill-opacity="0.0" d="m39.61811 411.7979l291.90552 0l0 58.42517l-291.90552 0z" fill-rule="evenodd"/><path fill="#000000" d="m115.061455 445.07114q0.71875 0.65625 1.59375 1.0625q0.890625 0.390625 1.84375 0.390625q1.21875 0 1.859375 -0.484375q0.640625 -0.484375 0.640625 -1.296875q0 -0.40625 -0.15625 -0.703125q-0.15625 -0.3125 -0.4375 -0.515625q-0.28125 -0.21875 -0.671875 -0.390625q-0.390625 -0.171875 -0.859375 -0.359375l-1.71875 -0.75q-0.46875 -0.1875 -0.9375 -0.453125q-0.453125 -0.28125 -0.828125 -0.65625q-0.375 -0.390625 -0.609375 -0.90625q-0.234375 -0.515625 -0.234375 -1.1875q0 -0.703125 0.296875 -1.3125q0.296875 -0.625 0.84375 -1.0625q0.5625 -0.453125 1.3125 -0.703125q0.75 -0.25 1.671875 -0.25q1.140625 0 2.125 0.40625q0.984375 0.40625 1.703125 1.125l-0.96875 1.1875q-0.609375 -0.53125 -1.296875 -0.8125q-0.6875 -0.296875 -1.5625 -0.296875q-1.046875 0 -1.640625 0.4375q-0.59375 0.421875 -0.59375 1.171875q0 0.40625 0.171875 0.6875q0.171875 0.28125 0.46875 0.5q0.3125 0.21875 0.6875 0.375q0.375 0.15625 0.796875 0.328125l1.65625 0.71875q0.578125 0.234375 1.0625 0.53125q0.484375 0.28125 0.84375 0.671875q0.375 0.375 0.578125 0.890625q0.203125 0.5 0.203125 1.171875q0 0.734375 -0.296875 1.390625q-0.296875 0.640625 -0.875 1.140625q-0.578125 0.484375 -1.40625 0.765625q-0.8125 0.265625 -1.859375 0.265625q-1.328125 0 -2.46875 -0.46875q-1.140625 -0.484375 -2.015625 -1.328125l1.078125 -1.28125zm9.068756 -6.265625l1.859375 0l0.96875 5.0q0.125 0.65625 0.21875 1.296875q0.09375 0.640625 0.1875 1.296875l0.078125 0q0.21875 -1.265625 0.5 -2.59375l0.9687424 -4.265625l1.453125 0l1.015625 4.265625q0.140625 0.65625 0.265625 1.296875q0.125 0.640625 0.25 1.296875l0.078125 0q0.125 -0.65625 0.203125 -1.296875q0.09375 -0.640625 0.203125 -1.296875l0.96875 -5.0l1.71875 0l-1.828125 9.125l-2.203125 0l-0.9375 -4.203125q-0.125 -0.640625 -0.234375 -1.28125q-0.09375 -0.65625 -0.21875 -1.359375l-0.078125 0q-0.09375 0.5625 -0.203125 1.203125q-0.09375 0.625 -0.25 1.46875l-0.90625 4.171875l-2.1718674 0l-1.90625 -9.125zm12.693748 0l5.9375 0l0 9.125l-1.859375 0l0 -7.625l-4.078125 0l0 -1.5zm4.84375 -1.734375q-0.59375 0 -0.984375 -0.34375q-0.390625 -0.359375 -0.390625 -0.953125q0 -0.609375 0.390625 -0.96875q0.390625 -0.359375 0.984375 -0.359375q0.609375 0 1.0 0.359375q0.390625 0.359375 0.390625 0.96875q0 0.59375 -0.390625 0.953125q-0.390625 0.34375 -1.0 0.34375zm8.412506 3.234375l-2.5 0l0 -1.40625l2.578125 -0.09375l0.25 -2.515625l1.53125 0l0 2.515625l4.296875 0l0 1.5l-4.296875 0l0 4.03125q0 1.171875 0.46875 1.75q0.484375 0.578125 1.734375 0.578125q0.59375 0 1.09375 -0.09375q0.515625 -0.109375 0.984375 -0.296875l0.375 1.359375q-0.609375 0.203125 -1.359375 0.359375q-0.75 0.15625 -1.53125 0.15625q-1.0 0 -1.703125 -0.265625q-0.703125 -0.28125 -1.125 -0.78125q-0.421875 -0.515625 -0.609375 -1.21875q-0.1875 -0.703125 -0.1875 -1.546875l0 -4.03125zm8.928131 3.078125q0 -1.140625 0.40625 -2.03125q0.40625 -0.90625 1.109375 -1.515625q0.71875 -0.625 1.640625 -0.9375q0.921875 -0.3125 1.96875 -0.3125q1.125 0 1.953125 0.390625q0.84375 0.375 1.40625 0.90625l-0.890625 1.1875q-0.546875 -0.453125 -1.125 -0.703125q-0.578125 -0.25 -1.25 -0.25q-0.734375 0 -1.34375 0.234375q-0.609375 0.234375 -1.046875 0.65625q-0.4375 0.421875 -0.6875 1.03125q-0.234375 0.609375 -0.234375 1.34375q0 0.71875 0.21875 1.328125q0.234375 0.609375 0.671875 1.046875q0.453125 0.421875 1.046875 0.65625q0.59375 0.234375 1.3125 0.234375q0.84375 0 1.515625 -0.3125q0.671875 -0.328125 1.21875 -0.78125l0.78125 1.203125q-0.78125 0.671875 -1.71875 1.03125q-0.9375 0.359375 -1.9375 0.359375q-1.0625 0 -1.984375 -0.3125q-0.921875 -0.3125 -1.59375 -0.921875q-0.671875 -0.625 -1.0625 -1.515625q-0.375 -0.890625 -0.375 -2.015625zm11.412506 -8.6875l1.84375 0l0 3.515625l-0.109375 2.046875q0.6875 -0.703125 1.484375 -1.1875q0.8125 -0.484375 1.875 -0.484375q1.609375 0 2.34375 0.953125q0.75 0.953125 0.75 2.734375l0 5.65625l-1.84375 0l0 -5.40625q0 -1.203125 -0.4375 -1.765625q-0.421875 -0.578125 -1.46875 -0.578125q-0.71875 0 -1.296875 0.375q-0.578125 0.359375 -1.296875 1.09375l0 6.28125l-1.84375 0l0 -13.234375zm22.871887 10.84375q0.78125 0.546875 1.640625 0.875q0.859375 0.328125 2.0 0.328125q1.171875 0 1.703125 -0.359375q0.546875 -0.359375 0.546875 -0.890625q0 -0.515625 -0.65625 -0.875q-0.640625 -0.375 -2.15625 -0.75q-0.671875 -0.171875 -1.296875 -0.40625q-0.625 -0.25 -1.09375 -0.578125q-0.46875 -0.328125 -0.75 -0.71875q-0.265625 -0.40625 -0.265625 -0.90625q0 -0.578125 0.25 -1.0625q0.25 -0.5 0.75 -0.84375q0.5 -0.359375 1.21875 -0.5625q0.734375 -0.203125 1.6875 -0.203125q1.09375 0 2.0625 0.359375q0.984375 0.359375 1.671875 0.828125l-0.859375 1.15625q-0.609375 -0.40625 -1.328125 -0.65625q-0.703125 -0.265625 -1.515625 -0.265625q-1.15625 0 -1.625 0.34375q-0.453125 0.328125 -0.453125 0.8125q0 0.515625 0.75 0.859375q0.75 0.328125 1.921875 0.625q1.71875 0.4375 2.640625 1.046875q0.921875 0.59375 0.921875 1.671875q0 0.578125 -0.28125 1.09375q-0.28125 0.5 -0.8125 0.890625q-0.53125 0.375 -1.3125 0.578125q-0.765625 0.21875 -1.78125 0.21875q-1.296875 0 -2.453125 -0.40625q-1.15625 -0.421875 -2.0 -1.0l0.875 -1.203125zm12.756256 -5.234375l-2.5 0l0 -1.40625l2.578125 -0.09375l0.25 -2.515625l1.53125 0l0 2.515625l4.296875 0l0 1.5l-4.296875 0l0 4.03125q0 1.171875 0.46875 1.75q0.484375 0.578125 1.734375 0.578125q0.59375 0 1.09375 -0.09375q0.515625 -0.109375 0.984375 -0.296875l0.375 1.359375q-0.609375 0.203125 -1.359375 0.359375q-0.75 0.15625 -1.53125 0.15625q-1.0 0 -1.703125 -0.265625q-0.703125 -0.28125 -1.125 -0.78125q-0.421875 -0.515625 -0.609375 -1.21875q-0.1875 -0.703125 -0.1875 -1.546875l0 -4.03125zm10.084381 -1.5l1.53125 0l0.140625 2.125l0.0625 0q0.703125 -1.109375 1.71875 -1.71875q1.015625 -0.625 2.25 -0.625q0.546875 0 0.953125 0.09375q0.40625 0.078125 0.84375 0.28125l-0.421875 1.578125q-0.453125 -0.140625 -0.796875 -0.21875q-0.328125 -0.078125 -0.859375 -0.078125q-0.984375 0 -1.90625 0.5625q-0.90625 0.5625 -1.671875 1.9375l0 5.1875l-1.84375 0l0 -9.125zm9.834381 4.578125q0 -1.125 0.390625 -2.0q0.390625 -0.890625 1.03125 -1.515625q0.65625 -0.625 1.5 -0.953125q0.84375 -0.328125 1.734375 -0.328125q1.015625 0 1.78125 0.3125q0.78125 0.3125 1.3125 0.890625q0.546875 0.5625 0.828125 1.359375q0.28125 0.796875 0.28125 1.75q0 0.28125 -0.03125 0.53125q-0.03125 0.25 -0.0625 0.421875l-6.875 0q0.09375 1.328125 1.0 2.09375q0.90625 0.75 2.296875 0.75q0.734375 0 1.375 -0.203125q0.65625 -0.203125 1.265625 -0.578125l0.65625 1.171875q-0.703125 0.453125 -1.59375 0.765625q-0.890625 0.296875 -1.953125 0.296875q-1.03125 0 -1.9375 -0.3125q-0.890625 -0.328125 -1.5625 -0.9375q-0.671875 -0.625 -1.0625 -1.515625q-0.375 -0.890625 -0.375 -2.0zm7.140625 -0.8125q0 -1.21875 -0.640625 -1.875q-0.625 -0.65625 -1.8125 -0.65625q-1.015625 0 -1.828125 0.65625q-0.796875 0.65625 -0.984375 1.875l5.265625 0zm4.256256 2.953125q0 -0.765625 0.359375 -1.34375q0.359375 -0.578125 1.125 -0.984375q0.78125 -0.421875 2.0 -0.671875q1.234375 -0.265625 2.953125 -0.390625q-0.046875 -0.84375 -0.5625 -1.4375q-0.5 -0.59375 -1.71875 -0.59375q-0.84375 0 -1.640625 0.3125q-0.78125 0.3125 -1.453125 0.703125l-0.6875 -1.25q0.375 -0.21875 0.828125 -0.453125q0.46875 -0.234375 1.0 -0.421875q0.53125 -0.1875 1.09375 -0.296875q0.578125 -0.109375 1.171875 -0.109375q1.90625 0 2.859375 1.03125q0.953125 1.015625 0.953125 2.828125l0 5.484375l-1.515625 0l-0.140625 -1.171875l-0.0625 0q-0.734375 0.5625 -1.640625 0.984375q-0.890625 0.40625 -1.84375 0.40625q-0.65625 0 -1.234375 -0.1875q-0.5625 -0.1875 -0.96875 -0.53125q-0.40625 -0.34375 -0.640625 -0.828125q-0.234375 -0.484375 -0.234375 -1.078125zm1.78125 -0.125q0 0.6875 0.53125 0.984375q0.53125 0.296875 1.28125 0.296875q0.734375 0 1.421875 -0.3125q0.703125 -0.328125 1.421875 -0.90625l0 -2.15625q-1.34375 0.109375 -2.25 0.296875q-0.890625 0.171875 -1.421875 0.4375q-0.53125 0.265625 -0.765625 0.609375q-0.21875 0.328125 -0.21875 0.75zm8.990631 -6.59375l1.421875 0l0.15625 1.203125l0.046875 0q0.328125 -0.625 0.78125 -1.015625q0.453125 -0.40625 1.234375 -0.40625q1.359375 0 1.703125 1.546875q0.375 -0.6875 0.859375 -1.109375q0.484375 -0.4375 1.25 -0.4375q0.95314026 0 1.4687653 0.734375q0.53125 0.734375 0.53125 2.109375l0 6.5l-1.7656403 0l0 -6.34375q0 -1.40625 -0.859375 -1.40625q-0.421875 0 -0.75 0.3125q-0.3125 0.3125 -0.625 0.9375l0 6.5l-1.453125 0l0 -6.34375q0 -1.40625 -0.890625 -1.40625q-0.4375 0 -0.734375 0.3125q-0.296875 0.3125 -0.609375 0.9375l0 6.5l-1.765625 0l0 -9.125z" fill-rule="nonzero"/><path fill="#000000" fill-opacity="0.0" d="m925.395 177.34776l145.95276 0l0 145.95277l-145.95276 0z" fill-rule="evenodd"/><path stroke="#000000" stroke-width="1.0" stroke-linejoin="round" stroke-linecap="butt" d="m925.395 177.34776l145.95276 0l0 145.95277l-145.95276 0z" fill-rule="evenodd"/><path fill="#000000" d="m950.1778 263.161q-2.34375 -2.09375 -3.703125 -4.828125q-1.359375 -2.7343597 -1.359375 -6.1406097q0 -3.40625 1.359375 -6.140625q1.359375 -2.734375 3.703125 -4.828125l1.96875 1.5625q-2.140625 2.09375 -3.109375 4.34375q-0.96875 2.234375 -0.96875 5.0625q0 1.421875 0.234375 2.6875q0.25 1.2499847 0.734375 2.4062347q0.5 1.140625 1.265625 2.203125q0.765625 1.078125 1.84375 2.109375l-1.96875 1.5625l0 0zm17.884338 -7.15625l0 2.859375l-10.921875 0l0 -2.859375l3.9375 0l0 -8.79686l-3.140625 0l0 -2.1875q1.34375 -0.25 2.28125 -0.578125q0.953125 -0.34375 1.796875 -0.8125l2.59375 0l0 12.374985l3.453125 0zm5.8843384 6.0q3.109375 -1.078125 3.109375 -3.40625q-0.09375 0.03125 -0.265625 0.03125q-0.5 0 -0.96875 -0.15625q-0.46875 -0.15625 -0.828125 -0.46875q-0.359375 -0.3125 -0.578125 -0.765625q-0.21875 -0.46875 -0.21875 -1.0625q0 -1.1249847 0.78125 -1.7968597q0.78125 -0.671875 1.90625 -0.671875q1.5 0 2.234375 1.09375q0.75 1.09375 0.75 3.0312347q0 2.296875 -1.28125 3.875q-1.265625 1.59375 -3.765625 2.359375l-0.875 -2.0625zm11.556213 -18.781235l3.53125 0l0 6.015625l4.28125 0l0 -6.015625l3.515625 0l0 15.64061l-3.515625 0l0 -6.5312347l-4.28125 0l0 6.5312347l-3.53125 0l0 -15.64061zm14.649963 12.671875l3.640625 0l0 -9.703125l-3.640625 0l0 -2.96875l10.84375 0l0 2.96875l-3.65625 0l0 9.703125l3.65625 0l0 2.9687347l-10.84375 0l0 -2.9687347zm13.681213 -4.765625q0 -1.96875 0.5625 -3.484375q0.5625 -1.53125 1.53125 -2.5625q0.96875 -1.046875 2.28125 -1.59375q1.328125 -0.5625 2.84375 -0.5625q1.578125 0 2.6875 0.609375q1.125 0.609375 1.890625 1.390625l-1.9375 2.171875q-0.5 -0.5 -1.109375 -0.8125q-0.59375 -0.3125 -1.53125 -0.3125q-0.765625 0 -1.421875 0.359375q-0.640625 0.34375 -1.125 1.0q-0.484375 0.640625 -0.765625 1.578125q-0.265625 0.921875 -0.265625 2.109375q0 2.421875 0.921875 3.75q0.921875 1.3281097 2.796875 1.3281097q0.453125 0 0.859375 -0.10935974q0.421875 -0.125 0.671875 -0.359375l0 -2.6875l-2.265625 0l0 -2.890625l5.4375 0l0 7.2031097q-0.78125 0.75 -2.078125 1.328125q-1.296875 0.5625 -2.8125 0.5625q-1.515625 0 -2.828125 -0.515625q-1.296875 -0.515625 -2.28125 -1.515625q-0.96875 -1.015625 -1.515625 -2.5156097q-0.546875 -1.5 -0.546875 -3.46875zm14.868652 -7.90625l3.53125 0l0 6.015625l4.28125 0l0 -6.015625l3.515625 0l0 15.64061l-3.515625 0l0 -6.5312347l-4.28125 0l0 6.5312347l-3.53125 0l0 -15.64061zm15.900024 18.374985q1.078125 -1.03125 1.84375 -2.109375q0.765625 -1.0625 1.25 -2.203125q0.5 -1.15625 0.734375 -2.4062347q0.25 -1.265625 0.25 -2.6875q0 -2.828125 -0.984375 -5.0625q-0.96875 -2.25 -3.09375 -4.34375l1.953125 -1.5625q2.359375 2.09375 3.71875 4.828125q1.359375 2.734375 1.359375 6.140625q0 3.40625 -1.359375 6.1406097q-1.359375 2.734375 -3.71875 4.828125l-1.953125 -1.5625z" fill-rule="nonzero"/><path fill="#000000" fill-opacity="0.0" d="m633.4895 325.12335l437.85828 0l0 58.4252l-437.85828 0z" fill-rule="evenodd"/><path fill="#000000" d="m697.3779 349.0372l1.890625 0l0 5.84375l0.0625 0l4.734375 -5.84375l2.09375 0l-3.796875 4.71875l4.21875 7.5l-2.0625 0l-3.296875 -6.046875l-1.953125 2.328125l0 3.71875l-1.890625 0l0 -12.21875zm10.740601 7.671875q0 -1.125 0.390625 -2.0q0.390625 -0.890625 1.03125 -1.515625q0.65625 -0.625 1.5 -0.953125q0.84375 -0.328125 1.734375 -0.328125q1.015625 0 1.78125 0.3125q0.78125 0.3125 1.3125 0.890625q0.546875 0.5625 0.828125 1.359375q0.28125 0.796875 0.28125 1.75q0 0.28125 -0.03125 0.53125q-0.03125 0.25 -0.0625 0.421875l-6.875 0q0.09375 1.328125 1.0 2.09375q0.90625 0.75 2.296875 0.75q0.734375 0 1.375 -0.203125q0.65625 -0.203125 1.265625 -0.578125l0.65625 1.171875q-0.703125 0.453125 -1.59375 0.765625q-0.890625 0.296875 -1.953125 0.296875q-1.03125 0 -1.9375 -0.3125q-0.890625 -0.328125 -1.5625 -0.9375q-0.671875 -0.625 -1.0625 -1.515625q-0.375 -0.890625 -0.375 -2.0zm7.140625 -0.8125q0 -1.21875 -0.640625 -1.875q-0.625 -0.65625 -1.8125 -0.65625q-1.015625 0 -1.828125 0.65625q-0.796875 0.65625 -0.984375 1.875l5.265625 0zm4.4594116 7.5625q0.171875 0.046875 0.375 0.078125q0.203125 0.046875 0.40625 0.046875q0.921875 0 1.46875 -0.5q0.5625 -0.484375 0.875 -1.25l0.25 -0.640625l-4.15625 -9.0625l1.84375 0l2.046875 4.765625q0.265625 0.609375 0.515625 1.296875q0.265625 0.6875 0.546875 1.359375l0.078125 0q0.21875 -0.640625 0.453125 -1.328125q0.25 -0.703125 0.484375 -1.328125l1.8125 -4.765625l1.75 0l-3.90625 9.703125q-0.28125 0.734375 -0.640625 1.328125q-0.34375 0.59375 -0.828125 1.015625q-0.46875 0.4375 -1.09375 0.671875q-0.609375 0.234375 -1.40625 0.234375q-0.328125 0 -0.65625 -0.046875q-0.328125 -0.046875 -0.59375 -0.140625l0.375 -1.4375l0 0zm13.053101 -1.453125l0 2.984375l-1.84375 0l0 -12.859375l1.515625 0l0.140625 1.125l0.0625 0q0.609375 -0.59375 1.40625 -0.96875q0.8125 -0.375 1.640625 -0.375q0.890625 0 1.578125 0.328125q0.703125 0.328125 1.171875 0.9375q0.484375 0.59375 0.734375 1.453125q0.265625 0.859375 0.265625 1.921875q0 1.171875 -0.34375 2.09375q-0.328125 0.90625 -0.90625 1.53125q-0.5625 0.625 -1.3125 0.96875q-0.75 0.328125 -1.546875 0.328125q-0.640625 0 -1.328125 -0.28125q-0.6875 -0.296875 -1.28125 -0.828125l0.046875 1.640625zm0 -3.0q0.578125 0.515625 1.171875 0.734375q0.609375 0.203125 1.03125 0.203125q1.109375 0 1.828125 -0.859375q0.734375 -0.875 0.734375 -2.515625q0 -1.4375 -0.5625 -2.265625q-0.5625 -0.84375 -1.796875 -0.84375q-0.5625 0 -1.171875 0.296875q-0.609375 0.28125 -1.234375 0.9375l0 4.3125zm9.131287 -0.15625q0 -0.765625 0.359375 -1.34375q0.359375 -0.578125 1.125 -0.984375q0.78125 -0.421875 2.0 -0.671875q1.234375 -0.265625 2.953125 -0.390625q-0.046875 -0.84375 -0.5625 -1.4375q-0.5 -0.59375 -1.71875 -0.59375q-0.84375 0 -1.640625 0.3125q-0.78125 0.3125 -1.453125 0.703125l-0.6875 -1.25q0.375 -0.21875 0.828125 -0.453125q0.46875 -0.234375 1.0 -0.421875q0.53125 -0.1875 1.09375 -0.296875q0.578125 -0.109375 1.171875 -0.109375q1.90625 0 2.859375 1.03125q0.953125 1.015625 0.953125 2.828125l0 5.484375l-1.515625 0l-0.140625 -1.171875l-0.0625 0q-0.734375 0.5625 -1.640625 0.984375q-0.890625 0.40625 -1.84375 0.40625q-0.65625 0 -1.234375 -0.1875q-0.5625 -0.1875 -0.96875 -0.53125q-0.40625 -0.34375 -0.640625 -0.828125q-0.234375 -0.484375 -0.234375 -1.078125zm1.78125 -0.125q0 0.6875 0.53125 0.984375q0.53125 0.296875 1.28125 0.296875q0.734375 0 1.421875 -0.3125q0.703125 -0.328125 1.421875 -0.90625l0 -2.15625q-1.34375 0.109375 -2.25 0.296875q-0.890625 0.171875 -1.421875 0.4375q-0.53125 0.265625 -0.765625 0.609375q-0.21875 0.328125 -0.21875 0.75zm9.037476 -2.015625q0 -1.125 0.34375 -2.0q0.34375 -0.890625 0.90625 -1.5q0.578125 -0.625 1.3125 -0.953125q0.734375 -0.34375 1.515625 -0.34375q0.84375 0 1.453125 0.296875q0.609375 0.296875 1.203125 0.84375l-0.078125 -1.625l0 -3.40625l1.84375 0l0 13.234375l-1.5 0l-0.15625 -1.125l-0.0625 0q-0.53125 0.546875 -1.28125 0.953125q-0.75 0.390625 -1.5625 0.390625q-0.90625 0 -1.625 -0.3125q-0.703125 -0.3125 -1.234375 -0.921875q-0.515625 -0.625 -0.796875 -1.515625q-0.28125 -0.890625 -0.28125 -2.015625zm1.90625 -0.03125q0 1.59375 0.640625 2.4375q0.640625 0.828125 1.8125 0.828125q1.234375 0 2.296875 -1.21875l0 -4.328125q-0.546875 -0.53125 -1.09375 -0.734375q-0.53125 -0.203125 -1.0625 -0.203125q-0.546875 0 -1.015625 0.234375q-0.46875 0.21875 -0.828125 0.640625q-0.34375 0.40625 -0.546875 1.015625q-0.203125 0.59375 -0.203125 1.328125zm24.325012 -0.90625l-3.375 0l0 -1.34375l3.375 0l0 -3.59375l1.421875 0l0 3.59375l3.375 0l0 1.34375l-3.375 0l0 3.59375l-1.421875 0l0 -3.59375zm18.918762 -7.75l4.828125 0l0 10.15625q0 0.953125 0.46875 1.375q0.484375 0.421875 1.25 0.421875q0.375 0 0.765625 -0.09375q0.390625 -0.09375 0.875 -0.296875l0.453125 1.375q-0.328125 0.109375 -0.625 0.203125q-0.28125 0.09375 -0.578125 0.15625q-0.296875 0.0625 -0.625 0.109375q-0.328125 0.046875 -0.71875 0.046875q-1.53125 0 -2.328125 -0.875q-0.78125 -0.875 -0.78125 -2.53125l0 -8.5625l-2.984375 0l0 -1.484375zm11.193787 10.828125q0 -0.765625 0.359375 -1.34375q0.359375 -0.578125 1.125 -0.984375q0.78125 -0.421875 2.0 -0.671875q1.234375 -0.265625 2.953125 -0.390625q-0.046875 -0.84375 -0.5625 -1.4375q-0.5 -0.59375 -1.71875 -0.59375q-0.84375 0 -1.640625 0.3125q-0.78125 0.3125 -1.453125 0.703125l-0.6875 -1.25q0.375 -0.21875 0.828125 -0.453125q0.46875 -0.234375 1.0 -0.421875q0.53125 -0.1875 1.09375 -0.296875q0.578125 -0.109375 1.171875 -0.109375q1.90625 0 2.859375 1.03125q0.953125 1.015625 0.953125 2.828125l0 5.484375l-1.515625 0l-0.140625 -1.171875l-0.0625 0q-0.734375 0.5625 -1.640625 0.984375q-0.890625 0.40625 -1.84375 0.40625q-0.65625 0 -1.234375 -0.1875q-0.5625 -0.1875 -0.96875 -0.53125q-0.40625 -0.34375 -0.640625 -0.828125q-0.234375 -0.484375 -0.234375 -1.078125zm1.78125 -0.125q0 0.6875 0.53125 0.984375q0.53125 0.296875 1.28125 0.296875q0.734375 0 1.421875 -0.3125q0.703125 -0.328125 1.421875 -0.90625l0 -2.15625q-1.34375 0.109375 -2.25 0.296875q-0.890625 0.171875 -1.421875 0.4375q-0.53125 0.265625 -0.765625 0.609375q-0.21875 0.328125 -0.21875 0.75zm11.678101 -5.09375l-2.5 0l0 -1.40625l2.578125 -0.09375l0.25 -2.515625l1.53125 0l0 2.515625l4.296875 0l0 1.5l-4.296875 0l0 4.03125q0 1.171875 0.46875 1.75q0.484375 0.578125 1.734375 0.578125q0.59375 0 1.09375 -0.09375q0.515625 -0.109375 0.984375 -0.296875l0.375 1.359375q-0.609375 0.203125 -1.359375 0.359375q-0.75 0.15625 -1.53125 0.15625q-1.0 0 -1.703125 -0.265625q-0.703125 -0.28125 -1.125 -0.78125q-0.421875 -0.515625 -0.609375 -1.21875q-0.1875 -0.703125 -0.1875 -1.546875l0 -4.03125zm8.725037 3.078125q0 -1.125 0.390625 -2.0q0.390625 -0.890625 1.03125 -1.515625q0.65625 -0.625 1.5 -0.953125q0.84375 -0.328125 1.734375 -0.328125q1.015625 0 1.78125 0.3125q0.78125 0.3125 1.3125 0.890625q0.546875 0.5625 0.828125 1.359375q0.28125 0.796875 0.28125 1.75q0 0.28125 -0.03125 0.53125q-0.03125 0.25 -0.0625 0.421875l-6.875 0q0.09375 1.328125 1.0 2.09375q0.90625 0.75 2.296875 0.75q0.734375 0 1.375 -0.203125q0.65625 -0.203125 1.265625 -0.578125l0.65625 1.171875q-0.703125 0.453125 -1.59375 0.765625q-0.890625 0.296875 -1.953125 0.296875q-1.03125 0 -1.9375 -0.3125q-0.890625 -0.328125 -1.5625 -0.9375q-0.671875 -0.625 -1.0625 -1.515625q-0.375 -0.890625 -0.375 -2.0zm7.140625 -0.8125q0 -1.21875 -0.640625 -1.875q-0.625 -0.65625 -1.8125 -0.65625q-1.015625 0 -1.828125 0.65625q-0.796875 0.65625 -0.984375 1.875l5.265625 0zm4.9593506 2.96875q0.78125 0.546875 1.640625 0.875q0.859375 0.328125 2.0 0.328125q1.171875 0 1.703125 -0.359375q0.546875 -0.359375 0.546875 -0.890625q0 -0.515625 -0.65625 -0.875q-0.640625 -0.375 -2.15625 -0.75q-0.671875 -0.171875 -1.296875 -0.40625q-0.625 -0.25 -1.09375 -0.578125q-0.46875 -0.328125 -0.75 -0.71875q-0.265625 -0.40625 -0.265625 -0.90625q0 -0.578125 0.25 -1.0625q0.25 -0.5 0.75 -0.84375q0.5 -0.359375 1.21875 -0.5625q0.734375 -0.203125 1.6875 -0.203125q1.09375 0 2.0625 0.359375q0.984375 0.359375 1.671875 0.828125l-0.859375 1.15625q-0.609375 -0.40625 -1.328125 -0.65625q-0.703125 -0.265625 -1.515625 -0.265625q-1.15625 0 -1.625 0.34375q-0.453125 0.328125 -0.453125 0.8125q0 0.515625 0.75 0.859375q0.75 0.328125 1.921875 0.625q1.71875 0.4375 2.640625 1.046875q0.921875 0.59375 0.921875 1.671875q0 0.578125 -0.28125 1.09375q-0.28125 0.5 -0.8125 0.890625q-0.53125 0.375 -1.3125 0.578125q-0.765625 0.21875 -1.78125 0.21875q-1.296875 0 -2.453125 -0.40625q-1.15625 -0.421875 -2.0 -1.0l0.875 -1.203125zm12.756287 -5.234375l-2.5 0l0 -1.40625l2.578125 -0.09375l0.25 -2.515625l1.53125 0l0 2.515625l4.296875 0l0 1.5l-4.296875 0l0 4.03125q0 1.171875 0.46875 1.75q0.484375 0.578125 1.734375 0.578125q0.59375 0 1.09375 -0.09375q0.515625 -0.109375 0.984375 -0.296875l0.375 1.359375q-0.609375 0.203125 -1.359375 0.359375q-0.75 0.15625 -1.53125 0.15625q-1.0 0 -1.703125 -0.265625q-0.703125 -0.28125 -1.125 -0.78125q-0.421875 -0.515625 -0.609375 -1.21875q-0.1875 -0.703125 -0.1875 -1.546875l0 -4.03125zm20.825012 5.234375q0.78125 0.546875 1.640625 0.875q0.859375 0.328125 2.0 0.328125q1.171875 0 1.703125 -0.359375q0.546875 -0.359375 0.546875 -0.890625q0 -0.515625 -0.65625 -0.875q-0.640625 -0.375 -2.15625 -0.75q-0.671875 -0.171875 -1.296875 -0.40625q-0.625 -0.25 -1.09375 -0.578125q-0.46875 -0.328125 -0.75 -0.71875q-0.265625 -0.40625 -0.265625 -0.90625q0 -0.578125 0.25 -1.0625q0.25 -0.5 0.75 -0.84375q0.5 -0.359375 1.21875 -0.5625q0.734375 -0.203125 1.6875 -0.203125q1.09375 0 2.0625 0.359375q0.984375 0.359375 1.671875 0.828125l-0.859375 1.15625q-0.609375 -0.40625 -1.328125 -0.65625q-0.703125 -0.265625 -1.515625 -0.265625q-1.15625 0 -1.625 0.34375q-0.453125 0.328125 -0.453125 0.8125q0 0.515625 0.75 0.859375q0.75 0.328125 1.921875 0.625q1.71875 0.4375 2.640625 1.046875q0.921875 0.59375 0.921875 1.671875q0 0.578125 -0.28125 1.09375q-0.28125 0.5 -0.8125 0.890625q-0.53125 0.375 -1.3125 0.578125q-0.765625 0.21875 -1.78125 0.21875q-1.296875 0 -2.453125 -0.40625q-1.15625 -0.421875 -2.0 -1.0l0.875 -1.203125zm9.193726 -6.734375l1.859375 0l0.96875 5.0q0.125 0.65625 0.21875 1.296875q0.09375 0.640625 0.1875 1.296875l0.078125 0q0.21875 -1.265625 0.5 -2.59375l0.96875 -4.265625l1.453125 0l1.015625 4.265625q0.140625 0.65625 0.265625 1.296875q0.125 0.640625 0.25 1.296875l0.078125 0q0.125 -0.65625 0.203125 -1.296875q0.09375 -0.640625 0.203125 -1.296875l0.96875 -5.0l1.71875 0l-1.828125 9.125l-2.203125 0l-0.9375 -4.203125q-0.125 -0.640625 -0.234375 -1.28125q-0.09375 -0.65625 -0.21875 -1.359375l-0.078125 0q-0.09375 0.5625 -0.203125 1.203125q-0.09375 0.625 -0.25 1.46875l-0.90625 4.171875l-2.171875 0l-1.90625 -9.125zm12.693787 0l5.9375 0l0 9.125l-1.859375 0l0 -7.625l-4.078125 0l0 -1.5zm4.84375 -1.734375q-0.59375 0 -0.984375 -0.34375q-0.390625 -0.359375 -0.390625 -0.953125q0 -0.609375 0.390625 -0.96875q0.390625 -0.359375 0.984375 -0.359375q0.609375 0 1.0 0.359375q0.390625 0.359375 0.390625 0.96875q0 0.59375 -0.390625 0.953125q-0.390625 0.34375 -1.0 0.34375zm8.412476 3.234375l-2.5 0l0 -1.40625l2.578125 -0.09375l0.25 -2.515625l1.53125 0l0 2.515625l4.296875 0l0 1.5l-4.296875 0l0 4.03125q0 1.171875 0.46875 1.75q0.484375 0.578125 1.734375 0.578125q0.59375 0 1.09375 -0.09375q0.515625 -0.109375 0.984375 -0.296875l0.375 1.359375q-0.609375 0.203125 -1.359375 0.359375q-0.75 0.15625 -1.53125 0.15625q-1.0 0 -1.703125 -0.265625q-0.703125 -0.28125 -1.125 -0.78125q-0.421875 -0.515625 -0.609375 -1.21875q-0.1875 -0.703125 -0.1875 -1.546875l0 -4.03125zm8.928162 3.078125q0 -1.140625 0.40625 -2.03125q0.40625 -0.90625 1.109375 -1.515625q0.71875 -0.625 1.640625 -0.9375q0.921875 -0.3125 1.96875 -0.3125q1.125 0 1.953125 0.390625q0.84375 0.375 1.40625 0.90625l-0.890625 1.1875q-0.546875 -0.453125 -1.125 -0.703125q-0.578125 -0.25 -1.25 -0.25q-0.734375 0 -1.34375 0.234375q-0.609375 0.234375 -1.046875 0.65625q-0.4375 0.421875 -0.6875 1.03125q-0.234375 0.609375 -0.234375 1.34375q0 0.71875 0.21875 1.328125q0.234375 0.609375 0.671875 1.046875q0.453125 0.421875 1.046875 0.65625q0.59375 0.234375 1.3125 0.234375q0.84375 0 1.515625 -0.3125q0.671875 -0.328125 1.21875 -0.78125l0.78125 1.203125q-0.78125 0.671875 -1.71875 1.03125q-0.9375 0.359375 -1.9375 0.359375q-1.0625 0 -1.984375 -0.3125q-0.921875 -0.3125 -1.59375 -0.921875q-0.671875 -0.625 -1.0625 -1.515625q-0.375 -0.890625 -0.375 -2.015625zm11.412476 -8.6875l1.84375 0l0 3.515625l-0.109375 2.046875q0.6875 -0.703125 1.484375 -1.1875q0.8125 -0.484375 1.875 -0.484375q1.609375 0 2.34375 0.953125q0.75 0.953125 0.75 2.734375l0 5.65625l-1.84375 0l0 -5.40625q0 -1.203125 -0.4375 -1.765625q-0.421875 -0.578125 -1.46875 -0.578125q-0.71875 0 -1.296875 0.375q-0.578125 0.359375 -1.296875 1.09375l0 6.28125l-1.84375 0l0 -13.234375zm21.606262 4.109375l1.859375 0l1.921875 4.96875q0.265625 0.6875 0.5 1.359375q0.234375 0.671875 0.46875 1.34375l0.078125 0q0.25 -0.671875 0.46875 -1.34375q0.21875 -0.671875 0.484375 -1.359375l1.921875 -4.96875l1.765625 0l-3.65625 9.125l-2.078125 0l-3.734375 -9.125zm11.756287 6.71875q0 -0.765625 0.359375 -1.34375q0.359375 -0.578125 1.125 -0.984375q0.78125 -0.421875 2.0 -0.671875q1.234375 -0.265625 2.953125 -0.390625q-0.046875 -0.84375 -0.5625 -1.4375q-0.5 -0.59375 -1.71875 -0.59375q-0.84375 0 -1.640625 0.3125q-0.78125 0.3125 -1.453125 0.703125l-0.6875 -1.25q0.375 -0.21875 0.828125 -0.453125q0.46875 -0.234375 1.0 -0.421875q0.53125 -0.1875 1.09375 -0.296875q0.578125 -0.109375 1.171875 -0.109375q1.90625 0 2.859375 1.03125q0.953125 1.015625 0.953125 2.828125l0 5.484375l-1.515625 0l-0.140625 -1.171875l-0.0625 0q-0.734375 0.5625 -1.640625 0.984375q-0.890625 0.40625 -1.84375 0.40625q-0.65625 0 -1.234375 -0.1875q-0.5625 -0.1875 -0.96875 -0.53125q-0.40625 -0.34375 -0.640625 -0.828125q-0.234375 -0.484375 -0.234375 -1.078125zm1.78125 -0.125q0 0.6875 0.53125 0.984375q0.53125 0.296875 1.28125 0.296875q0.734375 0 1.421875 -0.3125q0.703125 -0.328125 1.421875 -0.90625l0 -2.15625q-1.34375 0.109375 -2.25 0.296875q-0.890625 0.171875 -1.421875 0.4375q-0.53125 0.265625 -0.765625 0.609375q-0.21875 0.328125 -0.21875 0.75zm9.412476 -10.703125l4.828125 0l0 10.15625q0 0.953125 0.46875 1.375q0.484375 0.421875 1.25 0.421875q0.375 0 0.765625 -0.09375q0.390625 -0.09375 0.875 -0.296875l0.453125 1.375q-0.328125 0.109375 -0.625 0.203125q-0.28125 0.09375 -0.578125 0.15625q-0.296875 0.0625 -0.625 0.109375q-0.328125 0.046875 -0.71875 0.046875q-1.53125 0 -2.328125 -0.875q-0.78125 -0.875 -0.78125 -2.53125l0 -8.5625l-2.984375 0l0 -1.484375zm19.287537 13.234375l-1.515625 0l-0.140625 -1.515625l-0.078125 0q-0.671875 0.78125 -1.46875 1.265625q-0.796875 0.46875 -1.828125 0.46875q-1.625 0 -2.375 -0.9375q-0.75 -0.9375 -0.75 -2.75l0 -5.65625l1.84375 0l0 5.40625q0 1.21875 0.421875 1.796875q0.4375 0.5625 1.484375 0.5625q0.71875 0 1.296875 -0.34375q0.59375 -0.34375 1.265625 -1.171875l0 -6.25l1.84375 0l0 9.125zm2.8968506 -4.546875q0 -1.125 0.390625 -2.0q0.390625 -0.890625 1.03125 -1.515625q0.65625 -0.625 1.5 -0.953125q0.84375 -0.328125 1.734375 -0.328125q1.015625 0 1.78125 0.3125q0.78125 0.3125 1.3125 0.890625q0.546875 0.5625 0.828125 1.359375q0.28125 0.796875 0.28125 1.75q0 0.28125 -0.03125 0.53125q-0.03125 0.25 -0.0625 0.421875l-6.875 0q0.09375 1.328125 1.0 2.09375q0.90625 0.75 2.296875 0.75q0.734375 0 1.375 -0.203125q0.65625 -0.203125 1.265625 -0.578125l0.65625 1.171875q-0.703125 0.453125 -1.59375 0.765625q-0.890625 0.296875 -1.953125 0.296875q-1.03125 0 -1.9375 -0.3125q-0.890625 -0.328125 -1.5625 -0.9375q-0.671875 -0.625 -1.0625 -1.515625q-0.375 -0.890625 -0.375 -2.0zm7.140625 -0.8125q0 -1.21875 -0.640625 -1.875q-0.625 -0.65625 -1.8125 -0.65625q-1.015625 0 -1.828125 0.65625q-0.796875 0.65625 -0.984375 1.875l5.265625 0z" fill-rule="nonzero"/></g></svg>